<svg width="270" height="127" viewBox="0 0 270 127" fill="none" xmlns="http://www.w3.org/2000/svg">
<g clip-path="url(#clip0_411_23)">
<path d="M151.528 4.75785C153.259 4.32955 154.358 5.3258 155.289 7.09485C156.863 10.1022 158.65 13.0072 160.401 15.9307C161.052 17.0108 161.127 17.9419 160.457 19.0778C157.105 24.776 153.809 30.4928 150.531 36.2282C149.796 37.5224 149.433 37.4386 148.511 36.2561C146.5 33.677 146.593 31.4611 148.474 28.761C150.68 25.5953 152.366 22.0758 154.349 18.7519C154.907 17.8115 154.851 17.0946 154.311 16.1914C152.496 13.1561 150.727 10.0929 148.995 7.01105C147.831 4.93475 147.943 4.78578 150.41 4.76716C150.662 4.75785 150.932 4.75785 151.528 4.75785Z" fill="white"/>
<path d="M170.67 33.919C171.909 35.1946 171.601 36.6563 170.54 38.3416C168.734 41.2186 167.123 44.226 165.484 47.2054C164.879 48.3041 164.106 48.8441 162.793 48.8441C156.192 48.8162 149.581 48.8441 142.98 48.9C141.49 48.9093 141.379 48.5648 141.937 47.1589C143.157 44.1236 145.122 43.0901 148.39 43.3508C152.235 43.6673 156.127 43.3415 159.991 43.388C161.08 43.3973 161.676 42.997 162.188 42.0659C163.892 38.9654 165.652 35.9022 167.449 32.8483C168.659 30.7906 168.845 30.8185 170.102 32.9414C170.242 33.1741 170.372 33.3976 170.67 33.919Z" fill="white"/>
<path d="M155.112 65.1286C154.637 66.8418 153.213 67.3167 151.23 67.2422C147.831 67.1305 144.423 67.2515 141.025 67.3353C139.768 67.3632 138.921 66.9722 138.26 65.8363C134.954 60.1195 131.603 54.4213 128.232 48.7417C127.469 47.4568 127.72 47.1868 129.21 46.9727C132.45 46.4978 134.331 47.671 135.746 50.6318C137.412 54.114 139.647 57.3169 141.556 60.6781C142.096 61.6278 142.748 61.9351 143.809 61.9071C147.347 61.8233 150.885 61.7954 154.414 61.814C156.797 61.8233 156.863 62.0002 155.671 64.151C155.54 64.3838 155.41 64.6165 155.112 65.1286Z" fill="white"/>
<path d="M120.318 67.4098C118.595 67.8567 117.478 66.8698 116.538 65.1193C114.927 62.1306 113.102 59.2443 111.324 56.3486C110.663 55.2779 110.579 54.3468 111.231 53.2016C114.508 47.4662 117.739 41.7028 120.951 35.9302C121.677 34.6266 122.031 34.7011 122.972 35.8836C125.011 38.4441 124.945 40.66 123.102 43.3788C120.932 46.5723 119.294 50.1104 117.348 53.453C116.799 54.4027 116.864 55.1196 117.413 56.0134C119.266 59.0208 121.063 62.0654 122.841 65.1287C124.033 67.1956 123.921 67.3446 121.454 67.3912C121.175 67.4005 120.905 67.4005 120.318 67.4098Z" fill="white"/>
<path d="M100.83 38.4813C99.5735 37.215 99.8622 35.7532 100.905 34.0586C102.683 31.163 104.257 28.137 105.858 25.1296C106.454 24.0217 107.208 23.4723 108.53 23.463C115.132 23.4165 121.742 23.3047 128.344 23.1744C129.833 23.1465 129.945 23.491 129.405 24.8969C128.223 27.9508 126.277 29.0029 122.999 28.7795C119.154 28.5094 115.262 28.8726 111.398 28.8819C110.309 28.8819 109.713 29.3009 109.219 30.2319C107.553 33.351 105.83 36.4422 104.071 39.5054C102.888 41.5724 102.702 41.5445 101.417 39.4496C101.268 39.2261 101.128 38.9933 100.83 38.4813Z" fill="white"/>
<path d="M116.007 7.0855C116.463 5.36302 117.879 4.87886 119.862 4.92541C123.26 4.9999 126.668 4.8323 130.066 4.71126C131.323 4.66471 132.18 5.04645 132.85 6.18236C136.221 11.8619 139.638 17.5135 143.083 23.1559C143.856 24.4314 143.613 24.7014 142.124 24.9435C138.893 25.4556 136.994 24.3011 135.541 21.3589C133.837 17.9046 131.565 14.7296 129.61 11.3871C129.061 10.4467 128.409 10.1394 127.348 10.1767C123.81 10.307 120.281 10.3722 116.743 10.4001C114.359 10.4188 114.285 10.2418 115.458 8.08176C115.588 7.83968 115.718 7.60691 116.007 7.0855Z" fill="white"/>
<path d="M127.022 14.8692C123.186 14.8879 119.35 15.0368 115.514 15.0461C114.657 13.5844 113.056 12.5974 111.24 12.5974C108.503 12.5974 106.277 14.8227 106.277 17.56C106.277 20.2974 108.503 22.5227 111.24 22.5227C112.953 22.5227 114.461 21.6568 115.355 20.3346C117.962 20.2322 120.579 20.1019 123.167 20.2974C125.895 20.5022 127.152 19.1336 128.26 17.1131C129.238 15.2975 129.051 14.8599 127.022 14.8692ZM111.24 20.1577C110.998 20.1577 110.756 20.1205 110.532 20.0646C109.443 19.7574 108.642 18.7518 108.642 17.56C108.642 16.1262 109.806 14.9623 111.24 14.9623C111.668 14.9623 112.078 15.0648 112.441 15.251C113.27 15.6886 113.838 16.5545 113.838 17.56C113.838 18.9939 112.674 20.1577 111.24 20.1577Z" fill="white"/>
<path d="M115.653 32.9507C114.592 31.191 114.108 31.1258 113.102 32.8856C111.035 36.4702 109.108 40.1293 107.013 43.6953C106.976 43.7605 106.938 43.8257 106.901 43.8816C104.238 43.956 102.087 46.1534 102.087 48.8349C102.087 51.5722 104.313 53.7975 107.05 53.7975C109.787 53.7975 112.013 51.5722 112.013 48.8349C112.013 48.0341 111.817 47.2707 111.482 46.6003C112.879 44.0119 114.191 41.3677 115.858 38.9562C117.394 36.703 116.836 34.9246 115.653 32.9507ZM109.508 49.6542C109.164 50.6877 108.186 51.4419 107.041 51.4419C105.607 51.4419 104.443 50.278 104.443 48.8442C104.443 47.7734 105.095 46.8424 106.026 46.4513C106.333 46.321 106.678 46.2465 107.041 46.2465C108.475 46.2465 109.638 47.4103 109.638 48.8442C109.638 49.1235 109.592 49.3935 109.508 49.6542Z" fill="white"/>
<path d="M150.029 18.1653C148.101 14.7017 146.044 11.3126 144.135 7.83965C144.721 7.02961 145.057 6.03336 145.057 4.96263C145.057 2.22527 142.831 0 140.094 0C137.357 0 135.131 2.22527 135.131 4.96263C135.131 7.37411 136.863 9.39454 139.154 9.83215C140.643 12.3274 142.208 14.7762 143.399 17.4018C144.535 19.8971 146.341 20.3347 148.651 20.3254C150.718 20.316 151.015 19.9343 150.029 18.1653ZM142.626 5.55852C142.356 6.70374 141.323 7.56033 140.094 7.56033C138.986 7.56033 138.027 6.85271 137.664 5.87508C137.561 5.59576 137.496 5.2885 137.496 4.96263C137.496 3.52877 138.66 2.36493 140.094 2.36493C141.528 2.36493 142.692 3.52877 142.692 4.96263C142.701 5.16746 142.673 5.36299 142.626 5.55852Z" fill="white"/>
<path d="M164.87 19.0032C162.132 19.0032 159.907 21.2284 159.907 23.9658C159.907 24.5338 160 25.0738 160.177 25.5766C158.725 28.1836 157.365 30.8464 155.661 33.2672C154.078 35.5018 154.609 37.2895 155.773 39.2727C156.816 41.051 157.3 41.1162 158.324 39.3751C160.382 35.9022 162.309 32.3548 164.385 28.9005C164.544 28.9191 164.702 28.9191 164.86 28.9191C167.598 28.9191 169.823 26.6939 169.823 23.9565C169.823 21.2191 167.607 19.0032 164.87 19.0032ZM165.531 26.4704C165.317 26.5263 165.102 26.5542 164.87 26.5542C163.436 26.5542 162.272 25.3903 162.272 23.9565C162.272 23.4165 162.44 22.9137 162.728 22.4947C163.194 21.8057 163.985 21.3588 164.87 21.3588C166.303 21.3588 167.467 22.5226 167.467 23.9565C167.467 25.1669 166.648 26.1818 165.531 26.4704Z" fill="white"/>
<path d="M160.82 49.9429C159.227 49.9429 157.803 50.7064 156.89 51.8795C153.958 51.9447 151.025 52.103 148.12 51.8423C145.392 51.6002 144.116 52.9595 142.989 54.9614C141.984 56.7583 142.161 57.2053 144.191 57.2146C148.269 57.2425 152.347 57.1215 156.425 57.1773C157.254 58.7601 158.911 59.8495 160.82 59.8495C163.557 59.8495 165.782 57.6242 165.782 54.8869C165.782 52.1681 163.557 49.9429 160.82 49.9429ZM160.82 57.4939C160.177 57.4939 159.591 57.2611 159.134 56.8701C158.576 56.3952 158.222 55.6876 158.222 54.8962C158.222 53.4623 159.386 52.2985 160.82 52.2985H160.829C162.263 52.2985 163.427 53.4623 163.427 54.8962C163.417 56.33 162.253 57.4939 160.82 57.4939Z" fill="white"/>
<path d="M132.599 62.1586C131.09 59.7005 129.498 57.2704 128.279 54.6727C127.115 52.1961 125.299 51.7771 122.999 51.8143C120.942 51.8422 120.644 52.2333 121.649 53.9837C123.614 57.4194 125.709 60.7806 127.655 64.2162C127.096 65.017 126.77 65.9946 126.77 67.0374C126.77 69.7747 128.995 72 131.733 72C134.47 72 136.695 69.7747 136.695 67.0374C136.695 64.6073 134.917 62.5775 132.599 62.1586ZM131.733 69.6444C130.299 69.6444 129.135 68.4806 129.135 67.0467C129.135 66.8605 129.154 66.6743 129.191 66.4974C129.442 65.3242 130.485 64.4397 131.733 64.4397C132.841 64.4397 133.79 65.138 134.163 66.1156C134.265 66.4043 134.33 66.7115 134.33 67.0374C134.33 68.4806 133.167 69.6444 131.733 69.6444Z" fill="white"/>
<path d="M15.8365 110.029H3.65457V122.942H15.8365C18.5165 122.942 20.7093 120.749 20.7093 118.069V114.902C20.7093 112.222 18.5165 110.029 15.8365 110.029V110.029ZM18.5165 107.836V108.08C18.5165 108.08 24.3638 109.055 24.3638 114.902V118.069C24.3638 122.698 20.9529 126.109 15.8365 126.109H0V92H14.131C19.2474 92 22.6584 95.4109 22.6584 100.04V101.989C22.6584 106.862 18.5165 107.836 18.5165 107.836V107.836ZM14.131 95.1673H3.65457V106.862H14.131C16.811 106.862 19.0038 104.669 19.0038 101.989V100.04C19.0038 97.36 16.811 95.1673 14.131 95.1673V95.1673ZM32.7754 92H36.43V122.942H54.7029V126.109H32.7754V92ZM63.6018 117.338L60.6781 126.109H57.0236V124.648L68.9618 92H73.1037L85.042 124.648V126.109H81.3874L78.4637 117.338H63.6018ZM77.2455 114.171L71.1546 96.3855H70.9109L64.82 114.171H77.2455ZM113.432 122.942V126.109H99.3009C94.1845 126.109 90.7735 122.698 90.7735 118.069V100.04C90.7735 95.4109 94.1845 92 99.3009 92H113.432V94.1927L112.457 95.1673H99.3009C96.6209 95.1673 94.4281 97.36 94.4281 100.04V118.069C94.4281 120.749 96.6209 122.942 99.3009 122.942H113.432V122.942ZM124.767 92V107.106H132.807L141.091 92H144.746V93.4618L135.731 108.567L145.233 124.648V126.109H141.578L132.807 110.273H124.767V126.109H121.113V92H124.767V92ZM156.324 126.109H152.67V92H167.775C172.892 92 176.303 95.4109 176.303 100.04V104.669C176.303 111.491 169.725 112.466 169.725 112.466L177.277 124.648V126.109H173.623L166.07 112.709H156.324V126.109V126.109ZM167.775 95.1673H156.324V109.542H167.775C170.455 109.542 172.648 107.349 172.648 104.669V100.04C172.648 97.36 170.455 95.1673 167.775 95.1673ZM201.525 126.597H194.216C189.1 126.597 185.689 123.186 185.689 118.557V92H189.344V118.557C189.344 121.237 191.536 123.429 194.216 123.429H201.525C204.205 123.429 206.398 121.237 206.398 118.557V92H210.053V118.557C210.053 123.186 206.642 126.597 201.525 126.597ZM218.708 101.502V100.04C218.708 95.4109 222.119 92 227.235 92H240.635V94.1927L239.661 95.1673H227.235C224.555 95.1673 222.363 97.36 222.363 100.04V101.502C222.363 104.182 223.824 105.595 226.261 106.131L235.275 108.08C238.686 108.811 241.366 111.491 241.366 115.877V118.069C241.366 122.698 237.955 126.109 232.839 126.109H218.221V122.942H232.839C235.519 122.942 237.712 120.749 237.712 118.069V115.877C237.712 113.197 236.25 111.783 233.814 111.247L224.799 109.298C221.388 108.567 218.708 105.887 218.708 101.502V101.502ZM259.28 95.1673V126.109H255.625V95.1673H244.905V92H270V94.1927L269.025 95.1673H259.28V95.1673Z" fill="white"/>
</g>
<defs>
<clipPath id="clip0_411_23">
<rect width="270" height="126.597" fill="white"/>
</clipPath>
</defs>
</svg>
