<svg width="270" height="127" viewBox="0 0 270 127" fill="none" xmlns="http://www.w3.org/2000/svg">
<g clip-path="url(#clip0_411_18)">
<path d="M151.523 4.75802C153.254 4.32902 154.353 5.32602 155.284 7.09402C156.857 10.102 158.644 13.006 160.395 15.93C161.047 17.01 161.121 17.94 160.451 19.076C157.107 24.7718 153.799 30.4886 150.527 36.226C149.791 37.52 149.428 37.436 148.507 36.253C146.495 33.674 146.588 31.459 148.469 28.759C150.676 25.593 152.361 22.074 154.344 18.751C154.902 17.811 154.846 17.093 154.306 16.191C152.493 13.1552 150.72 10.0949 148.99 7.01102C147.827 4.93502 147.938 4.78602 150.406 4.76702C150.656 4.75702 150.926 4.75702 151.523 4.75702V4.75802ZM170.664 33.917C171.902 35.192 171.595 36.654 170.534 38.339C168.728 41.216 167.117 44.223 165.478 47.202C164.873 48.301 164.101 48.84 162.788 48.84C156.188 48.813 149.577 48.84 142.976 48.896C141.486 48.906 141.375 48.561 141.933 47.156C143.153 44.12 145.117 43.086 148.385 43.348C152.23 43.664 156.122 43.338 159.985 43.385C161.075 43.395 161.671 42.994 162.183 42.063C163.891 38.9651 165.645 35.8924 167.443 32.846C168.653 30.788 168.839 30.816 170.096 32.939C170.236 33.172 170.366 33.395 170.664 33.917V33.917ZM155.107 65.124C154.632 66.837 153.207 67.312 151.225 67.237C147.827 67.125 144.419 67.247 141.021 67.33C139.764 67.358 138.917 66.967 138.256 65.831C134.946 60.1144 131.604 54.4167 128.229 48.738C127.466 47.453 127.717 47.183 129.207 46.969C132.447 46.494 134.327 47.667 135.742 50.628C137.409 54.11 139.643 57.313 141.552 60.674C142.092 61.624 142.743 61.93 143.805 61.902C147.343 61.819 150.88 61.791 154.409 61.809C156.792 61.819 156.857 61.996 155.666 64.146C155.536 64.379 155.405 64.612 155.107 65.124ZM120.316 67.404C118.593 67.852 117.476 66.864 116.536 65.114C114.926 62.126 113.1 59.24 111.322 56.344C110.662 55.274 110.577 54.343 111.229 53.198C114.502 47.4598 117.742 41.7031 120.949 35.928C121.675 34.624 122.029 34.698 122.969 35.881C125.008 38.441 124.943 40.657 123.099 43.376C120.93 46.569 119.292 50.106 117.346 53.449C116.796 54.399 116.862 55.115 117.411 56.009C119.26 59.0235 121.069 62.0621 122.839 65.124C124.03 67.19 123.919 67.339 121.451 67.386C121.172 67.396 120.902 67.396 120.316 67.405V67.404ZM100.83 38.479C99.573 37.213 99.862 35.752 100.904 34.057C102.683 31.162 104.256 28.137 105.857 25.129C106.453 24.021 107.207 23.472 108.529 23.462C115.13 23.416 121.74 23.304 128.341 23.174C129.831 23.146 129.942 23.49 129.402 24.896C128.22 27.95 126.274 29.002 122.997 28.778C119.152 28.508 115.26 28.872 111.397 28.881C110.307 28.881 109.712 29.3 109.218 30.231C107.55 33.3482 105.833 36.4395 104.07 39.504C102.887 41.57 102.701 41.542 101.416 39.448C101.211 39.1311 101.015 38.808 100.83 38.479V38.479ZM116.005 7.08602C116.461 5.36402 117.876 4.88002 119.859 4.92602C123.258 5.00102 126.665 4.83302 130.063 4.71202C131.32 4.66602 132.177 5.04702 132.847 6.18302C136.217 11.863 139.634 17.513 143.079 23.155C143.851 24.431 143.609 24.701 142.119 24.943C138.889 25.455 136.989 24.3 135.537 21.358C133.834 17.904 131.562 14.73 129.607 11.388C129.057 10.448 128.406 10.14 127.345 10.178C123.807 10.308 120.278 10.373 116.741 10.401C114.357 10.419 114.283 10.242 115.456 8.08202C115.586 7.84002 115.716 7.60802 116.006 7.08602H116.005Z" fill="#111111"/>
<path d="M127.019 14.868C123.183 14.887 119.347 15.036 115.512 15.045C115.074 14.3001 114.45 13.6824 113.7 13.253C112.951 12.8236 112.102 12.5975 111.238 12.597C108.501 12.597 106.276 14.822 106.276 17.559C106.276 20.296 108.501 22.521 111.238 22.521C112.051 22.5217 112.851 22.3226 113.569 21.941C114.286 21.5594 114.899 21.0072 115.353 20.333C117.96 20.231 120.576 20.101 123.165 20.296C125.892 20.501 127.149 19.132 128.257 17.112C129.235 15.297 129.048 14.859 127.019 14.868ZM111.239 20.156C110.996 20.156 110.754 20.119 110.531 20.063C109.986 19.9079 109.507 19.5796 109.166 19.1277C108.825 18.6759 108.641 18.1251 108.641 17.559C108.641 16.8702 108.915 16.2097 109.402 15.7226C109.889 15.2354 110.549 14.9615 111.238 14.961C111.667 14.961 112.076 15.064 112.439 15.25C112.86 15.4709 113.213 15.8028 113.459 16.2098C113.706 16.6167 113.836 17.0833 113.836 17.559C113.835 18.2478 113.561 18.9082 113.074 19.3951C112.587 19.8821 111.927 20.1557 111.238 20.156H111.239ZM115.651 32.948C114.59 31.188 114.106 31.124 113.101 32.883C111.034 36.467 109.106 40.126 107.011 43.693C106.974 43.757 106.937 43.823 106.9 43.878C105.612 43.9177 104.39 44.4566 103.491 45.3808C102.593 46.3051 102.09 47.5423 102.087 48.831C102.087 51.568 104.312 53.793 107.049 53.793C107.896 53.7917 108.728 53.5739 109.467 53.1604C110.206 52.7469 110.827 52.1513 111.271 51.4303C111.715 50.7093 111.967 49.8868 112.004 49.0409C112.04 48.1949 111.86 47.3537 111.48 46.597C112.877 44.009 114.19 41.365 115.856 38.953C117.392 36.7 116.834 34.922 115.651 32.948V32.948ZM109.507 49.65C109.334 50.1686 109.004 50.62 108.561 50.9408C108.118 51.2615 107.586 51.4354 107.04 51.438C106.366 51.4151 105.728 51.1314 105.259 50.6468C104.791 50.1622 104.529 49.5145 104.529 48.8405C104.529 48.1665 104.791 47.5188 105.259 47.0342C105.728 46.5496 106.366 46.2659 107.04 46.243C107.45 46.2435 107.855 46.3412 108.22 46.5279C108.585 46.7147 108.901 46.9854 109.142 47.3177C109.382 47.65 109.541 48.0346 109.604 48.44C109.668 48.8454 109.634 49.26 109.507 49.65ZM150.024 18.164C148.097 14.701 146.039 11.312 144.131 7.839C144.717 7.029 145.052 6.033 145.052 4.962C145.052 2.225 142.827 0 140.09 0C137.353 0 135.128 2.225 135.128 4.962C135.129 6.11437 135.531 7.23048 136.265 8.119C136.998 9.00753 138.019 9.61313 139.15 9.832C140.64 12.327 142.203 14.775 143.395 17.401C144.531 19.896 146.337 20.333 148.646 20.324C150.713 20.314 151.011 19.933 150.024 18.164ZM142.622 5.558C142.486 6.12766 142.163 6.635 141.703 6.99821C141.244 7.36141 140.676 7.55932 140.09 7.56C139.402 7.55815 138.742 7.28381 138.255 6.79696C137.769 6.31011 137.494 5.65037 137.493 4.962C137.516 4.28838 137.8 3.65 138.284 3.18156C138.769 2.71313 139.416 2.45129 140.09 2.45129C140.764 2.45129 141.412 2.71313 141.897 3.18156C142.381 3.65 142.665 4.28838 142.688 4.962C142.697 5.167 142.669 5.362 142.622 5.558V5.558ZM164.864 19.002C163.548 19.0033 162.287 19.5265 161.357 20.4568C160.426 21.3871 159.903 22.6484 159.902 23.964C159.902 24.532 159.995 25.072 160.172 25.574C158.719 28.182 157.36 30.844 155.656 33.264C154.074 35.499 154.604 37.287 155.768 39.27C156.811 41.048 157.295 41.113 158.319 39.372C160.377 35.9 162.304 32.352 164.379 28.898C164.539 28.918 164.696 28.918 164.855 28.918C167.592 28.918 169.817 26.692 169.817 23.955C169.817 21.218 167.6 19.002 164.864 19.002ZM165.525 26.469C165.14 26.5698 164.738 26.581 164.348 26.5019C163.959 26.4228 163.593 26.2554 163.278 26.0126C162.963 25.7698 162.709 25.458 162.533 25.1013C162.358 24.7446 162.267 24.3525 162.267 23.955C162.267 23.415 162.434 22.912 162.723 22.493C162.96 22.143 163.279 21.8564 163.652 21.6583C164.025 21.4602 164.441 21.3568 164.864 21.357C165.495 21.3575 166.105 21.5877 166.579 22.0046C167.052 22.4216 167.358 22.9967 167.439 23.6227C167.52 24.2487 167.371 24.8828 167.018 25.4066C166.666 25.9303 166.135 26.308 165.525 26.469V26.469ZM160.815 49.939C160.056 49.9409 159.307 50.1164 158.625 50.4521C157.944 50.7878 157.349 51.2749 156.885 51.876C153.953 51.941 151.02 52.099 148.115 51.838C145.387 51.596 144.112 52.956 142.985 54.958C141.98 56.754 142.157 57.201 144.186 57.21C148.264 57.238 152.342 57.117 156.42 57.173C156.839 57.977 157.47 58.6511 158.244 59.1221C159.019 59.5931 159.907 59.8431 160.814 59.845C162.13 59.8437 163.391 59.3205 164.321 58.3902C165.251 57.4599 165.775 56.1986 165.776 54.883C165.776 52.164 163.551 49.939 160.814 49.939H160.815ZM160.815 57.489C160.196 57.4906 159.598 57.2694 159.129 56.866C158.842 56.6231 158.612 56.3206 158.455 55.9797C158.297 55.6388 158.216 55.2676 158.217 54.892C158.217 54.2034 158.491 53.5431 158.978 53.0562C159.465 52.5693 160.125 52.2955 160.814 52.295H160.824C161.513 52.2955 162.173 52.5693 162.66 53.0562C163.147 53.5431 163.42 54.2034 163.421 54.892C163.417 55.5812 163.14 56.2408 162.652 56.7272C162.164 57.2136 161.503 57.4874 160.814 57.489H160.815ZM132.595 62.154C131.087 59.696 129.495 57.266 128.275 54.669C127.112 52.192 125.296 51.773 122.997 51.81C120.939 51.838 120.641 52.23 121.647 53.98C123.611 57.415 125.707 60.776 127.652 64.211C127.075 65.0385 126.766 66.0232 126.767 67.032C126.767 69.769 128.993 71.994 131.73 71.994C134.467 71.994 136.692 69.769 136.692 67.032C136.692 64.602 134.914 62.572 132.596 62.154H132.595ZM131.73 69.639C131.041 69.6387 130.381 69.3651 129.894 68.8781C129.406 68.3912 129.132 67.7308 129.132 67.042C129.131 66.3521 129.405 65.6903 129.891 65.2015C130.378 64.7128 131.039 64.4371 131.729 64.435C132.838 64.435 133.787 65.133 134.159 66.111C134.262 66.399 134.327 66.706 134.327 67.032C134.328 67.3738 134.261 67.7124 134.131 68.0284C134.001 68.3445 133.81 68.6318 133.569 68.8739C133.328 69.1161 133.041 69.3083 132.726 69.4396C132.41 69.5708 132.072 69.6386 131.73 69.639V69.639Z" fill="#111111"/>
<path d="M15.836 110.032H3.654V122.944H15.836C17.1271 122.94 18.3643 122.426 19.2773 121.513C20.1903 120.6 20.705 119.363 20.709 118.072V114.904C20.7053 113.613 20.1907 112.375 19.2777 111.462C18.3646 110.549 17.1273 110.035 15.836 110.031V110.032ZM18.516 107.839V108.082C18.516 108.082 24.364 109.057 24.364 114.904V118.072C24.364 122.701 20.953 126.112 15.836 126.112H0V92.002H14.13C19.247 92.002 22.658 95.413 22.658 100.042V101.992C22.658 106.864 18.516 107.839 18.516 107.839V107.839ZM14.131 95.169H3.654V106.864H14.131C15.4223 106.86 16.6596 106.346 17.5727 105.433C18.4857 104.52 19.0003 103.282 19.004 101.991V100.042C19 98.7509 18.4853 97.5138 17.5723 96.6009C16.6593 95.6881 15.4221 95.1736 14.131 95.17V95.169ZM32.775 92.002H36.43V122.944H54.703V126.112H32.775V92.002ZM63.601 117.341L60.678 126.111H57.023V124.65L68.961 92.002H73.103L85.042 124.65V126.112H81.387L78.463 117.341H63.601ZM77.245 114.173L71.155 96.388H70.911L64.82 114.172H77.245V114.173ZM113.432 122.944V126.112H99.3C94.183 126.112 90.772 122.701 90.772 118.072V100.042C90.772 95.413 94.183 92.002 99.3 92.002H113.43V94.195L112.456 95.17H99.301C98.0099 95.1736 96.7727 95.6881 95.8597 96.6009C94.9467 97.5138 94.432 98.7509 94.428 100.042V118.072C94.432 119.363 94.9467 120.6 95.8597 121.513C96.7727 122.426 98.0099 122.94 99.301 122.944H113.431H113.432ZM124.767 92.002V107.108H132.807L141.09 92.002H144.744V93.464L135.729 108.57L145.231 124.65V126.112H141.577L132.806 110.275H124.766V126.112H121.111V92.002H124.766H124.767ZM156.324 126.112H152.669V92.002H167.775C172.891 92.002 176.302 95.413 176.302 100.042V104.672C176.302 111.493 169.724 112.468 169.724 112.468L177.277 124.65V126.112H173.622L166.07 112.712H156.324V126.112V126.112ZM167.775 95.17H156.324V109.544H167.775C169.066 109.54 170.304 109.026 171.217 108.113C172.13 107.2 172.644 105.962 172.648 104.671V100.042C172.644 98.7509 172.129 97.5138 171.216 96.6009C170.303 95.6881 169.066 95.1736 167.775 95.17ZM201.525 126.599H194.215C189.099 126.599 185.688 123.188 185.688 118.559V92.002H189.343V118.559C189.347 119.85 189.861 121.088 190.774 122.001C191.687 122.914 192.925 123.428 194.216 123.432H201.525C202.816 123.428 204.054 122.914 204.967 122.001C205.88 121.088 206.394 119.85 206.398 118.559V92.002H210.052V118.559C210.052 123.188 206.642 126.599 201.525 126.599ZM218.708 101.504V100.042C218.708 95.413 222.118 92.002 227.235 92.002H240.635V94.195L239.66 95.17H227.235C225.944 95.1736 224.707 95.6881 223.794 96.6009C222.881 97.5138 222.366 98.7509 222.362 100.042V101.504C222.362 104.184 223.824 105.597 226.26 106.134L235.275 108.082C238.685 108.813 241.365 111.493 241.365 115.879V118.072C241.365 122.701 237.955 126.112 232.839 126.112H218.22V122.944H232.839C234.13 122.94 235.367 122.425 236.28 121.513C237.192 120.6 237.707 119.363 237.711 118.072V115.879C237.711 113.199 236.249 111.786 233.813 111.249L224.798 109.301C221.388 108.57 218.708 105.89 218.708 101.504V101.504ZM259.279 95.17V126.112H255.625V95.17H244.905V92.002H269.999V94.195L269.025 95.17H259.279V95.17Z" fill="#111111"/>
</g>
<defs>
<clipPath id="clip0_411_18">
<rect width="269.999" height="126.599" fill="white"/>
</clipPath>
</defs>
</svg>
