<svg width="72" height="72" viewBox="0 0 72 72" fill="none" xmlns="http://www.w3.org/2000/svg">
<path d="M51.523 4.75784C53.254 4.32884 54.353 5.32584 55.284 7.09384C56.857 10.1018 58.644 13.0058 60.395 15.9298C61.047 17.0098 61.121 17.9398 60.451 19.0758C57.1071 24.7716 53.799 30.4884 50.527 36.2258C49.791 37.5198 49.428 37.4358 48.507 36.2528C46.495 33.6738 46.588 31.4588 48.469 28.7588C50.676 25.5928 52.361 22.0738 54.344 18.7508C54.902 17.8108 54.846 17.0928 54.306 16.1908C52.4926 13.155 50.7204 10.0947 48.99 7.01084C47.827 4.93484 47.938 4.78584 50.406 4.76684C50.656 4.75684 50.926 4.75684 51.523 4.75684V4.75784ZM70.664 33.9168C71.902 35.1918 71.595 36.6538 70.534 38.3388C68.728 41.2158 67.117 44.2228 65.478 47.2018C64.873 48.3008 64.101 48.8398 62.788 48.8398C56.188 48.8128 49.577 48.8398 42.976 48.8958C41.486 48.9058 41.375 48.5608 41.933 47.1558C43.153 44.1198 45.117 43.0858 48.385 43.3478C52.23 43.6638 56.122 43.3378 59.985 43.3848C61.075 43.3948 61.671 42.9938 62.183 42.0628C63.8911 38.9649 65.6446 35.8923 67.443 32.8458C68.653 30.7878 68.839 30.8158 70.096 32.9388C70.236 33.1718 70.366 33.3948 70.664 33.9168V33.9168ZM55.107 65.1238C54.632 66.8368 53.207 67.3118 51.225 67.2368C47.827 67.1248 44.419 67.2468 41.021 67.3298C39.764 67.3578 38.917 66.9668 38.256 65.8308C34.9461 60.1142 31.6037 54.4165 28.229 48.7378C27.466 47.4528 27.717 47.1828 29.207 46.9688C32.447 46.4938 34.327 47.6668 35.742 50.6278C37.409 54.1098 39.643 57.3128 41.552 60.6738C42.092 61.6238 42.743 61.9298 43.805 61.9018C47.343 61.8188 50.88 61.7908 54.409 61.8088C56.792 61.8188 56.857 61.9958 55.666 64.1458C55.536 64.3788 55.405 64.6118 55.107 65.1238ZM20.316 67.4038C18.593 67.8518 17.476 66.8638 16.536 65.1138C14.926 62.1258 13.1 59.2398 11.322 56.3438C10.662 55.2738 10.577 54.3428 11.229 53.1978C14.5017 47.4596 17.7417 41.7029 20.949 35.9278C21.675 34.6238 22.029 34.6978 22.969 35.8808C25.008 38.4408 24.943 40.6568 23.099 43.3758C20.93 46.5688 19.292 50.1058 17.346 53.4488C16.796 54.3988 16.862 55.1148 17.411 56.0088C19.26 59.0234 21.0695 62.062 22.839 65.1238C24.03 67.1898 23.919 67.3388 21.451 67.3858C21.172 67.3958 20.902 67.3958 20.316 67.4048V67.4038ZM0.829994 38.4788C-0.427006 37.2128 -0.138009 35.7518 0.903991 34.0568C2.68299 31.1618 4.25599 28.1368 5.85699 25.1288C6.45299 24.0208 7.20699 23.4718 8.52899 23.4618C15.13 23.4158 21.74 23.3038 28.341 23.1738C29.831 23.1458 29.942 23.4898 29.402 24.8958C28.22 27.9498 26.274 29.0018 22.997 28.7778C19.152 28.5078 15.26 28.8718 11.397 28.8808C10.307 28.8808 9.71199 29.2998 9.21799 30.2308C7.54953 33.348 5.83333 36.4394 4.06999 39.5038C2.88699 41.5698 2.70099 41.5418 1.41599 39.4478C1.21077 39.1309 1.01535 38.8078 0.829994 38.4788V38.4788ZM16.005 7.08584C16.461 5.36384 17.876 4.87984 19.859 4.92584C23.258 5.00084 26.665 4.83284 30.063 4.71184C31.32 4.66584 32.177 5.04684 32.847 6.18284C36.217 11.8628 39.634 17.5128 43.079 23.1548C43.851 24.4308 43.609 24.7008 42.119 24.9428C38.889 25.4548 36.989 24.2998 35.537 21.3578C33.834 17.9038 31.562 14.7298 29.607 11.3878C29.057 10.4478 28.406 10.1398 27.345 10.1778C23.807 10.3078 20.278 10.3728 16.741 10.4008C14.357 10.4188 14.283 10.2418 15.456 8.08184C15.586 7.83984 15.716 7.60784 16.006 7.08584H16.005Z" fill="white"/>
<path d="M27.019 14.868C23.183 14.887 19.347 15.036 15.512 15.045C15.0745 14.3001 14.45 13.6824 13.7003 13.253C12.9507 12.8236 12.1019 12.5975 11.238 12.597C8.50098 12.597 6.27598 14.822 6.27598 17.559C6.27598 20.296 8.50098 22.521 11.238 22.521C12.0507 22.5217 12.8512 22.3226 13.5688 21.941C14.2864 21.5594 14.8991 21.0072 15.353 20.333C17.96 20.231 20.576 20.101 23.165 20.296C25.892 20.501 27.149 19.132 28.257 17.112C29.235 15.297 29.048 14.859 27.019 14.868ZM11.239 20.156C10.996 20.156 10.754 20.119 10.531 20.063C9.9865 19.9079 9.50743 19.5796 9.16637 19.1277C8.82531 18.6759 8.64086 18.1251 8.64098 17.559C8.64124 16.8702 8.91491 16.2097 9.40186 15.7226C9.8888 15.2354 10.5492 14.9615 11.238 14.961C11.667 14.961 12.076 15.064 12.439 15.25C12.8603 15.4709 13.2131 15.8028 13.4594 16.2098C13.7056 16.6167 13.8358 17.0833 13.836 17.559C13.8354 18.2478 13.5615 18.9082 13.0744 19.3951C12.5873 19.8821 11.9268 20.1557 11.238 20.156H11.239ZM15.651 32.948C14.59 31.188 14.106 31.124 13.101 32.883C11.034 36.467 9.10598 40.126 7.01098 43.693C6.97398 43.757 6.93698 43.823 6.89998 43.878C5.61186 43.9177 4.38962 44.4566 3.4915 45.3808C2.59338 46.3051 2.08974 47.5423 2.08698 48.831C2.08698 51.568 4.31198 53.793 7.04898 53.793C7.89571 53.7917 8.72804 53.5739 9.46693 53.1604C10.2058 52.7469 10.8267 52.1513 11.2707 51.4303C11.7147 50.7093 11.9669 49.8868 12.0036 49.0409C12.0402 48.1949 11.86 47.3537 11.48 46.597C12.877 44.009 14.19 41.365 15.856 38.953C17.392 36.7 16.834 34.922 15.651 32.948V32.948ZM9.50698 49.65C9.33442 50.1686 9.00359 50.62 8.56105 50.9408C8.11851 51.2615 7.58653 51.4354 7.03998 51.438C6.36636 51.4151 5.72798 51.1314 5.25954 50.6468C4.79111 50.1622 4.52927 49.5145 4.52927 48.8405C4.52927 48.1665 4.79111 47.5188 5.25954 47.0342C5.72798 46.5496 6.36636 46.2659 7.03998 46.243C7.45029 46.2435 7.85465 46.3412 8.21997 46.5279C8.5853 46.7147 8.9012 46.9854 9.14185 47.3177C9.38249 47.65 9.54103 48.0346 9.60449 48.44C9.66796 48.8454 9.63454 49.26 9.50698 49.65ZM50.024 18.164C48.097 14.701 46.039 11.312 44.131 7.839C44.717 7.029 45.052 6.033 45.052 4.962C45.052 2.225 42.827 0 40.09 0C37.353 0 35.128 2.225 35.128 4.962C35.1291 6.11437 35.5309 7.23048 36.2647 8.119C36.9986 9.00753 38.0186 9.61313 39.15 9.832C40.64 12.327 42.203 14.775 43.395 17.401C44.531 19.896 46.337 20.333 48.646 20.324C50.713 20.314 51.011 19.933 50.024 18.164ZM42.622 5.558C42.4862 6.12766 42.1626 6.635 41.7033 6.99821C41.2439 7.36141 40.6756 7.55932 40.09 7.56C39.4016 7.55815 38.742 7.28381 38.2553 6.79696C37.7686 6.31011 37.4946 5.65037 37.493 4.962C37.5159 4.28838 37.7996 3.65 38.2842 3.18156C38.7688 2.71313 39.4165 2.45129 40.0905 2.45129C40.7645 2.45129 41.4121 2.71313 41.8968 3.18156C42.3814 3.65 42.6651 4.28838 42.688 4.962C42.697 5.167 42.669 5.362 42.622 5.558V5.558ZM64.864 19.002C63.5484 19.0033 62.287 19.5265 61.3568 20.4568C60.4265 21.3871 59.9033 22.6484 59.902 23.964C59.902 24.532 59.995 25.072 60.172 25.574C58.719 28.182 57.36 30.844 55.656 33.264C54.074 35.499 54.604 37.287 55.768 39.27C56.811 41.048 57.295 41.113 58.319 39.372C60.377 35.9 62.304 32.352 64.379 28.898C64.539 28.918 64.696 28.918 64.855 28.918C67.592 28.918 69.817 26.692 69.817 23.955C69.817 21.218 67.6 19.002 64.864 19.002ZM65.525 26.469C65.1405 26.5698 64.738 26.581 64.3485 26.5019C63.9591 26.4228 63.5929 26.2554 63.2782 26.0126C62.9636 25.7698 62.7088 25.458 62.5335 25.1013C62.3582 24.7446 62.267 24.3525 62.267 23.955C62.267 23.415 62.434 22.912 62.723 22.493C62.9597 22.143 63.2787 21.8564 63.652 21.6583C64.0252 21.4602 64.4414 21.3568 64.864 21.357C65.4952 21.3575 66.1047 21.5877 66.5786 22.0046C67.0525 22.4216 67.3585 22.9967 67.4395 23.6227C67.5204 24.2487 67.3708 24.8828 67.0185 25.4066C66.6662 25.9303 66.1353 26.308 65.525 26.469V26.469ZM60.815 49.939C60.0556 49.9409 59.3067 50.1164 58.6255 50.4521C57.9444 50.7878 57.349 51.2749 56.885 51.876C53.953 51.941 51.02 52.099 48.115 51.838C45.387 51.596 44.112 52.956 42.985 54.958C41.98 56.754 42.157 57.201 44.186 57.21C48.264 57.238 52.342 57.117 56.42 57.173C56.8387 57.977 57.4696 58.6511 58.2442 59.1221C59.0187 59.5931 59.9074 59.8431 60.814 59.845C62.1296 59.8437 63.3909 59.3205 64.3212 58.3902C65.2514 57.4599 65.7747 56.1986 65.776 54.883C65.776 52.164 63.551 49.939 60.814 49.939H60.815ZM60.815 57.489C60.1964 57.4906 59.5979 57.2694 59.129 56.866C58.8425 56.6231 58.6126 56.3206 58.455 55.9797C58.2975 55.6388 58.2163 55.2676 58.217 54.892C58.2175 54.2034 58.4913 53.5431 58.9782 53.0562C59.4651 52.5693 60.1254 52.2955 60.814 52.295H60.824C61.5126 52.2955 62.1728 52.5693 62.6598 53.0562C63.1467 53.5431 63.4205 54.2034 63.421 54.892C63.4168 55.5812 63.1404 56.2408 62.6521 56.7272C62.1639 57.2136 61.5032 57.4874 60.814 57.489H60.815ZM32.595 62.154C31.087 59.696 29.495 57.266 28.275 54.669C27.112 52.192 25.296 51.773 22.997 51.81C20.939 51.838 20.641 52.23 21.647 53.98C23.611 57.415 25.707 60.776 27.652 64.211C27.075 65.0385 26.766 66.0232 26.767 67.032C26.767 69.769 28.993 71.994 31.73 71.994C34.467 71.994 36.692 69.769 36.692 67.032C36.692 64.602 34.914 62.572 32.596 62.154H32.595ZM31.73 69.639C31.0412 69.6387 30.3807 69.3651 29.8936 68.8781C29.4064 68.3912 29.1325 67.7308 29.132 67.042C29.1314 66.3521 29.4046 65.6903 29.8914 65.2015C30.3783 64.7128 31.0391 64.4371 31.729 64.435C32.838 64.435 33.787 65.133 34.159 66.111C34.262 66.399 34.327 66.706 34.327 67.032C34.3279 67.3738 34.2614 67.7124 34.1314 68.0284C34.0013 68.3445 33.8102 68.6318 33.569 68.8739C33.3278 69.1161 33.0412 69.3083 32.7257 69.4396C32.4101 69.5708 32.0717 69.6386 31.73 69.639V69.639Z" fill="white"/>
</svg>
