<svg width="1920" height="1080" viewBox="0 0 1920 1080" fill="none" xmlns="http://www.w3.org/2000/svg">
<rect width="1920" height="1080" fill="#BABABA"/>
<rect x="320.5" y="179.5" width="1279" height="719" rx="24.5" fill="white"/>
<rect x="320.5" y="179.5" width="1279" height="719" rx="24.5" stroke="black"/>
<rect x="320.5" y="179.5" width="1279" height="719" rx="24.5" stroke="black" stroke-opacity="0.2"/>
<g filter="url(#filter0_d_103_17)">
<circle cx="342" cy="503" r="25" fill="#D9D9D9"/>
<circle cx="342" cy="503" r="24.5" stroke="black"/>
</g>
<path d="M344.365 494.545V512H342.251V496.761H342.149L337.888 499.591V497.443L342.251 494.545H344.365Z" fill="black"/>
<g filter="url(#filter1_d_103_17)">
<circle cx="1528" cy="630" r="25" fill="#D9D9D9"/>
<circle cx="1528" cy="630" r="24.5" stroke="black"/>
</g>
<path d="M1523.19 621.545V639H1521.08V623.761H1520.98L1516.72 626.591V624.443L1521.08 621.545H1523.19ZM1528.52 639V621.545H1539.05V623.42H1530.63V629.318H1538.51V631.193H1530.63V637.125H1539.19V639H1528.52Z" fill="black"/>
<g filter="url(#filter2_d_103_17)">
<circle cx="1528" cy="630" r="25" fill="#D9D9D9"/>
<circle cx="1528" cy="630" r="24.5" stroke="black"/>
</g>
<path d="M1523.32 621.545V639H1521.21V623.761H1521.11L1516.84 626.591V624.443L1521.21 621.545H1523.32ZM1528.65 639V621.545H1539.11V623.42H1530.76V629.318H1538.33V631.193H1530.76V639H1528.65Z" fill="black"/>
<g filter="url(#filter3_d_103_17)">
<circle cx="342" cy="614" r="25" fill="#D9D9D9"/>
<circle cx="342" cy="614" r="24.5" stroke="black"/>
</g>
<path d="M336.56 605.545V623H334.447V607.761H334.344L330.083 610.591V608.443L334.447 605.545H336.56ZM341.887 623V605.545H347.989C349.205 605.545 350.208 605.756 350.998 606.176C351.788 606.591 352.376 607.151 352.762 607.855C353.148 608.554 353.342 609.33 353.342 610.182C353.342 610.932 353.208 611.551 352.941 612.04C352.68 612.528 352.333 612.915 351.901 613.199C351.475 613.483 351.012 613.693 350.512 613.83V614C351.046 614.034 351.583 614.222 352.123 614.562C352.663 614.903 353.114 615.392 353.478 616.028C353.842 616.665 354.023 617.443 354.023 618.364C354.023 619.239 353.825 620.026 353.427 620.724C353.029 621.423 352.401 621.977 351.543 622.386C350.685 622.795 349.569 623 348.194 623H341.887ZM344.001 621.125H348.194C349.575 621.125 350.555 620.858 351.134 620.324C351.719 619.784 352.012 619.131 352.012 618.364C352.012 617.773 351.862 617.227 351.56 616.727C351.259 616.222 350.83 615.818 350.273 615.517C349.717 615.21 349.058 615.057 348.296 615.057H344.001V621.125ZM344.001 613.216H347.921C348.558 613.216 349.131 613.091 349.643 612.841C350.16 612.591 350.569 612.239 350.87 611.784C351.177 611.33 351.33 610.795 351.33 610.182C351.33 609.415 351.063 608.764 350.529 608.23C349.995 607.69 349.148 607.42 347.989 607.42H344.001V613.216Z" fill="black"/>
<rect x="371" y="589.5" width="173" height="50" rx="14.5" stroke="black"/>
<path d="M399.878 600.672V622H397.095V600.672H399.878ZM406.733 600.672V602.986H390.254V600.672H406.733ZM422.363 615.218H425.176C425.029 616.565 424.644 617.771 424.019 618.836C423.394 619.9 422.51 620.745 421.367 621.37C420.225 621.985 418.799 622.293 417.09 622.293C415.84 622.293 414.702 622.059 413.677 621.59C412.661 621.121 411.787 620.457 411.055 619.598C410.322 618.729 409.756 617.688 409.355 616.478C408.965 615.257 408.77 613.899 408.77 612.405V610.281C408.77 608.787 408.965 607.435 409.355 606.224C409.756 605.003 410.327 603.958 411.069 603.089C411.821 602.22 412.725 601.551 413.779 601.082C414.834 600.613 416.021 600.379 417.339 600.379C418.95 600.379 420.312 600.682 421.426 601.287C422.539 601.893 423.403 602.732 424.019 603.807C424.644 604.871 425.029 606.106 425.176 607.513H422.363C422.227 606.517 421.973 605.662 421.602 604.949C421.23 604.227 420.703 603.67 420.02 603.279C419.336 602.889 418.442 602.693 417.339 602.693C416.392 602.693 415.557 602.874 414.834 603.235C414.121 603.597 413.521 604.109 413.032 604.773C412.554 605.438 412.192 606.233 411.948 607.161C411.704 608.089 411.582 609.119 411.582 610.252V612.405C411.582 613.45 411.689 614.432 411.904 615.35C412.129 616.268 412.466 617.073 412.915 617.767C413.364 618.46 413.936 619.007 414.629 619.407C415.322 619.798 416.143 619.993 417.09 619.993C418.291 619.993 419.248 619.803 419.961 619.422C420.674 619.041 421.211 618.494 421.572 617.781C421.943 617.068 422.207 616.214 422.363 615.218ZM436.895 613.636H431.196V611.336H436.895C437.998 611.336 438.892 611.16 439.575 610.809C440.259 610.457 440.757 609.969 441.069 609.344C441.392 608.719 441.553 608.006 441.553 607.205C441.553 606.473 441.392 605.784 441.069 605.14C440.757 604.495 440.259 603.978 439.575 603.587C438.892 603.187 437.998 602.986 436.895 602.986H431.855V622H429.028V600.672H436.895C438.506 600.672 439.868 600.95 440.981 601.507C442.095 602.063 442.939 602.835 443.516 603.821C444.092 604.798 444.38 605.916 444.38 607.176C444.38 608.543 444.092 609.71 443.516 610.677C442.939 611.644 442.095 612.381 440.981 612.889C439.868 613.387 438.506 613.636 436.895 613.636Z" fill="black"/>
<path d="M495.5 589.5H530C538.008 589.5 544.5 595.992 544.5 604V625C544.5 633.008 538.008 639.5 530 639.5H495.5V589.5Z" stroke="black"/>
<path d="M510.82 608L520 617.16L529.18 608L532 610.82L520 622.82L508 610.82L510.82 608Z" fill="black"/>
<path d="M320.5 204C320.5 190.469 331.469 179.5 345 179.5H1575C1588.53 179.5 1599.5 190.469 1599.5 204V278.5H320.5V204Z" fill="white" stroke="black"/>
<g filter="url(#filter4_d_103_17)">
<circle cx="346" cy="235" r="25" fill="#D9D9D9"/>
<circle cx="346" cy="235" r="24.5" stroke="black"/>
</g>
<path d="M340.541 244V242.466L346.303 236.159C346.979 235.42 347.536 234.778 347.973 234.233C348.411 233.682 348.734 233.165 348.945 232.682C349.161 232.193 349.268 231.682 349.268 231.148C349.268 230.534 349.121 230.003 348.825 229.554C348.536 229.105 348.138 228.759 347.632 228.514C347.126 228.27 346.558 228.148 345.928 228.148C345.257 228.148 344.672 228.287 344.172 228.565C343.678 228.838 343.294 229.222 343.021 229.716C342.754 230.21 342.621 230.79 342.621 231.455H340.609C340.609 230.432 340.845 229.534 341.317 228.761C341.788 227.989 342.43 227.386 343.243 226.955C344.061 226.523 344.979 226.307 345.996 226.307C347.018 226.307 347.925 226.523 348.714 226.955C349.504 227.386 350.124 227.969 350.572 228.702C351.021 229.435 351.246 230.25 351.246 231.148C351.246 231.79 351.129 232.418 350.896 233.031C350.669 233.639 350.271 234.318 349.703 235.068C349.141 235.812 348.359 236.722 347.359 237.795L343.439 241.989V242.125H351.553V244H340.541Z" fill="black"/>
<g filter="url(#filter5_d_103_17)">
<circle cx="864" cy="235" r="25" fill="#D9D9D9"/>
<circle cx="864" cy="235" r="24.5" stroke="black"/>
</g>
<path d="M864.064 244.239C862.939 244.239 861.936 244.045 861.055 243.659C860.18 243.273 859.484 242.736 858.967 242.048C858.456 241.355 858.178 240.551 858.132 239.636H860.28C860.325 240.199 860.518 240.685 860.859 241.094C861.2 241.497 861.646 241.81 862.197 242.031C862.749 242.253 863.359 242.364 864.03 242.364C864.78 242.364 865.445 242.233 866.024 241.972C866.604 241.71 867.058 241.347 867.388 240.881C867.717 240.415 867.882 239.875 867.882 239.261C867.882 238.619 867.723 238.054 867.405 237.565C867.087 237.071 866.621 236.685 866.007 236.406C865.393 236.128 864.643 235.989 863.757 235.989H862.359V234.114H863.757C864.45 234.114 865.058 233.989 865.581 233.739C866.109 233.489 866.521 233.136 866.817 232.682C867.118 232.227 867.268 231.693 867.268 231.08C867.268 230.489 867.138 229.974 866.876 229.537C866.615 229.099 866.246 228.759 865.768 228.514C865.297 228.27 864.74 228.148 864.098 228.148C863.496 228.148 862.928 228.259 862.393 228.48C861.865 228.696 861.433 229.011 861.098 229.426C860.763 229.835 860.581 230.33 860.553 230.909H858.507C858.541 229.994 858.817 229.193 859.334 228.506C859.851 227.812 860.527 227.273 861.362 226.886C862.203 226.5 863.126 226.307 864.132 226.307C865.212 226.307 866.138 226.526 866.911 226.963C867.683 227.395 868.277 227.966 868.692 228.676C869.107 229.386 869.314 230.153 869.314 230.977C869.314 231.96 869.055 232.798 868.538 233.491C868.027 234.185 867.331 234.665 866.45 234.932V235.068C867.553 235.25 868.413 235.719 869.033 236.474C869.652 237.224 869.962 238.153 869.962 239.261C869.962 240.21 869.703 241.062 869.186 241.818C868.675 242.568 867.976 243.159 867.089 243.591C866.203 244.023 865.195 244.239 864.064 244.239Z" fill="black"/>
<path d="M396.82 247H393.428V235.17H380.525V247H377.15V221.406H380.525V232.41H393.428V221.406H396.82V247ZM401.443 237.314C401.443 235.451 401.807 233.775 402.533 232.287C403.271 230.799 404.291 229.65 405.592 228.842C406.904 228.033 408.398 227.629 410.074 227.629C412.664 227.629 414.756 228.525 416.35 230.318C417.955 232.111 418.758 234.496 418.758 237.473V237.701C418.758 239.553 418.4 241.217 417.686 242.693C416.982 244.158 415.969 245.301 414.645 246.121C413.332 246.941 411.82 247.352 410.109 247.352C407.531 247.352 405.439 246.455 403.834 244.662C402.24 242.869 401.443 240.496 401.443 237.543V237.314ZM404.713 237.701C404.713 239.811 405.199 241.504 406.172 242.781C407.156 244.059 408.469 244.697 410.109 244.697C411.762 244.697 413.074 244.053 414.047 242.764C415.02 241.463 415.506 239.646 415.506 237.314C415.506 235.229 415.008 233.541 414.012 232.252C413.027 230.951 411.715 230.301 410.074 230.301C408.469 230.301 407.174 230.939 406.189 232.217C405.205 233.494 404.713 235.322 404.713 237.701ZM433.91 241.955C433.91 241.076 433.576 240.396 432.908 239.916C432.252 239.424 431.098 239.002 429.445 238.65C427.805 238.299 426.498 237.877 425.525 237.385C424.564 236.893 423.85 236.307 423.381 235.627C422.924 234.947 422.695 234.139 422.695 233.201C422.695 231.643 423.352 230.324 424.664 229.246C425.988 228.168 427.676 227.629 429.727 227.629C431.883 227.629 433.629 228.186 434.965 229.299C436.312 230.412 436.986 231.836 436.986 233.57H433.717C433.717 232.68 433.336 231.912 432.574 231.268C431.824 230.623 430.875 230.301 429.727 230.301C428.543 230.301 427.617 230.559 426.949 231.074C426.281 231.59 425.947 232.264 425.947 233.096C425.947 233.881 426.258 234.473 426.879 234.871C427.5 235.27 428.619 235.65 430.236 236.014C431.865 236.377 433.184 236.811 434.191 237.314C435.199 237.818 435.943 238.428 436.424 239.143C436.916 239.846 437.162 240.707 437.162 241.727C437.162 243.426 436.482 244.791 435.123 245.822C433.764 246.842 432 247.352 429.832 247.352C428.309 247.352 426.961 247.082 425.789 246.543C424.617 246.004 423.697 245.254 423.029 244.293C422.373 243.32 422.045 242.271 422.045 241.146H425.297C425.355 242.236 425.789 243.104 426.598 243.748C427.418 244.381 428.496 244.697 429.832 244.697C431.062 244.697 432.047 244.451 432.785 243.959C433.535 243.455 433.91 242.787 433.91 241.955ZM445.811 223.375V227.98H449.361V230.494H445.811V242.289C445.811 243.051 445.969 243.625 446.285 244.012C446.602 244.387 447.141 244.574 447.902 244.574C448.277 244.574 448.793 244.504 449.449 244.363V247C448.594 247.234 447.762 247.352 446.953 247.352C445.5 247.352 444.404 246.912 443.666 246.033C442.928 245.154 442.559 243.906 442.559 242.289V230.494H439.096V227.98H442.559V223.375H445.811ZM456.252 227.98L456.357 230.371C457.811 228.543 459.709 227.629 462.053 227.629C466.072 227.629 468.1 229.896 468.135 234.432V247H464.883V234.414C464.871 233.043 464.555 232.029 463.934 231.373C463.324 230.717 462.369 230.389 461.068 230.389C460.014 230.389 459.088 230.67 458.291 231.232C457.494 231.795 456.873 232.533 456.428 233.447V247H453.176V227.98H456.252ZM484.781 247C484.594 246.625 484.441 245.957 484.324 244.996C482.812 246.566 481.008 247.352 478.91 247.352C477.035 247.352 475.494 246.824 474.287 245.77C473.092 244.703 472.494 243.355 472.494 241.727C472.494 239.746 473.244 238.211 474.744 237.121C476.256 236.02 478.377 235.469 481.107 235.469H484.271V233.975C484.271 232.838 483.932 231.936 483.252 231.268C482.572 230.588 481.57 230.248 480.246 230.248C479.086 230.248 478.113 230.541 477.328 231.127C476.543 231.713 476.15 232.422 476.15 233.254H472.881C472.881 232.305 473.215 231.391 473.883 230.512C474.562 229.621 475.477 228.918 476.625 228.402C477.785 227.887 479.057 227.629 480.439 227.629C482.631 227.629 484.348 228.18 485.59 229.281C486.832 230.371 487.477 231.877 487.523 233.799V242.553C487.523 244.299 487.746 245.688 488.191 246.719V247H484.781ZM479.385 244.521C480.404 244.521 481.371 244.258 482.285 243.73C483.199 243.203 483.861 242.518 484.271 241.674V237.771H481.723C477.738 237.771 475.746 238.938 475.746 241.27C475.746 242.289 476.086 243.086 476.766 243.66C477.445 244.234 478.318 244.521 479.385 244.521ZM495.68 227.98L495.768 230.09C497.162 228.449 499.043 227.629 501.41 227.629C504.07 227.629 505.881 228.648 506.842 230.688C507.475 229.773 508.295 229.035 509.303 228.473C510.322 227.91 511.523 227.629 512.906 227.629C517.078 227.629 519.199 229.838 519.27 234.256V247H516.018V234.449C516.018 233.09 515.707 232.076 515.086 231.408C514.465 230.729 513.422 230.389 511.957 230.389C510.75 230.389 509.748 230.752 508.951 231.479C508.154 232.193 507.691 233.16 507.562 234.379V247H504.293V234.537C504.293 231.771 502.939 230.389 500.232 230.389C498.1 230.389 496.641 231.297 495.855 233.113V247H492.604V227.98H495.68ZM532.084 247.352C529.506 247.352 527.408 246.508 525.791 244.82C524.174 243.121 523.365 240.854 523.365 238.018V237.42C523.365 235.533 523.723 233.852 524.438 232.375C525.164 230.887 526.172 229.727 527.461 228.895C528.762 228.051 530.168 227.629 531.68 227.629C534.152 227.629 536.074 228.443 537.445 230.072C538.816 231.701 539.502 234.033 539.502 237.068V238.422H526.617C526.664 240.297 527.209 241.814 528.252 242.975C529.307 244.123 530.643 244.697 532.26 244.697C533.408 244.697 534.381 244.463 535.178 243.994C535.975 243.525 536.672 242.904 537.27 242.131L539.256 243.678C537.662 246.127 535.271 247.352 532.084 247.352ZM531.68 230.301C530.367 230.301 529.266 230.781 528.375 231.742C527.484 232.691 526.934 234.027 526.723 235.75H536.25V235.504C536.156 233.852 535.711 232.574 534.914 231.672C534.117 230.758 533.039 230.301 531.68 230.301Z" fill="black"/>
<path d="M902.951 246H899.682V224.326L893.125 226.734V223.781L902.441 220.283H902.951V246ZM929.248 246H912.479V243.662L921.338 233.818C922.65 232.33 923.553 231.123 924.045 230.197C924.549 229.26 924.801 228.293 924.801 227.297C924.801 225.961 924.396 224.865 923.588 224.01C922.779 223.154 921.701 222.727 920.354 222.727C918.736 222.727 917.477 223.189 916.574 224.115C915.684 225.029 915.238 226.307 915.238 227.947H911.986C911.986 225.592 912.742 223.688 914.254 222.234C915.777 220.781 917.811 220.055 920.354 220.055C922.732 220.055 924.613 220.682 925.996 221.936C927.379 223.178 928.07 224.836 928.07 226.91C928.07 229.43 926.465 232.43 923.254 235.91L916.398 243.346H929.248V246ZM932.922 244.295C932.922 243.732 933.086 243.264 933.414 242.889C933.754 242.514 934.258 242.326 934.926 242.326C935.594 242.326 936.098 242.514 936.438 242.889C936.789 243.264 936.965 243.732 936.965 244.295C936.965 244.834 936.789 245.285 936.438 245.648C936.098 246.012 935.594 246.193 934.926 246.193C934.258 246.193 933.754 246.012 933.414 245.648C933.086 245.285 932.922 244.834 932.922 244.295ZM932.939 228.773C932.939 228.211 933.104 227.742 933.432 227.367C933.771 226.992 934.275 226.805 934.943 226.805C935.611 226.805 936.115 226.992 936.455 227.367C936.807 227.742 936.982 228.211 936.982 228.773C936.982 229.312 936.807 229.764 936.455 230.127C936.115 230.49 935.611 230.672 934.943 230.672C934.275 230.672 933.771 230.49 933.432 230.127C933.104 229.764 932.939 229.312 932.939 228.773ZM957.461 235.084C957.461 238.893 956.811 241.723 955.51 243.574C954.209 245.426 952.176 246.352 949.41 246.352C946.68 246.352 944.658 245.449 943.346 243.645C942.033 241.828 941.354 239.121 941.307 235.523V231.182C941.307 227.42 941.957 224.625 943.258 222.797C944.559 220.969 946.598 220.055 949.375 220.055C952.129 220.055 954.156 220.939 955.457 222.709C956.758 224.467 957.426 227.186 957.461 230.865V235.084ZM954.209 230.637C954.209 227.883 953.822 225.879 953.049 224.625C952.275 223.359 951.051 222.727 949.375 222.727C947.711 222.727 946.498 223.354 945.736 224.607C944.975 225.861 944.582 227.789 944.559 230.391V235.594C944.559 238.359 944.957 240.404 945.754 241.729C946.562 243.041 947.781 243.697 949.41 243.697C951.016 243.697 952.205 243.076 952.979 241.834C953.764 240.592 954.174 238.635 954.209 235.963V230.637ZM977.676 235.084C977.676 238.893 977.025 241.723 975.725 243.574C974.424 245.426 972.391 246.352 969.625 246.352C966.895 246.352 964.873 245.449 963.561 243.645C962.248 241.828 961.568 239.121 961.521 235.523V231.182C961.521 227.42 962.172 224.625 963.473 222.797C964.773 220.969 966.812 220.055 969.59 220.055C972.344 220.055 974.371 220.939 975.672 222.709C976.973 224.467 977.641 227.186 977.676 230.865V235.084ZM974.424 230.637C974.424 227.883 974.037 225.879 973.264 224.625C972.49 223.359 971.266 222.727 969.59 222.727C967.926 222.727 966.713 223.354 965.951 224.607C965.189 225.861 964.797 227.789 964.773 230.391V235.594C964.773 238.359 965.172 240.404 965.969 241.729C966.777 243.041 967.996 243.697 969.625 243.697C971.23 243.697 972.42 243.076 973.193 241.834C973.979 240.592 974.389 238.635 974.424 235.963V230.637ZM982.07 244.295C982.07 243.732 982.234 243.264 982.562 242.889C982.902 242.514 983.406 242.326 984.074 242.326C984.742 242.326 985.246 242.514 985.586 242.889C985.938 243.264 986.113 243.732 986.113 244.295C986.113 244.834 985.938 245.285 985.586 245.648C985.246 246.012 984.742 246.193 984.074 246.193C983.406 246.193 982.902 246.012 982.562 245.648C982.234 245.285 982.07 244.834 982.07 244.295ZM982.088 228.773C982.088 228.211 982.252 227.742 982.58 227.367C982.92 226.992 983.424 226.805 984.092 226.805C984.76 226.805 985.264 226.992 985.604 227.367C985.955 227.742 986.131 228.211 986.131 228.773C986.131 229.312 985.955 229.764 985.604 230.127C985.264 230.49 984.76 230.672 984.092 230.672C983.424 230.672 982.92 230.49 982.58 230.127C982.252 229.764 982.088 229.312 982.088 228.773ZM1006.61 235.084C1006.61 238.893 1005.96 241.723 1004.66 243.574C1003.36 245.426 1001.32 246.352 998.559 246.352C995.828 246.352 993.807 245.449 992.494 243.645C991.182 241.828 990.502 239.121 990.455 235.523V231.182C990.455 227.42 991.105 224.625 992.406 222.797C993.707 220.969 995.746 220.055 998.523 220.055C1001.28 220.055 1003.3 220.939 1004.61 222.709C1005.91 224.467 1006.57 227.186 1006.61 230.865V235.084ZM1003.36 230.637C1003.36 227.883 1002.97 225.879 1002.2 224.625C1001.42 223.359 1000.2 222.727 998.523 222.727C996.859 222.727 995.646 223.354 994.885 224.607C994.123 225.861 993.73 227.789 993.707 230.391V235.594C993.707 238.359 994.105 240.404 994.902 241.729C995.711 243.041 996.93 243.697 998.559 243.697C1000.16 243.697 1001.35 243.076 1002.13 241.834C1002.91 240.592 1003.32 238.635 1003.36 235.963V230.637ZM1026.82 235.084C1026.82 238.893 1026.17 241.723 1024.87 243.574C1023.57 245.426 1021.54 246.352 1018.77 246.352C1016.04 246.352 1014.02 245.449 1012.71 243.645C1011.4 241.828 1010.72 239.121 1010.67 235.523V231.182C1010.67 227.42 1011.32 224.625 1012.62 222.797C1013.92 220.969 1015.96 220.055 1018.74 220.055C1021.49 220.055 1023.52 220.939 1024.82 222.709C1026.12 224.467 1026.79 227.186 1026.82 230.865V235.084ZM1023.57 230.637C1023.57 227.883 1023.19 225.879 1022.41 224.625C1021.64 223.359 1020.41 222.727 1018.74 222.727C1017.07 222.727 1015.86 223.354 1015.1 224.607C1014.34 225.861 1013.95 227.789 1013.92 230.391V235.594C1013.92 238.359 1014.32 240.404 1015.12 241.729C1015.93 243.041 1017.14 243.697 1018.77 243.697C1020.38 243.697 1021.57 243.076 1022.34 241.834C1023.13 240.592 1023.54 238.635 1023.57 235.963V230.637Z" fill="black"/>
<path d="M1535.95 231.072C1536.02 230.472 1536.07 229.848 1536.07 229.2C1536.07 228.552 1536.02 227.928 1535.92 227.328L1539.98 224.16C1540.34 223.872 1540.43 223.344 1540.22 222.936L1536.38 216.288C1536.14 215.856 1535.63 215.712 1535.2 215.856L1530.43 217.776C1529.42 217.008 1528.36 216.384 1527.19 215.904L1526.47 210.816C1526.39 210.336 1525.99 210 1525.51 210H1517.83C1517.35 210 1516.96 210.336 1516.89 210.816L1516.17 215.904C1514.99 216.384 1513.91 217.032 1512.93 217.776L1508.15 215.856C1507.72 215.688 1507.22 215.856 1506.98 216.288L1503.14 222.936C1502.9 223.368 1502.99 223.872 1503.38 224.16L1507.43 227.328C1507.34 227.928 1507.27 228.576 1507.27 229.2C1507.27 229.824 1507.31 230.472 1507.41 231.072L1503.35 234.24C1502.99 234.528 1502.9 235.056 1503.11 235.464L1506.95 242.112C1507.19 242.544 1507.7 242.688 1508.13 242.544L1512.91 240.624C1513.91 241.392 1514.97 242.016 1516.15 242.496L1516.87 247.584C1516.96 248.064 1517.35 248.4 1517.83 248.4H1525.51C1525.99 248.4 1526.39 248.064 1526.44 247.584L1527.16 242.496C1528.34 242.016 1529.42 241.368 1530.4 240.624L1535.18 242.544C1535.61 242.712 1536.11 242.544 1536.35 242.112L1540.19 235.464C1540.43 235.032 1540.34 234.528 1539.95 234.24L1535.95 231.072ZM1521.67 236.4C1517.71 236.4 1514.47 233.16 1514.47 229.2C1514.47 225.24 1517.71 222 1521.67 222C1525.63 222 1528.87 225.24 1528.87 229.2C1528.87 233.16 1525.63 236.4 1521.67 236.4Z" fill="black"/>
<rect x="321" y="279" width="1278" height="200" fill="#C4C4C4"/>
<rect x="1353.5" y="529.5" width="140" height="50" rx="14.5" fill="white" stroke="black"/>
<path d="M1383.73 556.218H1386.54C1386.4 557.565 1386.01 558.771 1385.39 559.836C1384.76 560.9 1383.88 561.745 1382.74 562.37C1381.59 562.985 1380.17 563.293 1378.46 563.293C1377.21 563.293 1376.07 563.059 1375.04 562.59C1374.03 562.121 1373.16 561.457 1372.42 560.598C1371.69 559.729 1371.12 558.688 1370.72 557.478C1370.33 556.257 1370.14 554.899 1370.14 553.405V551.281C1370.14 549.787 1370.33 548.435 1370.72 547.224C1371.12 546.003 1371.7 544.958 1372.44 544.089C1373.19 543.22 1374.09 542.551 1375.15 542.082C1376.2 541.613 1377.39 541.379 1378.71 541.379C1380.32 541.379 1381.68 541.682 1382.79 542.287C1383.91 542.893 1384.77 543.732 1385.39 544.807C1386.01 545.871 1386.4 547.106 1386.54 548.513H1383.73C1383.59 547.517 1383.34 546.662 1382.97 545.949C1382.6 545.227 1382.07 544.67 1381.39 544.279C1380.7 543.889 1379.81 543.693 1378.71 543.693C1377.76 543.693 1376.92 543.874 1376.2 544.235C1375.49 544.597 1374.89 545.109 1374.4 545.773C1373.92 546.438 1373.56 547.233 1373.32 548.161C1373.07 549.089 1372.95 550.119 1372.95 551.252V553.405C1372.95 554.45 1373.06 555.432 1373.27 556.35C1373.5 557.268 1373.83 558.073 1374.28 558.767C1374.73 559.46 1375.3 560.007 1376 560.407C1376.69 560.798 1377.51 560.993 1378.46 560.993C1379.66 560.993 1380.62 560.803 1381.33 560.422C1382.04 560.041 1382.58 559.494 1382.94 558.781C1383.31 558.068 1383.58 557.214 1383.73 556.218ZM1389.27 555.251V554.914C1389.27 553.771 1389.43 552.712 1389.77 551.735C1390.1 550.749 1390.58 549.895 1391.2 549.172C1391.83 548.439 1392.58 547.873 1393.47 547.473C1394.36 547.062 1395.36 546.857 1396.46 546.857C1397.57 546.857 1398.58 547.062 1399.46 547.473C1400.36 547.873 1401.12 548.439 1401.75 549.172C1402.38 549.895 1402.87 550.749 1403.2 551.735C1403.53 552.712 1403.7 553.771 1403.7 554.914V555.251C1403.7 556.394 1403.53 557.453 1403.2 558.43C1402.87 559.406 1402.38 560.261 1401.75 560.993C1401.12 561.716 1400.37 562.282 1399.48 562.692C1398.6 563.093 1397.6 563.293 1396.49 563.293C1395.38 563.293 1394.38 563.093 1393.49 562.692C1392.6 562.282 1391.84 561.716 1391.2 560.993C1390.58 560.261 1390.1 559.406 1389.77 558.43C1389.43 557.453 1389.27 556.394 1389.27 555.251ZM1391.98 554.914V555.251C1391.98 556.042 1392.07 556.789 1392.26 557.492C1392.44 558.186 1392.72 558.801 1393.09 559.338C1393.47 559.875 1393.95 560.3 1394.51 560.612C1395.08 560.915 1395.74 561.066 1396.49 561.066C1397.23 561.066 1397.88 560.915 1398.44 560.612C1399 560.3 1399.47 559.875 1399.84 559.338C1400.22 558.801 1400.49 558.186 1400.68 557.492C1400.88 556.789 1400.97 556.042 1400.97 555.251V554.914C1400.97 554.133 1400.88 553.396 1400.68 552.702C1400.49 551.999 1400.21 551.379 1399.83 550.842C1399.46 550.295 1398.99 549.865 1398.42 549.553C1397.87 549.24 1397.21 549.084 1396.46 549.084C1395.72 549.084 1395.06 549.24 1394.5 549.553C1393.94 549.865 1393.47 550.295 1393.09 550.842C1392.72 551.379 1392.44 551.999 1392.26 552.702C1392.07 553.396 1391.98 554.133 1391.98 554.914ZM1409.81 550.534V563H1407.1V547.15H1409.66L1409.81 550.534ZM1409.16 554.475L1408.03 554.431C1408.04 553.347 1408.2 552.346 1408.52 551.428C1408.83 550.5 1409.27 549.694 1409.83 549.011C1410.4 548.327 1411.08 547.8 1411.86 547.429C1412.65 547.048 1413.52 546.857 1414.48 546.857C1415.26 546.857 1415.96 546.965 1416.59 547.18C1417.21 547.385 1417.75 547.717 1418.18 548.176C1418.63 548.635 1418.98 549.23 1419.21 549.963C1419.44 550.686 1419.56 551.569 1419.56 552.614V563H1416.84V552.585C1416.84 551.755 1416.71 551.091 1416.47 550.593C1416.23 550.085 1415.87 549.719 1415.4 549.494C1414.93 549.26 1414.36 549.143 1413.67 549.143C1413 549.143 1412.38 549.284 1411.83 549.567C1411.28 549.851 1410.81 550.241 1410.41 550.739C1410.02 551.237 1409.71 551.809 1409.48 552.453C1409.27 553.088 1409.16 553.762 1409.16 554.475ZM1426.39 550.534V563H1423.68V547.15H1426.24L1426.39 550.534ZM1425.74 554.475L1424.62 554.431C1424.62 553.347 1424.79 552.346 1425.1 551.428C1425.41 550.5 1425.85 549.694 1426.42 549.011C1426.98 548.327 1427.66 547.8 1428.44 547.429C1429.23 547.048 1430.1 546.857 1431.06 546.857C1431.84 546.857 1432.54 546.965 1433.17 547.18C1433.79 547.385 1434.33 547.717 1434.77 548.176C1435.22 548.635 1435.56 549.23 1435.79 549.963C1436.03 550.686 1436.14 551.569 1436.14 552.614V563H1433.42V552.585C1433.42 551.755 1433.3 551.091 1433.05 550.593C1432.81 550.085 1432.45 549.719 1431.98 549.494C1431.51 549.26 1430.94 549.143 1430.25 549.143C1429.58 549.143 1428.97 549.284 1428.41 549.567C1427.86 549.851 1427.39 550.241 1426.99 550.739C1426.6 551.237 1426.29 551.809 1426.07 552.453C1425.85 553.088 1425.74 553.762 1425.74 554.475ZM1446.84 563.293C1445.73 563.293 1444.73 563.107 1443.83 562.736C1442.95 562.355 1442.18 561.823 1441.53 561.14C1440.9 560.456 1440.41 559.646 1440.07 558.708C1439.73 557.771 1439.56 556.745 1439.56 555.632V555.017C1439.56 553.728 1439.75 552.58 1440.13 551.574C1440.51 550.559 1441.03 549.699 1441.68 548.996C1442.33 548.293 1443.08 547.761 1443.91 547.399C1444.74 547.038 1445.6 546.857 1446.49 546.857C1447.62 546.857 1448.59 547.053 1449.42 547.443C1450.25 547.834 1450.92 548.381 1451.45 549.084C1451.98 549.777 1452.37 550.598 1452.62 551.545C1452.88 552.482 1453 553.508 1453 554.621V555.837H1441.17V553.625H1450.29V553.42C1450.25 552.717 1450.11 552.033 1449.85 551.369C1449.61 550.705 1449.22 550.158 1448.68 549.729C1448.15 549.299 1447.41 549.084 1446.49 549.084C1445.87 549.084 1445.3 549.216 1444.79 549.479C1444.27 549.733 1443.82 550.114 1443.45 550.622C1443.08 551.13 1442.79 551.75 1442.59 552.482C1442.38 553.215 1442.28 554.06 1442.28 555.017V555.632C1442.28 556.384 1442.38 557.092 1442.59 557.756C1442.8 558.41 1443.11 558.986 1443.51 559.484C1443.92 559.982 1444.42 560.373 1444.99 560.656C1445.58 560.939 1446.24 561.081 1446.98 561.081C1447.94 561.081 1448.75 560.886 1449.42 560.495C1450.08 560.104 1450.66 559.582 1451.16 558.928L1452.8 560.231C1452.46 560.749 1452.02 561.242 1451.5 561.711C1450.97 562.18 1450.32 562.561 1449.55 562.854C1448.79 563.146 1447.88 563.293 1446.84 563.293ZM1462.51 561.066C1463.16 561.066 1463.75 560.935 1464.3 560.671C1464.84 560.407 1465.29 560.046 1465.65 559.587C1466 559.118 1466.2 558.586 1466.25 557.99H1468.82C1468.78 558.928 1468.46 559.802 1467.87 560.612C1467.3 561.413 1466.54 562.062 1465.6 562.561C1464.66 563.049 1463.63 563.293 1462.51 563.293C1461.32 563.293 1460.28 563.083 1459.39 562.663C1458.51 562.243 1457.78 561.667 1457.19 560.935C1456.62 560.202 1456.18 559.362 1455.89 558.415C1455.61 557.458 1455.46 556.447 1455.46 555.383V554.768C1455.46 553.703 1455.61 552.697 1455.89 551.75C1456.18 550.793 1456.62 549.948 1457.19 549.216C1457.78 548.483 1458.51 547.907 1459.39 547.487C1460.28 547.067 1461.32 546.857 1462.51 546.857C1463.75 546.857 1464.83 547.111 1465.76 547.619C1466.69 548.117 1467.42 548.801 1467.95 549.67C1468.48 550.529 1468.78 551.506 1468.82 552.6H1466.25C1466.2 551.945 1466.01 551.354 1465.69 550.827C1465.38 550.3 1464.95 549.88 1464.4 549.567C1463.86 549.245 1463.23 549.084 1462.51 549.084C1461.68 549.084 1460.98 549.25 1460.42 549.582C1459.86 549.904 1459.42 550.344 1459.08 550.9C1458.76 551.447 1458.53 552.058 1458.38 552.731C1458.24 553.396 1458.17 554.074 1458.17 554.768V555.383C1458.17 556.076 1458.24 556.76 1458.38 557.434C1458.52 558.107 1458.75 558.718 1459.07 559.265C1459.4 559.812 1459.84 560.251 1460.4 560.583C1460.97 560.905 1461.67 561.066 1462.51 561.066ZM1478.51 547.15V549.23H1469.94V547.15H1478.51ZM1472.84 543.298H1475.55V559.074C1475.55 559.611 1475.63 560.017 1475.8 560.29C1475.96 560.563 1476.18 560.744 1476.44 560.832C1476.71 560.92 1476.99 560.964 1477.29 560.964C1477.52 560.964 1477.75 560.944 1477.99 560.905C1478.25 560.856 1478.44 560.817 1478.57 560.788L1478.58 563C1478.37 563.068 1478.08 563.132 1477.73 563.19C1477.39 563.259 1476.97 563.293 1476.49 563.293C1475.82 563.293 1475.21 563.161 1474.65 562.897C1474.1 562.634 1473.65 562.194 1473.32 561.579C1473 560.954 1472.84 560.114 1472.84 559.06V543.298Z" fill="black"/>
<rect x="569.5" y="529.5" width="758" height="50" rx="14.5" stroke="black"/>
<path d="M1278.5 529.5H1313C1321.01 529.5 1327.5 535.992 1327.5 544V565C1327.5 573.008 1321.01 579.5 1313 579.5H1278.5V529.5Z" stroke="black"/>
<path d="M1293.82 548L1303 557.16L1312.18 548L1315 550.82L1303 562.82L1291 550.82L1293.82 548Z" fill="black"/>
<rect x="371" y="529.5" width="173" height="50" rx="14.5" stroke="black"/>
<path d="M391.426 540.672H398.486C400.088 540.672 401.44 540.916 402.544 541.404C403.657 541.893 404.502 542.615 405.078 543.572C405.664 544.52 405.957 545.687 405.957 547.073C405.957 548.05 405.757 548.943 405.356 549.754C404.966 550.555 404.399 551.238 403.657 551.805C402.925 552.361 402.046 552.776 401.021 553.05L400.229 553.357H393.594L393.564 551.058H398.574C399.59 551.058 400.435 550.882 401.108 550.53C401.782 550.169 402.29 549.686 402.632 549.08C402.974 548.475 403.145 547.806 403.145 547.073C403.145 546.253 402.983 545.535 402.661 544.92C402.339 544.305 401.831 543.831 401.138 543.499C400.454 543.157 399.57 542.986 398.486 542.986H394.253V562H391.426V540.672ZM403.892 562L398.706 552.332L401.65 552.317L406.909 561.824V562H403.892ZM415.684 562H411.23L411.26 559.7H415.684C417.207 559.7 418.477 559.383 419.492 558.748C420.508 558.104 421.27 557.205 421.777 556.053C422.295 554.891 422.554 553.533 422.554 551.98V550.677C422.554 549.456 422.407 548.372 422.114 547.425C421.821 546.468 421.392 545.662 420.825 545.008C420.259 544.344 419.565 543.841 418.745 543.499C417.935 543.157 417.002 542.986 415.947 542.986H411.143V540.672H415.947C417.344 540.672 418.618 540.906 419.771 541.375C420.923 541.834 421.914 542.503 422.744 543.382C423.584 544.251 424.229 545.306 424.678 546.546C425.127 547.776 425.352 549.163 425.352 550.706V551.98C425.352 553.523 425.127 554.915 424.678 556.155C424.229 557.386 423.579 558.436 422.729 559.305C421.89 560.174 420.874 560.843 419.683 561.312C418.501 561.771 417.168 562 415.684 562ZM412.739 540.672V562H409.912V540.672H412.739ZM437.466 553.636H431.768V551.336H437.466C438.569 551.336 439.463 551.16 440.146 550.809C440.83 550.457 441.328 549.969 441.641 549.344C441.963 548.719 442.124 548.006 442.124 547.205C442.124 546.473 441.963 545.784 441.641 545.14C441.328 544.495 440.83 543.978 440.146 543.587C439.463 543.187 438.569 542.986 437.466 542.986H432.427V562H429.6V540.672H437.466C439.077 540.672 440.439 540.95 441.553 541.507C442.666 542.063 443.511 542.835 444.087 543.821C444.663 544.798 444.951 545.916 444.951 547.176C444.951 548.543 444.663 549.71 444.087 550.677C443.511 551.644 442.666 552.381 441.553 552.889C440.439 553.387 439.077 553.636 437.466 553.636Z" fill="black"/>
<path d="M495.5 529.5H530C538.008 529.5 544.5 535.992 544.5 544V565C544.5 573.008 538.008 579.5 530 579.5H495.5V529.5Z" stroke="black"/>
<path d="M510.82 548L520 557.16L529.18 548L532 550.82L520 562.82L508 550.82L510.82 548Z" fill="black"/>
<rect x="1207.5" y="605.5" width="286" height="50" rx="14.5" fill="white" stroke="black"/>
<path d="M1232.29 633.232C1232.03 635.488 1231.19 637.231 1229.79 638.462C1228.39 639.683 1226.53 640.293 1224.2 640.293C1221.68 640.293 1219.66 639.39 1218.14 637.583C1216.63 635.776 1215.87 633.359 1215.87 630.332V628.281C1215.87 626.299 1216.22 624.556 1216.92 623.052C1217.64 621.548 1218.64 620.396 1219.94 619.595C1221.24 618.784 1222.74 618.379 1224.45 618.379C1226.72 618.379 1228.54 619.014 1229.9 620.283C1231.27 621.543 1232.07 623.291 1232.29 625.527H1229.46C1229.22 623.828 1228.69 622.598 1227.87 621.836C1227.06 621.074 1225.92 620.693 1224.45 620.693C1222.66 620.693 1221.25 621.357 1220.22 622.686C1219.2 624.014 1218.7 625.903 1218.7 628.354V630.42C1218.7 632.734 1219.18 634.575 1220.15 635.942C1221.11 637.31 1222.47 637.993 1224.2 637.993C1225.77 637.993 1226.96 637.642 1227.79 636.938C1228.63 636.226 1229.19 634.99 1229.46 633.232H1232.29ZM1235 631.929C1235 630.376 1235.3 628.979 1235.91 627.739C1236.52 626.499 1237.37 625.542 1238.46 624.868C1239.55 624.194 1240.8 623.857 1242.19 623.857C1244.35 623.857 1246.09 624.604 1247.42 626.099C1248.76 627.593 1249.43 629.58 1249.43 632.061V632.251C1249.43 633.794 1249.13 635.181 1248.54 636.411C1247.95 637.632 1247.1 638.584 1246 639.268C1244.91 639.951 1243.65 640.293 1242.22 640.293C1240.07 640.293 1238.33 639.546 1236.99 638.052C1235.66 636.558 1235 634.58 1235 632.119V631.929ZM1237.72 632.251C1237.72 634.009 1238.13 635.42 1238.94 636.484C1239.76 637.549 1240.85 638.081 1242.22 638.081C1243.6 638.081 1244.69 637.544 1245.5 636.47C1246.31 635.386 1246.72 633.872 1246.72 631.929C1246.72 630.19 1246.3 628.784 1245.47 627.71C1244.65 626.626 1243.56 626.084 1242.19 626.084C1240.85 626.084 1239.78 626.616 1238.96 627.681C1238.13 628.745 1237.72 630.269 1237.72 632.251ZM1255.39 624.15L1255.48 626.143C1256.69 624.619 1258.27 623.857 1260.22 623.857C1263.57 623.857 1265.26 625.747 1265.29 629.526V640H1262.58V629.512C1262.57 628.369 1262.31 627.524 1261.79 626.978C1261.28 626.431 1260.49 626.157 1259.4 626.157C1258.53 626.157 1257.75 626.392 1257.09 626.86C1256.43 627.329 1255.91 627.944 1255.54 628.706V640H1252.83V624.15H1255.39ZM1271.94 624.15L1272.03 626.143C1273.24 624.619 1274.82 623.857 1276.78 623.857C1280.13 623.857 1281.82 625.747 1281.85 629.526V640H1279.14V629.512C1279.13 628.369 1278.86 627.524 1278.34 626.978C1277.84 626.431 1277.04 626.157 1275.96 626.157C1275.08 626.157 1274.31 626.392 1273.64 626.86C1272.98 627.329 1272.46 627.944 1272.09 628.706V640H1269.38V624.15H1271.94ZM1292.51 640.293C1290.36 640.293 1288.61 639.59 1287.27 638.184C1285.92 636.768 1285.24 634.878 1285.24 632.515V632.017C1285.24 630.444 1285.54 629.043 1286.14 627.812C1286.74 626.572 1287.58 625.605 1288.66 624.912C1289.74 624.209 1290.91 623.857 1292.17 623.857C1294.23 623.857 1295.83 624.536 1296.98 625.894C1298.12 627.251 1298.69 629.194 1298.69 631.724V632.852H1287.95C1287.99 634.414 1288.45 635.679 1289.32 636.646C1290.2 637.603 1291.31 638.081 1292.66 638.081C1293.61 638.081 1294.42 637.886 1295.09 637.495C1295.75 637.104 1296.33 636.587 1296.83 635.942L1298.49 637.231C1297.16 639.272 1295.17 640.293 1292.51 640.293ZM1292.17 626.084C1291.08 626.084 1290.16 626.484 1289.42 627.285C1288.68 628.076 1288.22 629.189 1288.04 630.625H1295.98V630.42C1295.9 629.043 1295.53 627.979 1294.87 627.227C1294.2 626.465 1293.31 626.084 1292.17 626.084ZM1308.2 638.081C1309.17 638.081 1310.01 637.788 1310.73 637.202C1311.46 636.616 1311.86 635.884 1311.93 635.005H1314.5C1314.45 635.913 1314.14 636.777 1313.56 637.598C1312.98 638.418 1312.21 639.072 1311.25 639.561C1310.29 640.049 1309.27 640.293 1308.2 640.293C1306.04 640.293 1304.32 639.575 1303.04 638.14C1301.77 636.694 1301.14 634.722 1301.14 632.222V631.768C1301.14 630.225 1301.42 628.853 1301.99 627.651C1302.55 626.45 1303.36 625.518 1304.42 624.854C1305.48 624.189 1306.74 623.857 1308.18 623.857C1309.96 623.857 1311.44 624.39 1312.61 625.454C1313.79 626.519 1314.42 627.9 1314.5 629.6H1311.93C1311.86 628.574 1311.46 627.734 1310.76 627.08C1310.07 626.416 1309.21 626.084 1308.18 626.084C1306.81 626.084 1305.74 626.582 1304.98 627.578C1304.22 628.564 1303.85 629.995 1303.85 631.87V632.383C1303.85 634.209 1304.22 635.615 1304.98 636.602C1305.73 637.588 1306.8 638.081 1308.2 638.081ZM1321.22 620.312V624.15H1324.18V626.245H1321.22V636.074C1321.22 636.709 1321.35 637.188 1321.62 637.51C1321.88 637.822 1322.33 637.979 1322.96 637.979C1323.28 637.979 1323.71 637.92 1324.25 637.803V640C1323.54 640.195 1322.85 640.293 1322.17 640.293C1320.96 640.293 1320.05 639.927 1319.43 639.194C1318.82 638.462 1318.51 637.422 1318.51 636.074V626.245H1315.62V624.15H1318.51V620.312H1321.22ZM1330.3 640H1327.59V624.15H1330.3V640ZM1327.37 619.946C1327.37 619.507 1327.5 619.136 1327.77 618.833C1328.04 618.53 1328.44 618.379 1328.97 618.379C1329.5 618.379 1329.9 618.53 1330.17 618.833C1330.44 619.136 1330.58 619.507 1330.58 619.946C1330.58 620.386 1330.44 620.752 1330.17 621.045C1329.9 621.338 1329.5 621.484 1328.97 621.484C1328.44 621.484 1328.04 621.338 1327.77 621.045C1327.5 620.752 1327.37 620.386 1327.37 619.946ZM1333.94 631.929C1333.94 630.376 1334.24 628.979 1334.84 627.739C1335.46 626.499 1336.31 625.542 1337.39 624.868C1338.49 624.194 1339.73 623.857 1341.13 623.857C1343.29 623.857 1345.03 624.604 1346.36 626.099C1347.7 627.593 1348.36 629.58 1348.36 632.061V632.251C1348.36 633.794 1348.07 635.181 1347.47 636.411C1346.88 637.632 1346.04 638.584 1344.94 639.268C1343.84 639.951 1342.58 640.293 1341.16 640.293C1339.01 640.293 1337.27 639.546 1335.93 638.052C1334.6 636.558 1333.94 634.58 1333.94 632.119V631.929ZM1336.66 632.251C1336.66 634.009 1337.07 635.42 1337.88 636.484C1338.7 637.549 1339.79 638.081 1341.16 638.081C1342.53 638.081 1343.63 637.544 1344.44 636.47C1345.25 635.386 1345.65 633.872 1345.65 631.929C1345.65 630.19 1345.24 628.784 1344.41 627.71C1343.59 626.626 1342.5 626.084 1341.13 626.084C1339.79 626.084 1338.71 626.616 1337.89 627.681C1337.07 628.745 1336.66 630.269 1336.66 632.251ZM1354.33 624.15L1354.41 626.143C1355.62 624.619 1357.21 623.857 1359.16 623.857C1362.51 623.857 1364.2 625.747 1364.23 629.526V640H1361.52V629.512C1361.51 628.369 1361.25 627.524 1360.73 626.978C1360.22 626.431 1359.42 626.157 1358.34 626.157C1357.46 626.157 1356.69 626.392 1356.03 626.86C1355.36 627.329 1354.84 627.944 1354.47 628.706V640H1351.76V624.15H1354.33ZM1384.99 635.796C1384.99 635.063 1384.71 634.497 1384.15 634.097C1383.6 633.687 1382.64 633.335 1381.26 633.042C1379.9 632.749 1378.81 632.397 1378 631.987C1377.2 631.577 1376.6 631.089 1376.21 630.522C1375.83 629.956 1375.64 629.282 1375.64 628.501C1375.64 627.202 1376.19 626.104 1377.28 625.205C1378.38 624.307 1379.79 623.857 1381.5 623.857C1383.3 623.857 1384.75 624.321 1385.86 625.249C1386.99 626.177 1387.55 627.363 1387.55 628.809H1384.82C1384.82 628.066 1384.51 627.427 1383.87 626.89C1383.25 626.353 1382.46 626.084 1381.5 626.084C1380.51 626.084 1379.74 626.299 1379.18 626.729C1378.63 627.158 1378.35 627.72 1378.35 628.413C1378.35 629.067 1378.61 629.561 1379.13 629.893C1379.64 630.225 1380.58 630.542 1381.92 630.845C1383.28 631.147 1384.38 631.509 1385.22 631.929C1386.06 632.349 1386.68 632.856 1387.08 633.452C1387.49 634.038 1387.7 634.756 1387.7 635.605C1387.7 637.021 1387.13 638.159 1386 639.019C1384.86 639.868 1383.39 640.293 1381.59 640.293C1380.32 640.293 1379.19 640.068 1378.22 639.619C1377.24 639.17 1376.47 638.545 1375.92 637.744C1375.37 636.934 1375.1 636.06 1375.1 635.122H1377.81C1377.86 636.03 1378.22 636.753 1378.89 637.29C1379.58 637.817 1380.47 638.081 1381.59 638.081C1382.61 638.081 1383.43 637.876 1384.05 637.466C1384.67 637.046 1384.99 636.489 1384.99 635.796ZM1397.8 640.293C1395.65 640.293 1393.91 639.59 1392.56 638.184C1391.21 636.768 1390.54 634.878 1390.54 632.515V632.017C1390.54 630.444 1390.83 629.043 1391.43 627.812C1392.04 626.572 1392.88 625.605 1393.95 624.912C1395.03 624.209 1396.21 623.857 1397.47 623.857C1399.53 623.857 1401.13 624.536 1402.27 625.894C1403.41 627.251 1403.98 629.194 1403.98 631.724V632.852H1393.25C1393.29 634.414 1393.74 635.679 1394.61 636.646C1395.49 637.603 1396.6 638.081 1397.95 638.081C1398.91 638.081 1399.72 637.886 1400.38 637.495C1401.04 637.104 1401.63 636.587 1402.12 635.942L1403.78 637.231C1402.45 639.272 1400.46 640.293 1397.8 640.293ZM1397.47 626.084C1396.37 626.084 1395.45 626.484 1394.71 627.285C1393.97 628.076 1393.51 629.189 1393.33 630.625H1401.27V630.42C1401.2 629.043 1400.83 627.979 1400.16 627.227C1399.5 626.465 1398.6 626.084 1397.47 626.084ZM1410.81 620.312V624.15H1413.77V626.245H1410.81V636.074C1410.81 636.709 1410.94 637.188 1411.21 637.51C1411.47 637.822 1411.92 637.979 1412.55 637.979C1412.87 637.979 1413.3 637.92 1413.84 637.803V640C1413.13 640.195 1412.44 640.293 1411.76 640.293C1410.55 640.293 1409.64 639.927 1409.02 639.194C1408.41 638.462 1408.1 637.422 1408.1 636.074V626.245H1405.21V624.15H1408.1V620.312H1410.81ZM1420.62 620.312V624.15H1423.58V626.245H1420.62V636.074C1420.62 636.709 1420.76 637.188 1421.02 637.51C1421.28 637.822 1421.73 637.979 1422.37 637.979C1422.68 637.979 1423.11 637.92 1423.66 637.803V640C1422.94 640.195 1422.25 640.293 1421.58 640.293C1420.37 640.293 1419.45 639.927 1418.84 639.194C1418.22 638.462 1417.92 637.422 1417.92 636.074V626.245H1415.03V624.15H1417.92V620.312H1420.62ZM1429.71 640H1427V624.15H1429.71V640ZM1426.78 619.946C1426.78 619.507 1426.91 619.136 1427.17 618.833C1427.45 618.53 1427.85 618.379 1428.37 618.379C1428.9 618.379 1429.3 618.53 1429.58 618.833C1429.85 619.136 1429.99 619.507 1429.99 619.946C1429.99 620.386 1429.85 620.752 1429.58 621.045C1429.3 621.338 1428.9 621.484 1428.37 621.484C1427.85 621.484 1427.45 621.338 1427.17 621.045C1426.91 620.752 1426.78 620.386 1426.78 619.946ZM1436.62 624.15L1436.71 626.143C1437.92 624.619 1439.5 623.857 1441.46 623.857C1444.8 623.857 1446.49 625.747 1446.52 629.526V640H1443.81V629.512C1443.8 628.369 1443.54 627.524 1443.02 626.978C1442.51 626.431 1441.72 626.157 1440.63 626.157C1439.76 626.157 1438.98 626.392 1438.32 626.86C1437.66 627.329 1437.14 627.944 1436.77 628.706V640H1434.06V624.15H1436.62ZM1449.97 631.943C1449.97 629.473 1450.54 627.51 1451.68 626.055C1452.82 624.59 1454.34 623.857 1456.22 623.857C1458.15 623.857 1459.66 624.541 1460.75 625.908L1460.88 624.15H1463.35V639.619C1463.35 641.67 1462.74 643.286 1461.52 644.468C1460.31 645.649 1458.68 646.24 1456.63 646.24C1455.49 646.24 1454.37 645.996 1453.28 645.508C1452.18 645.02 1451.35 644.351 1450.77 643.501L1452.18 641.875C1453.34 643.311 1454.76 644.028 1456.44 644.028C1457.76 644.028 1458.78 643.657 1459.52 642.915C1460.26 642.173 1460.63 641.128 1460.63 639.78V638.418C1459.55 639.668 1458.07 640.293 1456.19 640.293C1454.34 640.293 1452.83 639.546 1451.68 638.052C1450.54 636.558 1449.97 634.521 1449.97 631.943ZM1452.69 632.251C1452.69 634.038 1453.06 635.444 1453.79 636.47C1454.52 637.485 1455.55 637.993 1456.87 637.993C1458.57 637.993 1459.83 637.217 1460.63 635.664V628.428C1459.8 626.914 1458.55 626.157 1456.89 626.157C1455.58 626.157 1454.55 626.67 1453.8 627.695C1453.06 628.721 1452.69 630.239 1452.69 632.251ZM1476.68 635.796C1476.68 635.063 1476.41 634.497 1475.85 634.097C1475.3 633.687 1474.34 633.335 1472.96 633.042C1471.6 632.749 1470.51 632.397 1469.7 631.987C1468.9 631.577 1468.3 631.089 1467.91 630.522C1467.53 629.956 1467.34 629.282 1467.34 628.501C1467.34 627.202 1467.89 626.104 1468.98 625.205C1470.08 624.307 1471.49 623.857 1473.2 623.857C1475 623.857 1476.45 624.321 1477.56 625.249C1478.69 626.177 1479.25 627.363 1479.25 628.809H1476.52C1476.52 628.066 1476.21 627.427 1475.57 626.89C1474.95 626.353 1474.16 626.084 1473.2 626.084C1472.21 626.084 1471.44 626.299 1470.88 626.729C1470.33 627.158 1470.05 627.72 1470.05 628.413C1470.05 629.067 1470.31 629.561 1470.83 629.893C1471.34 630.225 1472.28 630.542 1473.62 630.845C1474.98 631.147 1476.08 631.509 1476.92 631.929C1477.76 632.349 1478.38 632.856 1478.78 633.452C1479.19 634.038 1479.39 634.756 1479.39 635.605C1479.39 637.021 1478.83 638.159 1477.7 639.019C1476.56 639.868 1475.09 640.293 1473.29 640.293C1472.02 640.293 1470.89 640.068 1469.92 639.619C1468.94 639.17 1468.17 638.545 1467.62 637.744C1467.07 636.934 1466.8 636.06 1466.8 635.122H1469.51C1469.56 636.03 1469.92 636.753 1470.59 637.29C1471.27 637.817 1472.17 638.081 1473.29 638.081C1474.31 638.081 1475.13 637.876 1475.75 637.466C1476.37 637.046 1476.68 636.489 1476.68 635.796Z" fill="black"/>
<rect width="1920" height="78" fill="white"/>
<g filter="url(#filter6_d_103_17)">
<rect x="798" y="21" width="133" height="37" rx="10" fill="white"/>
<rect x="798.5" y="21.5" width="132" height="36" rx="9.5" stroke="black"/>
</g>
<path d="M848.328 44V35.2727H849.385V39.1591H854.039V35.2727H855.095V44H854.039V40.0966H849.385V44H848.328ZM859.734 44.1364C859.143 44.1364 858.624 43.9957 858.178 43.7145C857.735 43.4332 857.389 43.0398 857.139 42.5341C856.892 42.0284 856.768 41.4375 856.768 40.7614C856.768 40.0795 856.892 39.4844 857.139 38.9759C857.389 38.4673 857.735 38.0724 858.178 37.7912C858.624 37.5099 859.143 37.3693 859.734 37.3693C860.325 37.3693 860.842 37.5099 861.285 37.7912C861.731 38.0724 862.078 38.4673 862.325 38.9759C862.575 39.4844 862.7 40.0795 862.7 40.7614C862.7 41.4375 862.575 42.0284 862.325 42.5341C862.078 43.0398 861.731 43.4332 861.285 43.7145C860.842 43.9957 860.325 44.1364 859.734 44.1364ZM859.734 43.233C860.183 43.233 860.552 43.1179 860.842 42.8878C861.132 42.6577 861.346 42.3551 861.485 41.9801C861.624 41.6051 861.694 41.1989 861.694 40.7614C861.694 40.3239 861.624 39.9162 861.485 39.5384C861.346 39.1605 861.132 38.8551 860.842 38.6222C860.552 38.3892 860.183 38.2727 859.734 38.2727C859.285 38.2727 858.916 38.3892 858.626 38.6222C858.336 38.8551 858.122 39.1605 857.982 39.5384C857.843 39.9162 857.774 40.3239 857.774 40.7614C857.774 41.1989 857.843 41.6051 857.982 41.9801C858.122 42.3551 858.336 42.6577 858.626 42.8878C858.916 43.1179 859.285 43.233 859.734 43.233ZM864.235 44V37.4545H865.206V38.4773H865.292C865.428 38.1278 865.648 37.8565 865.952 37.6634C866.256 37.4673 866.621 37.3693 867.047 37.3693C867.479 37.3693 867.839 37.4673 868.126 37.6634C868.415 37.8565 868.641 38.1278 868.803 38.4773H868.871C869.039 38.1392 869.29 37.8707 869.626 37.6719C869.961 37.4702 870.363 37.3693 870.831 37.3693C871.417 37.3693 871.895 37.5526 872.268 37.919C872.64 38.2827 872.826 38.8494 872.826 39.6193V44H871.82V39.6193C871.82 39.1364 871.688 38.7912 871.424 38.5838C871.16 38.3764 870.849 38.2727 870.491 38.2727C870.03 38.2727 869.674 38.4119 869.421 38.6903C869.168 38.9659 869.042 39.3153 869.042 39.7386V44H868.019V39.517C868.019 39.1449 867.898 38.8452 867.657 38.6179C867.415 38.3878 867.104 38.2727 866.724 38.2727C866.462 38.2727 866.218 38.3423 865.991 38.4815C865.766 38.6207 865.584 38.8139 865.445 39.0611C865.309 39.3054 865.241 39.5881 865.241 39.9091V44H864.235ZM877.409 44.1364C876.778 44.1364 876.234 43.9972 875.777 43.7188C875.322 43.4375 874.971 43.0455 874.724 42.5426C874.48 42.0369 874.358 41.4489 874.358 40.7784C874.358 40.108 874.48 39.517 874.724 39.0057C874.971 38.4915 875.315 38.0909 875.756 37.804C876.199 37.5142 876.716 37.3693 877.307 37.3693C877.648 37.3693 877.984 37.4261 878.317 37.5398C878.649 37.6534 878.952 37.8381 879.224 38.0938C879.497 38.3466 879.714 38.6818 879.876 39.0994C880.038 39.517 880.119 40.0312 880.119 40.642V41.0682H875.074V40.1989H879.096C879.096 39.8295 879.023 39.5 878.875 39.2102C878.73 38.9205 878.523 38.6918 878.253 38.5241C877.986 38.3565 877.67 38.2727 877.307 38.2727C876.906 38.2727 876.559 38.3722 876.267 38.571C875.977 38.767 875.754 39.0227 875.598 39.3381C875.442 39.6534 875.363 39.9915 875.363 40.3523V40.9318C875.363 41.4261 875.449 41.8452 875.619 42.1889C875.792 42.5298 876.032 42.7898 876.339 42.9688C876.646 43.1449 877.003 43.233 877.409 43.233C877.673 43.233 877.912 43.196 878.125 43.1222C878.341 43.0455 878.527 42.9318 878.683 42.7812C878.839 42.6278 878.96 42.4375 879.045 42.2102L880.017 42.483C879.915 42.8125 879.743 43.1023 879.501 43.3523C879.26 43.5994 878.961 43.7926 878.606 43.9318C878.251 44.0682 877.852 44.1364 877.409 44.1364Z" fill="black"/>
<g filter="url(#filter7_d_103_17)">
<rect x="991" y="21" width="146" height="37" rx="10" fill="white"/>
<rect x="991.5" y="21.5" width="145" height="36" rx="9.5" stroke="black"/>
</g>
<path d="M1021.63 37.5014C1021.65 36.9901 1021.49 36.5895 1021.17 36.2997C1020.85 36.0099 1020.4 35.8651 1019.82 35.8651C1019.42 35.8651 1019.05 35.9361 1018.71 36.0781C1018.38 36.2173 1018.1 36.4091 1017.89 36.6534C1017.68 36.8977 1017.54 37.1761 1017.49 37.4886C1017.46 37.7188 1017.47 37.9205 1017.54 38.0938C1017.61 38.2642 1017.72 38.4119 1017.87 38.5369C1018.02 38.6619 1018.19 38.7685 1018.38 38.8565C1018.57 38.9446 1018.77 39.0185 1018.97 39.0781L1019.85 39.3423C1020.11 39.419 1020.37 39.517 1020.63 39.6364C1020.89 39.7557 1021.12 39.9048 1021.32 40.0838C1021.52 40.2628 1021.67 40.483 1021.77 40.7443C1021.87 41.0057 1021.89 41.3182 1021.83 41.6818C1021.75 42.1534 1021.56 42.5753 1021.25 42.9474C1020.96 43.3168 1020.56 43.6094 1020.08 43.8253C1019.59 44.0412 1019.03 44.1491 1018.4 44.1491C1017.8 44.1491 1017.3 44.0511 1016.9 43.8551C1016.49 43.6562 1016.19 43.3821 1016 43.0327C1015.8 42.6832 1015.73 42.2784 1015.77 41.8182H1016.59C1016.56 42.1619 1016.63 42.4531 1016.78 42.6918C1016.95 42.9304 1017.18 43.1122 1017.48 43.2372C1017.78 43.3594 1018.12 43.4205 1018.51 43.4205C1018.95 43.4205 1019.35 43.348 1019.71 43.2031C1020.08 43.0554 1020.38 42.8509 1020.61 42.5895C1020.85 42.3253 1021 42.0185 1021.05 41.669C1021.11 41.3736 1021.07 41.125 1020.95 40.9233C1020.83 40.7216 1020.64 40.5526 1020.39 40.4162C1020.14 40.277 1019.84 40.1548 1019.5 40.0497L1018.5 39.7429C1017.85 39.544 1017.36 39.2642 1017.04 38.9034C1016.73 38.5426 1016.62 38.0824 1016.71 37.5227C1016.79 37.0511 1016.98 36.6378 1017.29 36.2827C1017.6 35.9247 1017.99 35.6463 1018.46 35.4474C1018.92 35.2486 1019.42 35.1491 1019.96 35.1491C1020.5 35.1491 1020.96 35.25 1021.34 35.4517C1021.72 35.6534 1022.01 35.9318 1022.19 36.2869C1022.38 36.6392 1022.45 37.044 1022.4 37.5014H1021.63ZM1025.83 44.1364C1025.22 44.1364 1024.71 43.9943 1024.31 43.7102C1023.92 43.4233 1023.64 43.027 1023.48 42.5213C1023.32 42.0128 1023.3 41.4276 1023.41 40.7656C1023.52 40.1065 1023.74 39.5213 1024.06 39.0099C1024.39 38.4957 1024.79 38.0937 1025.27 37.804C1025.75 37.5114 1026.27 37.3651 1026.84 37.3651C1027.19 37.3651 1027.52 37.4304 1027.83 37.5611C1028.14 37.6889 1028.41 37.8864 1028.62 38.1534C1028.84 38.4176 1028.99 38.7514 1029.08 39.1548C1029.16 39.5554 1029.16 40.0298 1029.07 40.5781L1029.01 40.9531H1023.9L1024 40.2841H1028.35C1028.42 39.8636 1028.4 39.4858 1028.29 39.1506C1028.18 38.8153 1027.99 38.5497 1027.72 38.3537C1027.46 38.1548 1027.13 38.0554 1026.74 38.0554C1026.33 38.0554 1025.96 38.1676 1025.6 38.392C1025.24 38.6165 1024.94 38.9091 1024.69 39.2699C1024.45 39.6278 1024.29 40.0099 1024.22 40.4162L1024.14 40.919C1024.04 41.473 1024.06 41.9375 1024.17 42.3125C1024.28 42.6847 1024.49 42.9659 1024.79 43.1562C1025.09 43.3466 1025.47 43.4418 1025.93 43.4418C1026.25 43.4418 1026.53 43.3935 1026.78 43.2969C1027.03 43.2003 1027.25 43.071 1027.44 42.9091C1027.63 42.7443 1027.78 42.5639 1027.89 42.3679L1028.57 42.6023C1028.43 42.8778 1028.22 43.1321 1027.96 43.3651C1027.7 43.598 1027.39 43.7855 1027.02 43.9276C1026.67 44.0668 1026.27 44.1364 1025.83 44.1364ZM1035.42 38.8906L1034.69 39.0781C1034.66 38.8821 1034.59 38.706 1034.49 38.5497C1034.39 38.3906 1034.25 38.2656 1034.07 38.1747C1033.88 38.081 1033.65 38.0341 1033.35 38.0341C1032.91 38.0341 1032.52 38.142 1032.2 38.358C1031.88 38.571 1031.69 38.8437 1031.64 39.1761C1031.6 39.4545 1031.65 39.6804 1031.82 39.8537C1031.98 40.027 1032.26 40.1634 1032.64 40.2628L1033.6 40.5057C1034.13 40.642 1034.5 40.8551 1034.73 41.1449C1034.95 41.4347 1035.03 41.8011 1034.96 42.2443C1034.9 42.6136 1034.74 42.9403 1034.49 43.2244C1034.24 43.5085 1033.92 43.7315 1033.52 43.8935C1033.14 44.0554 1032.7 44.1364 1032.22 44.1364C1031.58 44.1364 1031.07 43.9915 1030.7 43.7017C1030.33 43.4119 1030.14 42.9943 1030.11 42.4489L1030.87 42.2784C1030.9 42.6648 1031.03 42.9574 1031.27 43.1562C1031.51 43.3551 1031.86 43.4545 1032.3 43.4545C1032.81 43.4545 1033.23 43.3395 1033.58 43.1094C1033.92 42.8793 1034.12 42.5952 1034.17 42.2571C1034.22 41.9901 1034.17 41.7685 1034.02 41.5923C1033.87 41.4162 1033.63 41.2855 1033.28 41.2003L1032.26 40.9446C1031.71 40.8054 1031.32 40.5881 1031.1 40.2926C1030.87 39.9943 1030.8 39.6264 1030.87 39.1889C1030.93 38.8281 1031.08 38.5114 1031.32 38.2386C1031.56 37.9659 1031.87 37.7528 1032.24 37.5994C1032.61 37.4432 1033.01 37.3651 1033.45 37.3651C1034.05 37.3651 1034.51 37.5014 1034.82 37.7741C1035.14 38.044 1035.34 38.4162 1035.42 38.8906ZM1041.57 38.8906L1040.84 39.0781C1040.81 38.8821 1040.74 38.706 1040.64 38.5497C1040.54 38.3906 1040.4 38.2656 1040.22 38.1747C1040.04 38.081 1039.8 38.0341 1039.5 38.0341C1039.06 38.0341 1038.68 38.142 1038.36 38.358C1038.03 38.571 1037.85 38.8437 1037.79 39.1761C1037.75 39.4545 1037.81 39.6804 1037.97 39.8537C1038.13 40.027 1038.41 40.1634 1038.79 40.2628L1039.75 40.5057C1040.28 40.642 1040.65 40.8551 1040.88 41.1449C1041.11 41.4347 1041.18 41.8011 1041.11 42.2443C1041.05 42.6136 1040.89 42.9403 1040.64 43.2244C1040.39 43.5085 1040.07 43.7315 1039.68 43.8935C1039.29 44.0554 1038.85 44.1364 1038.37 44.1364C1037.73 44.1364 1037.22 43.9915 1036.85 43.7017C1036.49 43.4119 1036.29 42.9943 1036.26 42.4489L1037.03 42.2784C1037.05 42.6648 1037.18 42.9574 1037.42 43.1562C1037.67 43.3551 1038.01 43.4545 1038.45 43.4545C1038.96 43.4545 1039.38 43.3395 1039.73 43.1094C1040.07 42.8793 1040.27 42.5952 1040.32 42.2571C1040.37 41.9901 1040.32 41.7685 1040.17 41.5923C1040.03 41.4162 1039.78 41.2855 1039.43 41.2003L1038.41 40.9446C1037.86 40.8054 1037.48 40.5881 1037.25 40.2926C1037.02 39.9943 1036.95 39.6264 1037.02 39.1889C1037.08 38.8281 1037.23 38.5114 1037.47 38.2386C1037.72 37.9659 1038.02 37.7528 1038.39 37.5994C1038.76 37.4432 1039.16 37.3651 1039.6 37.3651C1040.2 37.3651 1040.66 37.5014 1040.98 37.7741C1041.29 38.044 1041.49 38.4162 1041.57 38.8906ZM1042.48 44L1043.57 37.4545H1044.34L1043.25 44H1042.48ZM1044.23 36.3168C1044.07 36.3168 1043.94 36.2628 1043.83 36.1548C1043.72 36.0469 1043.67 35.9162 1043.67 35.7628C1043.67 35.6179 1043.73 35.4929 1043.84 35.3878C1043.96 35.2798 1044.09 35.2259 1044.24 35.2259C1044.4 35.2259 1044.54 35.2812 1044.65 35.392C1044.76 35.5 1044.81 35.6307 1044.81 35.7841C1044.8 35.929 1044.75 36.054 1044.63 36.1591C1044.52 36.2642 1044.38 36.3168 1044.23 36.3168ZM1047.83 44.1364C1047.25 44.1364 1046.77 43.9915 1046.38 43.7017C1045.99 43.4091 1045.71 43.0043 1045.55 42.4872C1045.38 41.9702 1045.36 41.3736 1045.47 40.6974C1045.57 40.0384 1045.79 39.4588 1046.11 38.9588C1046.43 38.456 1046.83 38.0653 1047.3 37.7869C1047.77 37.5057 1048.29 37.3651 1048.84 37.3651C1049.42 37.3651 1049.9 37.5114 1050.29 37.804C1050.68 38.0966 1050.96 38.5014 1051.12 39.0185C1051.29 39.5355 1051.31 40.1335 1051.21 40.8125C1051.1 41.4688 1050.88 42.0469 1050.56 42.5469C1050.23 43.044 1049.84 43.4332 1049.37 43.7145C1048.9 43.9957 1048.38 44.1364 1047.83 44.1364ZM1047.84 43.4418C1048.3 43.4418 1048.72 43.3182 1049.08 43.071C1049.45 42.821 1049.75 42.4886 1049.99 42.0739C1050.23 41.6562 1050.39 41.1974 1050.47 40.6974C1050.55 40.2202 1050.54 39.7812 1050.44 39.3807C1050.35 38.9801 1050.17 38.6591 1049.9 38.4176C1049.63 38.1761 1049.28 38.0554 1048.84 38.0554C1048.37 38.0554 1047.96 38.1818 1047.59 38.4347C1047.23 38.6847 1046.92 39.0199 1046.68 39.4403C1046.45 39.858 1046.29 40.3153 1046.21 40.8125C1046.13 41.2926 1046.13 41.7315 1046.22 42.1293C1046.32 42.527 1046.5 42.8452 1046.77 43.0838C1047.04 43.3224 1047.39 43.4418 1047.84 43.4418ZM1053.78 39.9091L1053.1 44H1052.34L1053.43 37.4545H1054.17L1054 38.4815H1054.07C1054.27 38.1463 1054.56 37.8778 1054.92 37.6761C1055.28 37.4716 1055.7 37.3693 1056.18 37.3693C1056.62 37.3693 1056.99 37.4616 1057.29 37.6463C1057.59 37.8281 1057.81 38.0966 1057.94 38.4517C1058.07 38.8068 1058.09 39.2429 1058.01 39.7599L1057.29 44H1056.54L1057.23 39.8068C1057.32 39.2727 1057.24 38.8494 1057 38.5369C1056.76 38.2216 1056.39 38.0639 1055.88 38.0639C1055.54 38.0639 1055.22 38.1378 1054.92 38.2855C1054.63 38.4332 1054.38 38.6463 1054.18 38.9247C1053.98 39.2003 1053.84 39.5284 1053.78 39.9091ZM1063.63 35.9886L1063.75 35.2727H1070.07L1069.95 35.9886H1067.19L1065.86 44H1065.06L1066.39 35.9886H1063.63ZM1071.18 44.1491C1070.79 44.1491 1070.44 44.0724 1070.14 43.919C1069.84 43.7628 1069.61 43.5384 1069.46 43.2457C1069.32 42.9503 1069.28 42.5923 1069.34 42.1719C1069.4 41.848 1069.51 41.5753 1069.67 41.3537C1069.83 41.1321 1070.03 40.9503 1070.28 40.8082C1070.53 40.6634 1070.81 40.5497 1071.13 40.4673C1071.46 40.3849 1071.8 40.3224 1072.18 40.2798C1072.55 40.2344 1072.87 40.1946 1073.13 40.1605C1073.39 40.1264 1073.59 40.0724 1073.74 39.9986C1073.88 39.9247 1073.97 39.8054 1074 39.6406L1074.02 39.4872C1074.1 39.0412 1074.03 38.6903 1073.82 38.4347C1073.61 38.1761 1073.26 38.0469 1072.76 38.0469C1072.29 38.0469 1071.88 38.152 1071.53 38.3622C1071.19 38.5696 1070.94 38.8125 1070.77 39.0909L1070.09 38.831C1070.3 38.473 1070.55 38.1875 1070.85 37.9744C1071.15 37.7585 1071.47 37.6037 1071.81 37.5099C1072.15 37.4134 1072.49 37.3651 1072.82 37.3651C1073.07 37.3651 1073.32 37.3977 1073.58 37.4631C1073.84 37.5284 1074.07 37.642 1074.27 37.804C1074.48 37.9631 1074.63 38.1861 1074.73 38.473C1074.83 38.7571 1074.84 39.1179 1074.77 39.5554L1074.03 44H1073.27L1073.45 42.9645H1073.4C1073.28 43.1577 1073.12 43.3452 1072.91 43.527C1072.7 43.7088 1072.45 43.858 1072.16 43.9744C1071.87 44.0909 1071.54 44.1491 1071.18 44.1491ZM1071.37 43.4545C1071.78 43.4545 1072.14 43.3651 1072.47 43.1861C1072.8 43.0071 1073.07 42.7699 1073.28 42.4744C1073.49 42.1761 1073.63 41.848 1073.69 41.4901L1073.84 40.544C1073.78 40.598 1073.68 40.6463 1073.54 40.6889C1073.4 40.7315 1073.24 40.7699 1073.06 40.804C1072.89 40.8352 1072.72 40.8622 1072.54 40.8849C1072.37 40.9077 1072.21 40.9276 1072.08 40.9446C1071.7 40.9901 1071.37 41.0611 1071.09 41.1577C1070.81 41.2543 1070.59 41.3878 1070.42 41.5582C1070.25 41.7259 1070.15 41.9418 1070.11 42.206C1070.04 42.6037 1070.13 42.9119 1070.37 43.1307C1070.61 43.3466 1070.94 43.4545 1071.37 43.4545ZM1076.21 44L1077.66 35.2727H1078.42L1077.86 38.7031H1077.92C1078.04 38.5071 1078.2 38.3054 1078.39 38.098C1078.59 37.8906 1078.83 37.7173 1079.11 37.5781C1079.4 37.4361 1079.74 37.3651 1080.14 37.3651C1080.68 37.3651 1081.13 37.5071 1081.49 37.7912C1081.85 38.0724 1082.1 38.4673 1082.24 38.9759C1082.38 39.4815 1082.4 40.071 1082.29 40.7443C1082.17 41.4205 1081.96 42.0128 1081.65 42.5213C1081.34 43.0298 1080.96 43.4261 1080.51 43.7102C1080.06 43.9943 1079.57 44.1364 1079.03 44.1364C1078.63 44.1364 1078.31 44.0653 1078.07 43.9233C1077.83 43.7812 1077.64 43.6065 1077.52 43.3991C1077.39 43.1889 1077.3 42.9844 1077.24 42.7855H1077.15L1076.94 44H1076.21ZM1077.5 40.7315C1077.42 41.2599 1077.42 41.7287 1077.5 42.1378C1077.59 42.544 1077.76 42.8636 1078.02 43.0966C1078.28 43.3267 1078.62 43.4418 1079.04 43.4418C1079.48 43.4418 1079.86 43.3224 1080.2 43.0838C1080.55 42.8423 1080.83 42.517 1081.06 42.108C1081.28 41.6989 1081.44 41.2401 1081.53 40.7315C1081.61 40.2287 1081.61 39.7756 1081.52 39.3722C1081.44 38.9687 1081.26 38.6491 1081.01 38.4134C1080.75 38.1747 1080.4 38.0554 1079.96 38.0554C1079.54 38.0554 1079.15 38.1705 1078.81 38.4006C1078.47 38.6278 1078.19 38.9432 1077.97 39.3466C1077.74 39.7472 1077.59 40.2088 1077.5 40.7315ZM1088.52 35.2727L1090.31 39.0611H1090.37L1093.41 35.2727H1094.36L1090.83 39.6364L1092.91 44H1091.97L1090.18 40.2543H1090.13L1087.09 44H1086.14L1089.72 39.6364L1087.59 35.2727H1088.52Z" fill="black"/>
<path d="M1123 34.2086L1121.79 33L1117 37.7914L1112.21 33L1111 34.2086L1115.79 39L1111 43.7914L1112.21 45L1117 40.2086L1121.79 45L1123 43.7914L1118.21 39L1123 34.2086Z" fill="black"/>
<path d="M593.929 543.182V565H591.287V545.952H591.159L585.832 549.489V546.804L591.287 543.182H593.929ZM607.15 542.884C608.045 542.891 608.94 543.061 609.835 543.395C610.729 543.729 611.546 544.283 612.285 545.057C613.023 545.824 613.616 546.871 614.064 548.2C614.511 549.528 614.735 551.193 614.735 553.196C614.735 555.135 614.55 556.857 614.181 558.363C613.819 559.862 613.293 561.126 612.604 562.156C611.923 563.185 611.092 563.967 610.112 564.499C609.138 565.032 608.038 565.298 606.809 565.298C605.587 565.298 604.497 565.057 603.538 564.574C602.587 564.084 601.805 563.406 601.195 562.539C600.591 561.665 600.204 560.653 600.033 559.503H602.633C602.867 560.504 603.332 561.332 604.028 561.985C604.732 562.631 605.658 562.955 606.809 562.955C608.492 562.955 609.82 562.219 610.793 560.749C611.773 559.279 612.263 557.202 612.263 554.517H612.093C611.695 555.114 611.223 555.629 610.676 556.062C610.129 556.495 609.522 556.829 608.854 557.063C608.187 557.298 607.477 557.415 606.724 557.415C605.474 557.415 604.327 557.106 603.283 556.488C602.246 555.863 601.415 555.007 600.79 553.92C600.172 552.827 599.863 551.577 599.863 550.17C599.863 548.835 600.161 547.614 600.758 546.506C601.362 545.391 602.207 544.503 603.293 543.842C604.387 543.182 605.673 542.862 607.15 542.884ZM607.15 545.227C606.255 545.227 605.449 545.451 604.732 545.898C604.021 546.339 603.457 546.935 603.038 547.688C602.626 548.434 602.42 549.261 602.42 550.17C602.42 551.08 602.619 551.907 603.016 552.653C603.421 553.391 603.972 553.981 604.668 554.421C605.371 554.854 606.17 555.071 607.065 555.071C607.739 555.071 608.368 554.94 608.95 554.677C609.533 554.407 610.04 554.041 610.474 553.58C610.914 553.111 611.259 552.582 611.507 551.992C611.756 551.396 611.88 550.774 611.88 550.128C611.88 549.276 611.674 548.477 611.262 547.731C610.857 546.985 610.296 546.381 609.579 545.92C608.869 545.458 608.059 545.227 607.15 545.227ZM618.925 565V563.082L626.126 555.199C626.971 554.276 627.667 553.473 628.214 552.791C628.761 552.102 629.166 551.456 629.429 550.852C629.699 550.241 629.834 549.602 629.834 548.935C629.834 548.168 629.649 547.504 629.28 546.942C628.917 546.381 628.42 545.948 627.788 545.643C627.156 545.337 626.446 545.185 625.657 545.185C624.819 545.185 624.088 545.359 623.463 545.707C622.845 546.048 622.366 546.527 622.025 547.145C621.691 547.763 621.524 548.487 621.524 549.318H619.01C619.01 548.04 619.305 546.918 619.894 545.952C620.483 544.986 621.286 544.233 622.302 543.693C623.324 543.153 624.471 542.884 625.743 542.884C627.021 542.884 628.154 543.153 629.141 543.693C630.128 544.233 630.903 544.961 631.464 545.877C632.025 546.793 632.305 547.812 632.305 548.935C632.305 549.737 632.16 550.522 631.868 551.289C631.584 552.049 631.087 552.898 630.377 553.835C629.674 554.766 628.697 555.902 627.447 557.244L622.547 562.486V562.656H632.689V565H618.925ZM638.964 565.17C638.438 565.17 637.987 564.982 637.611 564.606C637.234 564.229 637.046 563.778 637.046 563.253C637.046 562.727 637.234 562.276 637.611 561.9C637.987 561.523 638.438 561.335 638.964 561.335C639.489 561.335 639.94 561.523 640.317 561.9C640.693 562.276 640.881 562.727 640.881 563.253C640.881 563.601 640.792 563.92 640.615 564.212C640.444 564.503 640.214 564.737 639.922 564.915C639.638 565.085 639.319 565.17 638.964 565.17ZM650.413 543.182V565H647.771V545.952H647.643L642.317 549.489V546.804L647.771 543.182H650.413ZM663.933 565.298C663.038 565.284 662.143 565.114 661.248 564.787C660.353 564.46 659.536 563.91 658.798 563.136C658.059 562.354 657.466 561.3 657.018 559.972C656.571 558.636 656.347 556.96 656.347 554.943C656.347 553.011 656.528 551.3 656.891 549.808C657.253 548.31 657.778 547.049 658.467 546.026C659.156 544.996 659.987 544.215 660.96 543.683C661.94 543.15 663.045 542.884 664.273 542.884C665.495 542.884 666.582 543.129 667.533 543.619C668.492 544.102 669.273 544.776 669.877 545.643C670.481 546.509 670.871 547.507 671.049 548.636H668.45C668.208 547.656 667.739 546.843 667.043 546.197C666.347 545.55 665.424 545.227 664.273 545.227C662.583 545.227 661.251 545.962 660.278 547.433C659.313 548.903 658.826 550.966 658.819 553.622H658.989C659.387 553.018 659.859 552.504 660.406 552.077C660.96 551.644 661.571 551.31 662.239 551.076C662.906 550.842 663.613 550.724 664.359 550.724C665.609 550.724 666.752 551.037 667.789 551.662C668.826 552.28 669.657 553.136 670.282 554.229C670.907 555.316 671.219 556.562 671.219 557.969C671.219 559.318 670.918 560.554 670.314 561.676C669.71 562.791 668.862 563.679 667.768 564.339C666.681 564.993 665.403 565.312 663.933 565.298ZM663.933 562.955C664.827 562.955 665.63 562.731 666.34 562.283C667.058 561.836 667.622 561.236 668.034 560.483C668.453 559.73 668.663 558.892 668.663 557.969C668.663 557.067 668.46 556.246 668.055 555.508C667.658 554.762 667.107 554.169 666.404 553.729C665.708 553.288 664.913 553.068 664.018 553.068C663.343 553.068 662.714 553.203 662.132 553.473C661.55 553.736 661.038 554.098 660.598 554.56C660.165 555.021 659.824 555.55 659.575 556.147C659.327 556.737 659.202 557.358 659.202 558.011C659.202 558.878 659.405 559.687 659.81 560.44C660.222 561.193 660.783 561.8 661.493 562.262C662.21 562.724 663.023 562.955 663.933 562.955ZM682.398 565.298C680.934 565.298 679.642 565.039 678.52 564.521C677.405 563.995 676.535 563.274 675.91 562.358C675.285 561.435 674.976 560.384 674.983 559.205C674.976 558.281 675.157 557.429 675.526 556.648C675.895 555.859 676.4 555.202 677.039 554.677C677.685 554.144 678.406 553.807 679.202 553.665V553.537C678.157 553.267 677.327 552.681 676.709 551.779C676.091 550.87 675.785 549.837 675.792 548.679C675.785 547.571 676.066 546.58 676.634 545.707C677.202 544.833 677.983 544.144 678.978 543.64C679.979 543.136 681.119 542.884 682.398 542.884C683.662 542.884 684.791 543.136 685.785 543.64C686.78 544.144 687.561 544.833 688.129 545.707C688.704 546.58 688.996 547.571 689.003 548.679C688.996 549.837 688.68 550.87 688.055 551.779C687.437 552.681 686.616 553.267 685.594 553.537V553.665C686.382 553.807 687.092 554.144 687.724 554.677C688.356 555.202 688.861 555.859 689.237 556.648C689.613 557.429 689.805 558.281 689.812 559.205C689.805 560.384 689.486 561.435 688.854 562.358C688.229 563.274 687.358 563.995 686.243 564.521C685.135 565.039 683.854 565.298 682.398 565.298ZM682.398 562.955C683.385 562.955 684.237 562.795 684.954 562.475C685.672 562.156 686.226 561.705 686.616 561.122C687.007 560.54 687.206 559.858 687.213 559.077C687.206 558.253 686.993 557.525 686.574 556.893C686.155 556.261 685.583 555.763 684.858 555.401C684.141 555.039 683.321 554.858 682.398 554.858C681.467 554.858 680.636 555.039 679.905 555.401C679.18 555.763 678.608 556.261 678.189 556.893C677.778 557.525 677.575 558.253 677.582 559.077C677.575 559.858 677.763 560.54 678.147 561.122C678.537 561.705 679.095 562.156 679.819 562.475C680.544 562.795 681.403 562.955 682.398 562.955ZM682.398 552.599C683.179 552.599 683.871 552.443 684.475 552.131C685.086 551.818 685.565 551.381 685.913 550.82C686.261 550.259 686.439 549.602 686.446 548.849C686.439 548.111 686.265 547.468 685.924 546.921C685.583 546.367 685.111 545.941 684.507 545.643C683.903 545.337 683.2 545.185 682.398 545.185C681.581 545.185 680.867 545.337 680.256 545.643C679.645 545.941 679.173 546.367 678.839 546.921C678.506 547.468 678.342 548.111 678.349 548.849C678.342 549.602 678.509 550.259 678.85 550.82C679.198 551.381 679.677 551.818 680.288 552.131C680.899 552.443 681.602 552.599 682.398 552.599ZM695.096 565.17C694.571 565.17 694.12 564.982 693.743 564.606C693.367 564.229 693.179 563.778 693.179 563.253C693.179 562.727 693.367 562.276 693.743 561.9C694.12 561.523 694.571 561.335 695.096 561.335C695.622 561.335 696.073 561.523 696.449 561.9C696.826 562.276 697.014 562.727 697.014 563.253C697.014 563.601 696.925 563.92 696.748 564.212C696.577 564.503 696.346 564.737 696.055 564.915C695.771 565.085 695.452 565.17 695.096 565.17ZM707.838 565.298C706.233 565.298 704.866 564.862 703.736 563.988C702.607 563.107 701.744 561.832 701.148 560.163C700.551 558.487 700.253 556.463 700.253 554.091C700.253 551.733 700.551 549.719 701.148 548.05C701.751 546.374 702.618 545.096 703.747 544.215C704.883 543.327 706.247 542.884 707.838 542.884C709.429 542.884 710.789 543.327 711.918 544.215C713.055 545.096 713.921 546.374 714.518 548.05C715.121 549.719 715.423 551.733 715.423 554.091C715.423 556.463 715.125 558.487 714.528 560.163C713.932 561.832 713.069 563.107 711.939 563.988C710.81 564.862 709.443 565.298 707.838 565.298ZM707.838 562.955C709.429 562.955 710.665 562.187 711.545 560.653C712.426 559.119 712.866 556.932 712.866 554.091C712.866 552.202 712.664 550.593 712.259 549.265C711.861 547.937 711.286 546.925 710.533 546.229C709.787 545.533 708.889 545.185 707.838 545.185C706.261 545.185 705.029 545.962 704.141 547.518C703.253 549.066 702.809 551.257 702.809 554.091C702.809 555.98 703.008 557.585 703.406 558.906C703.804 560.227 704.376 561.232 705.121 561.921C705.874 562.61 706.78 562.955 707.838 562.955ZM720.585 565.17C720.059 565.17 719.608 564.982 719.232 564.606C718.855 564.229 718.667 563.778 718.667 563.253C718.667 562.727 718.855 562.276 719.232 561.9C719.608 561.523 720.059 561.335 720.585 561.335C721.11 561.335 721.561 561.523 721.938 561.9C722.314 562.276 722.502 562.727 722.502 563.253C722.502 563.601 722.414 563.92 722.236 564.212C722.066 564.503 721.835 564.737 721.544 564.915C721.259 565.085 720.94 565.17 720.585 565.17ZM726.971 565V563.082L734.173 555.199C735.018 554.276 735.714 553.473 736.261 552.791C736.808 552.102 737.213 551.456 737.476 550.852C737.746 550.241 737.881 549.602 737.881 548.935C737.881 548.168 737.696 547.504 737.327 546.942C736.964 546.381 736.467 545.948 735.835 545.643C735.203 545.337 734.493 545.185 733.704 545.185C732.866 545.185 732.135 545.359 731.51 545.707C730.892 546.048 730.412 546.527 730.072 547.145C729.738 547.763 729.571 548.487 729.571 549.318H727.057C727.057 548.04 727.351 546.918 727.941 545.952C728.53 544.986 729.333 544.233 730.349 543.693C731.371 543.153 732.518 542.884 733.79 542.884C735.068 542.884 736.201 543.153 737.188 543.693C738.175 544.233 738.949 544.961 739.51 545.877C740.072 546.793 740.352 547.812 740.352 548.935C740.352 549.737 740.206 550.522 739.915 551.289C739.631 552.049 739.134 552.898 738.424 553.835C737.721 554.766 736.744 555.902 735.494 557.244L730.594 562.486V562.656H740.736V565H726.971ZM747.01 562.209C746.485 562.209 746.034 562.021 745.657 561.644C745.281 561.268 745.093 560.817 745.093 560.291C745.093 559.766 745.281 559.315 745.657 558.938C746.034 558.562 746.485 558.374 747.01 558.374C747.536 558.374 747.987 558.562 748.363 558.938C748.74 559.315 748.928 559.766 748.928 560.291C748.928 560.639 748.839 560.959 748.662 561.25C748.491 561.541 748.26 561.776 747.969 561.953C747.685 562.124 747.366 562.209 747.01 562.209ZM747.01 551.172C746.485 551.172 746.034 550.984 745.657 550.607C745.281 550.231 745.093 549.78 745.093 549.254C745.093 548.729 745.281 548.278 745.657 547.901C746.034 547.525 746.485 547.337 747.01 547.337C747.536 547.337 747.987 547.525 748.363 547.901C748.74 548.278 748.928 548.729 748.928 549.254C748.928 549.602 748.839 549.922 748.662 550.213C748.491 550.504 748.26 550.739 747.969 550.916C747.685 551.087 747.366 551.172 747.01 551.172ZM760.769 565.298C759.363 565.298 758.11 565.057 757.009 564.574C755.915 564.091 755.045 563.42 754.399 562.56C753.759 561.694 753.411 560.689 753.355 559.545H756.039C756.096 560.249 756.338 560.856 756.764 561.367C757.19 561.871 757.747 562.262 758.436 562.539C759.125 562.816 759.889 562.955 760.727 562.955C761.664 562.955 762.495 562.791 763.22 562.464C763.944 562.138 764.512 561.683 764.924 561.101C765.336 560.518 765.542 559.844 765.542 559.077C765.542 558.274 765.343 557.567 764.945 556.957C764.548 556.339 763.965 555.856 763.198 555.508C762.431 555.16 761.494 554.986 760.386 554.986H758.639V552.642H760.386C761.252 552.642 762.012 552.486 762.666 552.173C763.326 551.861 763.841 551.42 764.21 550.852C764.587 550.284 764.775 549.616 764.775 548.849C764.775 548.111 764.612 547.468 764.285 546.921C763.958 546.374 763.497 545.948 762.9 545.643C762.311 545.337 761.615 545.185 760.812 545.185C760.059 545.185 759.349 545.323 758.681 545.6C758.021 545.87 757.481 546.264 757.062 546.783C756.643 547.294 756.416 547.912 756.38 548.636H753.823C753.866 547.493 754.21 546.491 754.857 545.632C755.503 544.766 756.348 544.091 757.392 543.608C758.443 543.125 759.597 542.884 760.855 542.884C762.204 542.884 763.362 543.157 764.328 543.704C765.294 544.244 766.036 544.957 766.554 545.845C767.073 546.733 767.332 547.692 767.332 548.722C767.332 549.95 767.009 550.998 766.362 551.864C765.723 552.731 764.853 553.331 763.752 553.665V553.835C765.13 554.062 766.206 554.648 766.98 555.593C767.754 556.531 768.142 557.692 768.142 559.077C768.142 560.263 767.818 561.328 767.172 562.273C766.533 563.21 765.659 563.949 764.551 564.489C763.443 565.028 762.183 565.298 760.769 565.298ZM779.871 565.298C778.465 565.298 777.211 565.057 776.11 564.574C775.017 564.091 774.146 563.42 773.5 562.56C772.861 561.694 772.513 560.689 772.456 559.545H775.141C775.198 560.249 775.439 560.856 775.865 561.367C776.291 561.871 776.849 562.262 777.538 562.539C778.227 562.816 778.99 562.955 779.828 562.955C780.766 562.955 781.597 562.791 782.321 562.464C783.046 562.138 783.614 561.683 784.026 561.101C784.438 560.518 784.644 559.844 784.644 559.077C784.644 558.274 784.445 557.567 784.047 556.957C783.649 556.339 783.067 555.856 782.3 555.508C781.533 555.16 780.595 554.986 779.487 554.986H777.74V552.642H779.487C780.354 552.642 781.114 552.486 781.767 552.173C782.428 551.861 782.943 551.42 783.312 550.852C783.688 550.284 783.877 549.616 783.877 548.849C783.877 548.111 783.713 547.468 783.387 546.921C783.06 546.374 782.598 545.948 782.002 545.643C781.412 545.337 780.716 545.185 779.914 545.185C779.161 545.185 778.45 545.323 777.783 545.6C777.122 545.87 776.583 546.264 776.164 546.783C775.744 547.294 775.517 547.912 775.482 548.636H772.925C772.968 547.493 773.312 546.491 773.958 545.632C774.605 544.766 775.45 544.091 776.494 543.608C777.545 543.125 778.699 542.884 779.956 542.884C781.306 542.884 782.463 543.157 783.429 543.704C784.395 544.244 785.137 544.957 785.656 545.845C786.174 546.733 786.433 547.692 786.433 548.722C786.433 549.95 786.11 550.998 785.464 551.864C784.825 552.731 783.955 553.331 782.854 553.665V553.835C784.232 554.062 785.308 554.648 786.082 555.593C786.856 556.531 787.243 557.692 787.243 559.077C787.243 560.263 786.92 561.328 786.274 562.273C785.634 563.21 784.761 563.949 783.653 564.489C782.545 565.028 781.284 565.298 779.871 565.298ZM798.589 565.298C797.126 565.298 795.833 565.039 794.711 564.521C793.596 563.995 792.726 563.274 792.101 562.358C791.476 561.435 791.167 560.384 791.174 559.205C791.167 558.281 791.348 557.429 791.718 556.648C792.087 555.859 792.591 555.202 793.23 554.677C793.877 554.144 794.597 553.807 795.393 553.665V553.537C794.349 553.267 793.518 552.681 792.9 551.779C792.282 550.87 791.977 549.837 791.984 548.679C791.977 547.571 792.257 546.58 792.825 545.707C793.394 544.833 794.175 544.144 795.169 543.64C796.171 543.136 797.311 542.884 798.589 542.884C799.853 542.884 800.982 543.136 801.977 543.64C802.971 544.144 803.752 544.833 804.32 545.707C804.896 546.58 805.187 547.571 805.194 548.679C805.187 549.837 804.871 550.87 804.246 551.779C803.628 552.681 802.808 553.267 801.785 553.537V553.665C802.573 553.807 803.284 554.144 803.916 554.677C804.548 555.202 805.052 555.859 805.428 556.648C805.805 557.429 805.997 558.281 806.004 559.205C805.997 560.384 805.677 561.435 805.045 562.358C804.42 563.274 803.55 563.995 802.435 564.521C801.327 565.039 800.045 565.298 798.589 565.298ZM798.589 562.955C799.576 562.955 800.428 562.795 801.146 562.475C801.863 562.156 802.417 561.705 802.808 561.122C803.198 560.54 803.397 559.858 803.404 559.077C803.397 558.253 803.184 557.525 802.765 556.893C802.346 556.261 801.774 555.763 801.05 555.401C800.333 555.039 799.512 554.858 798.589 554.858C797.659 554.858 796.828 555.039 796.096 555.401C795.372 555.763 794.8 556.261 794.381 556.893C793.969 557.525 793.767 558.253 793.774 559.077C793.767 559.858 793.955 560.54 794.338 561.122C794.729 561.705 795.286 562.156 796.011 562.475C796.735 562.795 797.595 562.955 798.589 562.955ZM798.589 552.599C799.37 552.599 800.063 552.443 800.666 552.131C801.277 551.818 801.757 551.381 802.105 550.82C802.453 550.259 802.63 549.602 802.637 548.849C802.63 548.111 802.456 547.468 802.115 546.921C801.774 546.367 801.302 545.941 800.698 545.643C800.095 545.337 799.392 545.185 798.589 545.185C797.772 545.185 797.058 545.337 796.448 545.643C795.837 545.941 795.365 546.367 795.031 546.921C794.697 547.468 794.534 548.111 794.541 548.849C794.534 549.602 794.7 550.259 795.041 550.82C795.389 551.381 795.869 551.818 796.48 552.131C797.09 552.443 797.794 552.599 798.589 552.599ZM817.033 542.884C817.928 542.891 818.822 543.061 819.717 543.395C820.612 543.729 821.429 544.283 822.168 545.057C822.906 545.824 823.499 546.871 823.947 548.2C824.394 549.528 824.618 551.193 824.618 553.196C824.618 555.135 824.433 556.857 824.064 558.363C823.702 559.862 823.176 561.126 822.487 562.156C821.805 563.185 820.974 563.967 819.994 564.499C819.021 565.032 817.92 565.298 816.692 565.298C815.47 565.298 814.38 565.057 813.421 564.574C812.469 564.084 811.688 563.406 811.077 562.539C810.474 561.665 810.087 560.653 809.916 559.503H812.516C812.75 560.504 813.215 561.332 813.911 561.985C814.614 562.631 815.541 562.955 816.692 562.955C818.375 562.955 819.703 562.219 820.676 560.749C821.656 559.279 822.146 557.202 822.146 554.517H821.976C821.578 555.114 821.106 555.629 820.559 556.062C820.012 556.495 819.405 556.829 818.737 557.063C818.07 557.298 817.359 557.415 816.607 557.415C815.357 557.415 814.21 557.106 813.165 556.488C812.129 555.863 811.298 555.007 810.673 553.92C810.055 552.827 809.746 551.577 809.746 550.17C809.746 548.835 810.044 547.614 810.641 546.506C811.244 545.391 812.089 544.503 813.176 543.842C814.27 543.182 815.555 542.862 817.033 542.884ZM817.033 545.227C816.138 545.227 815.332 545.451 814.614 545.898C813.904 546.339 813.339 546.935 812.92 547.688C812.509 548.434 812.303 549.261 812.303 550.17C812.303 551.08 812.501 551.907 812.899 552.653C813.304 553.391 813.854 553.981 814.55 554.421C815.254 554.854 816.053 555.071 816.947 555.071C817.622 555.071 818.251 554.94 818.833 554.677C819.415 554.407 819.923 554.041 820.357 553.58C820.797 553.111 821.141 552.582 821.39 551.992C821.638 551.396 821.763 550.774 821.763 550.128C821.763 549.276 821.557 548.477 821.145 547.731C820.74 546.985 820.179 546.381 819.462 545.92C818.751 545.458 817.942 545.227 817.033 545.227Z" fill="black"/>
<g filter="url(#filter8_d_103_17)">
<circle cx="342" cy="555" r="25" fill="#D9D9D9"/>
<circle cx="342" cy="555" r="24.5" stroke="black"/>
</g>
<path d="M336.256 546.545V564H334.142V548.761H334.04L329.778 551.591V549.443L334.142 546.545H336.256ZM342.298 564H340.082L346.491 546.545H348.673L355.082 564H352.866L347.651 549.307H347.514L342.298 564ZM343.116 557.182H352.048V559.057H343.116V557.182Z" fill="black"/>
<g filter="url(#filter9_d_103_17)">
<circle cx="594" cy="503" r="25" fill="#D9D9D9"/>
<circle cx="594" cy="503" r="24.5" stroke="black"/>
</g>
<path d="M587.635 494.545V512H585.521V496.761H585.419L581.157 499.591V497.443L585.521 494.545H587.635ZM607.007 500H604.893C604.768 499.392 604.549 498.858 604.237 498.398C603.93 497.938 603.555 497.551 603.112 497.239C602.674 496.92 602.189 496.682 601.654 496.523C601.12 496.364 600.564 496.284 599.984 496.284C598.927 496.284 597.97 496.551 597.112 497.085C596.26 497.619 595.581 498.406 595.075 499.446C594.575 500.486 594.325 501.761 594.325 503.273C594.325 504.784 594.575 506.06 595.075 507.099C595.581 508.139 596.26 508.926 597.112 509.46C597.97 509.994 598.927 510.261 599.984 510.261C600.564 510.261 601.12 510.182 601.654 510.023C602.189 509.864 602.674 509.628 603.112 509.315C603.555 508.997 603.93 508.608 604.237 508.148C604.549 507.682 604.768 507.148 604.893 506.545H607.007C606.848 507.437 606.558 508.236 606.137 508.94C605.717 509.645 605.194 510.244 604.569 510.739C603.944 511.227 603.243 511.599 602.464 511.855C601.691 512.111 600.865 512.239 599.984 512.239C598.495 512.239 597.172 511.875 596.012 511.148C594.853 510.42 593.941 509.386 593.277 508.045C592.612 506.705 592.279 505.114 592.279 503.273C592.279 501.432 592.612 499.841 593.277 498.5C593.941 497.159 594.853 496.125 596.012 495.398C597.172 494.67 598.495 494.307 599.984 494.307C600.865 494.307 601.691 494.435 602.464 494.69C603.243 494.946 603.944 495.321 604.569 495.815C605.194 496.304 605.717 496.901 606.137 497.605C606.558 498.304 606.848 499.102 607.007 500Z" fill="black"/>
<g filter="url(#filter10_d_103_17)">
<circle cx="1303" cy="503" r="25" fill="#D9D9D9"/>
<circle cx="1303" cy="503" r="24.5" stroke="black"/>
</g>
<path d="M1296.74 494.545V512H1294.63V496.761H1294.52L1290.26 499.591V497.443L1294.63 494.545H1296.74ZM1307.45 512H1302.07V494.545H1307.69C1309.38 494.545 1310.83 494.895 1312.04 495.594C1313.24 496.287 1314.17 497.284 1314.81 498.585C1315.45 499.881 1315.77 501.432 1315.77 503.239C1315.77 505.057 1315.45 506.622 1314.8 507.935C1314.15 509.241 1313.21 510.247 1311.97 510.952C1310.73 511.651 1309.23 512 1307.45 512ZM1304.18 510.125H1307.32C1308.76 510.125 1309.96 509.847 1310.9 509.29C1311.85 508.733 1312.56 507.94 1313.03 506.912C1313.49 505.884 1313.73 504.659 1313.73 503.239C1313.73 501.83 1313.5 500.616 1313.04 499.599C1312.58 498.577 1311.89 497.793 1310.97 497.247C1310.06 496.696 1308.92 496.42 1307.56 496.42H1304.18V510.125Z" fill="black"/>
<g filter="url(#filter11_d_103_17)">
<circle cx="1528" cy="555" r="25" fill="#D9D9D9"/>
<circle cx="1528" cy="555" r="24.5" stroke="black"/>
</g>
<path d="M1523.19 546.545V564H1521.08V548.761H1520.98L1516.72 551.591V549.443L1521.08 546.545H1523.19ZM1528.52 564V546.545H1539.05V548.42H1530.63V554.318H1538.51V556.193H1530.63V562.125H1539.19V564H1528.52Z" fill="black"/>
<g filter="url(#filter12_d_103_17)">
<circle cx="1469" cy="235" r="25" fill="#D9D9D9"/>
<circle cx="1469" cy="235" r="24.5" stroke="black"/>
</g>
<path d="M1462.7 240.42V238.682L1470.37 226.545H1471.63V229.239H1470.78L1464.98 238.409V238.545H1475.31V240.42H1462.7ZM1470.91 244V239.892V239.082V226.545H1472.93V244H1470.91Z" fill="black"/>
<g filter="url(#filter13_d_103_17)">
<circle cx="1182" cy="39" r="25" fill="#D9D9D9"/>
<circle cx="1182" cy="39" r="24.5" stroke="black"/>
</g>
<path d="M1169.69 48L1177.5 32.5568V32.4205H1168.5V30.5455H1179.68V32.5227L1171.91 48H1169.69ZM1183.16 48V30.5455H1189.27C1190.48 30.5455 1191.49 30.7557 1192.28 31.1761C1193.06 31.5909 1193.65 32.1506 1194.04 32.8551C1194.43 33.554 1194.62 34.3295 1194.62 35.1818C1194.62 35.9318 1194.49 36.5511 1194.22 37.0398C1193.96 37.5284 1193.61 37.9148 1193.18 38.1989C1192.75 38.483 1192.29 38.6932 1191.79 38.8295V39C1192.32 39.0341 1192.86 39.2216 1193.4 39.5625C1193.94 39.9034 1194.39 40.392 1194.76 41.0284C1195.12 41.6648 1195.3 42.4432 1195.3 43.3636C1195.3 44.2386 1195.1 45.0256 1194.7 45.7244C1194.31 46.4233 1193.68 46.9773 1192.82 47.3864C1191.96 47.7955 1190.85 48 1189.47 48H1183.16ZM1185.28 46.125H1189.47C1190.85 46.125 1191.83 45.858 1192.41 45.3239C1193 44.7841 1193.29 44.1307 1193.29 43.3636C1193.29 42.7727 1193.14 42.2273 1192.84 41.7273C1192.54 41.2216 1192.11 40.8182 1191.55 40.517C1190.99 40.2102 1190.33 40.0568 1189.57 40.0568H1185.28V46.125ZM1185.28 38.2159H1189.2C1189.83 38.2159 1190.41 38.0909 1190.92 37.8409C1191.44 37.5909 1191.85 37.2386 1192.15 36.7841C1192.45 36.3295 1192.61 35.7955 1192.61 35.1818C1192.61 34.4148 1192.34 33.7642 1191.81 33.2301C1191.27 32.6903 1190.43 32.4205 1189.27 32.4205H1185.28V38.2159Z" fill="black"/>
<g filter="url(#filter14_d_103_17)">
<circle cx="762" cy="39" r="25" fill="#D9D9D9"/>
<circle cx="762" cy="39" r="24.5" stroke="black"/>
</g>
<path d="M750.688 48L758.495 32.5568V32.4205H749.495V30.5455H760.677V32.5227L752.904 48H750.688ZM762.275 48H760.059L766.468 30.5455H768.65L775.059 48H772.843L767.627 33.3068H767.491L762.275 48ZM763.093 41.1818H772.025V43.0568H763.093V41.1818Z" fill="black"/>
<g filter="url(#filter15_d_103_17)">
<circle cx="36" cy="39" r="25" fill="#D9D9D9"/>
<circle cx="36" cy="39" r="24.5" stroke="black"/>
</g>
<path d="M31.4968 48L39.3036 32.5568V32.4205H30.3036V30.5455H41.4854V32.5227L33.7127 48H31.4968Z" fill="black"/>
<g filter="url(#filter16_d_103_17)">
<circle cx="960" cy="379" r="25" fill="#D9D9D9"/>
<circle cx="960" cy="379" r="24.5" stroke="black"/>
</g>
<path d="M959.961 388.239C958.961 388.239 958.06 388.04 957.259 387.642C956.458 387.244 955.816 386.699 955.333 386.006C954.85 385.312 954.586 384.523 954.54 383.636H956.586C956.665 384.426 957.023 385.08 957.659 385.597C958.301 386.108 959.069 386.364 959.961 386.364C960.676 386.364 961.313 386.196 961.87 385.861C962.432 385.526 962.873 385.065 963.191 384.48C963.515 383.889 963.676 383.222 963.676 382.477C963.676 381.716 963.509 381.037 963.174 380.44C962.844 379.838 962.39 379.364 961.81 379.017C961.23 378.67 960.569 378.494 959.824 378.489C959.29 378.483 958.742 378.565 958.179 378.736C957.617 378.901 957.154 379.114 956.79 379.375L954.813 379.136L955.87 370.545H964.938V372.42H957.642L957.029 377.568H957.131C957.489 377.284 957.938 377.048 958.478 376.861C959.017 376.673 959.58 376.58 960.165 376.58C961.233 376.58 962.185 376.835 963.02 377.347C963.861 377.852 964.52 378.545 964.998 379.426C965.48 380.307 965.722 381.312 965.722 382.443C965.722 383.557 965.472 384.551 964.972 385.426C964.478 386.295 963.796 386.983 962.926 387.489C962.057 387.989 961.069 388.239 959.961 388.239Z" fill="black"/>
<g filter="url(#filter17_d_103_17)">
<circle cx="86" cy="204" r="25" fill="#D9D9D9"/>
<circle cx="86" cy="204" r="24.5" stroke="black"/>
</g>
<path d="M86.114 213.239C85.3981 213.227 84.6822 213.091 83.9663 212.83C83.2504 212.568 82.5969 212.128 82.006 211.509C81.4151 210.884 80.9407 210.04 80.5827 208.977C80.2248 207.909 80.0458 206.568 80.0458 204.955C80.0458 203.409 80.1907 202.04 80.4805 200.847C80.7702 199.648 81.1907 198.639 81.7418 197.821C82.293 196.997 82.9577 196.372 83.7362 195.946C84.5202 195.52 85.4038 195.307 86.3867 195.307C87.364 195.307 88.2333 195.503 88.9947 195.895C89.7617 196.281 90.3867 196.821 90.8697 197.514C91.3526 198.207 91.6651 199.006 91.8072 199.909H89.7276C89.5344 199.125 89.1594 198.474 88.6026 197.957C88.0458 197.44 87.3072 197.182 86.3867 197.182C85.0344 197.182 83.9691 197.77 83.1907 198.946C82.418 200.122 82.0288 201.773 82.0231 203.898H82.1594C82.4776 203.415 82.8555 203.003 83.293 202.662C83.7362 202.315 84.2248 202.048 84.7589 201.861C85.293 201.673 85.8583 201.58 86.4549 201.58C87.4549 201.58 88.3697 201.83 89.1992 202.33C90.0288 202.824 90.6935 203.509 91.1935 204.384C91.6935 205.253 91.9435 206.25 91.9435 207.375C91.9435 208.455 91.7021 209.443 91.2191 210.341C90.7362 211.233 90.0572 211.943 89.1822 212.472C88.3129 212.994 87.2901 213.25 86.114 213.239ZM86.114 211.364C86.8299 211.364 87.4719 211.185 88.0401 210.827C88.614 210.469 89.0657 209.989 89.3952 209.386C89.7305 208.784 89.8981 208.114 89.8981 207.375C89.8981 206.653 89.7362 205.997 89.4123 205.406C89.0941 204.81 88.6538 204.335 88.0913 203.983C87.5344 203.631 86.8981 203.455 86.1822 203.455C85.6424 203.455 85.1396 203.562 84.6737 203.778C84.2077 203.989 83.7987 204.278 83.4464 204.648C83.0998 205.017 82.8271 205.44 82.6282 205.918C82.4293 206.389 82.3299 206.886 82.3299 207.409C82.3299 208.102 82.4918 208.75 82.8157 209.352C83.1452 209.955 83.5941 210.44 84.1623 210.81C84.7362 211.179 85.3867 211.364 86.114 211.364Z" fill="black"/>
<defs>
<filter id="filter0_d_103_17" x="313" y="478" width="58" height="58" filterUnits="userSpaceOnUse" color-interpolation-filters="sRGB">
<feFlood flood-opacity="0" result="BackgroundImageFix"/>
<feColorMatrix in="SourceAlpha" type="matrix" values="0 0 0 0 0 0 0 0 0 0 0 0 0 0 0 0 0 0 127 0" result="hardAlpha"/>
<feOffset dy="4"/>
<feGaussianBlur stdDeviation="2"/>
<feComposite in2="hardAlpha" operator="out"/>
<feColorMatrix type="matrix" values="0 0 0 0 0 0 0 0 0 0 0 0 0 0 0 0 0 0 0.25 0"/>
<feBlend mode="normal" in2="BackgroundImageFix" result="effect1_dropShadow_103_17"/>
<feBlend mode="normal" in="SourceGraphic" in2="effect1_dropShadow_103_17" result="shape"/>
</filter>
<filter id="filter1_d_103_17" x="1499" y="605" width="58" height="58" filterUnits="userSpaceOnUse" color-interpolation-filters="sRGB">
<feFlood flood-opacity="0" result="BackgroundImageFix"/>
<feColorMatrix in="SourceAlpha" type="matrix" values="0 0 0 0 0 0 0 0 0 0 0 0 0 0 0 0 0 0 127 0" result="hardAlpha"/>
<feOffset dy="4"/>
<feGaussianBlur stdDeviation="2"/>
<feComposite in2="hardAlpha" operator="out"/>
<feColorMatrix type="matrix" values="0 0 0 0 0 0 0 0 0 0 0 0 0 0 0 0 0 0 0.25 0"/>
<feBlend mode="normal" in2="BackgroundImageFix" result="effect1_dropShadow_103_17"/>
<feBlend mode="normal" in="SourceGraphic" in2="effect1_dropShadow_103_17" result="shape"/>
</filter>
<filter id="filter2_d_103_17" x="1499" y="605" width="58" height="58" filterUnits="userSpaceOnUse" color-interpolation-filters="sRGB">
<feFlood flood-opacity="0" result="BackgroundImageFix"/>
<feColorMatrix in="SourceAlpha" type="matrix" values="0 0 0 0 0 0 0 0 0 0 0 0 0 0 0 0 0 0 127 0" result="hardAlpha"/>
<feOffset dy="4"/>
<feGaussianBlur stdDeviation="2"/>
<feComposite in2="hardAlpha" operator="out"/>
<feColorMatrix type="matrix" values="0 0 0 0 0 0 0 0 0 0 0 0 0 0 0 0 0 0 0.25 0"/>
<feBlend mode="normal" in2="BackgroundImageFix" result="effect1_dropShadow_103_17"/>
<feBlend mode="normal" in="SourceGraphic" in2="effect1_dropShadow_103_17" result="shape"/>
</filter>
<filter id="filter3_d_103_17" x="313" y="589" width="58" height="58" filterUnits="userSpaceOnUse" color-interpolation-filters="sRGB">
<feFlood flood-opacity="0" result="BackgroundImageFix"/>
<feColorMatrix in="SourceAlpha" type="matrix" values="0 0 0 0 0 0 0 0 0 0 0 0 0 0 0 0 0 0 127 0" result="hardAlpha"/>
<feOffset dy="4"/>
<feGaussianBlur stdDeviation="2"/>
<feComposite in2="hardAlpha" operator="out"/>
<feColorMatrix type="matrix" values="0 0 0 0 0 0 0 0 0 0 0 0 0 0 0 0 0 0 0.25 0"/>
<feBlend mode="normal" in2="BackgroundImageFix" result="effect1_dropShadow_103_17"/>
<feBlend mode="normal" in="SourceGraphic" in2="effect1_dropShadow_103_17" result="shape"/>
</filter>
<filter id="filter4_d_103_17" x="317" y="210" width="58" height="58" filterUnits="userSpaceOnUse" color-interpolation-filters="sRGB">
<feFlood flood-opacity="0" result="BackgroundImageFix"/>
<feColorMatrix in="SourceAlpha" type="matrix" values="0 0 0 0 0 0 0 0 0 0 0 0 0 0 0 0 0 0 127 0" result="hardAlpha"/>
<feOffset dy="4"/>
<feGaussianBlur stdDeviation="2"/>
<feComposite in2="hardAlpha" operator="out"/>
<feColorMatrix type="matrix" values="0 0 0 0 0 0 0 0 0 0 0 0 0 0 0 0 0 0 0.25 0"/>
<feBlend mode="normal" in2="BackgroundImageFix" result="effect1_dropShadow_103_17"/>
<feBlend mode="normal" in="SourceGraphic" in2="effect1_dropShadow_103_17" result="shape"/>
</filter>
<filter id="filter5_d_103_17" x="835" y="210" width="58" height="58" filterUnits="userSpaceOnUse" color-interpolation-filters="sRGB">
<feFlood flood-opacity="0" result="BackgroundImageFix"/>
<feColorMatrix in="SourceAlpha" type="matrix" values="0 0 0 0 0 0 0 0 0 0 0 0 0 0 0 0 0 0 127 0" result="hardAlpha"/>
<feOffset dy="4"/>
<feGaussianBlur stdDeviation="2"/>
<feComposite in2="hardAlpha" operator="out"/>
<feColorMatrix type="matrix" values="0 0 0 0 0 0 0 0 0 0 0 0 0 0 0 0 0 0 0.25 0"/>
<feBlend mode="normal" in2="BackgroundImageFix" result="effect1_dropShadow_103_17"/>
<feBlend mode="normal" in="SourceGraphic" in2="effect1_dropShadow_103_17" result="shape"/>
</filter>
<filter id="filter6_d_103_17" x="794" y="21" width="141" height="45" filterUnits="userSpaceOnUse" color-interpolation-filters="sRGB">
<feFlood flood-opacity="0" result="BackgroundImageFix"/>
<feColorMatrix in="SourceAlpha" type="matrix" values="0 0 0 0 0 0 0 0 0 0 0 0 0 0 0 0 0 0 127 0" result="hardAlpha"/>
<feOffset dy="4"/>
<feGaussianBlur stdDeviation="2"/>
<feComposite in2="hardAlpha" operator="out"/>
<feColorMatrix type="matrix" values="0 0 0 0 0 0 0 0 0 0 0 0 0 0 0 0 0 0 0.25 0"/>
<feBlend mode="normal" in2="BackgroundImageFix" result="effect1_dropShadow_103_17"/>
<feBlend mode="normal" in="SourceGraphic" in2="effect1_dropShadow_103_17" result="shape"/>
</filter>
<filter id="filter7_d_103_17" x="987" y="21" width="154" height="45" filterUnits="userSpaceOnUse" color-interpolation-filters="sRGB">
<feFlood flood-opacity="0" result="BackgroundImageFix"/>
<feColorMatrix in="SourceAlpha" type="matrix" values="0 0 0 0 0 0 0 0 0 0 0 0 0 0 0 0 0 0 127 0" result="hardAlpha"/>
<feOffset dy="4"/>
<feGaussianBlur stdDeviation="2"/>
<feComposite in2="hardAlpha" operator="out"/>
<feColorMatrix type="matrix" values="0 0 0 0 0 0 0 0 0 0 0 0 0 0 0 0 0 0 0.25 0"/>
<feBlend mode="normal" in2="BackgroundImageFix" result="effect1_dropShadow_103_17"/>
<feBlend mode="normal" in="SourceGraphic" in2="effect1_dropShadow_103_17" result="shape"/>
</filter>
<filter id="filter8_d_103_17" x="313" y="530" width="58" height="58" filterUnits="userSpaceOnUse" color-interpolation-filters="sRGB">
<feFlood flood-opacity="0" result="BackgroundImageFix"/>
<feColorMatrix in="SourceAlpha" type="matrix" values="0 0 0 0 0 0 0 0 0 0 0 0 0 0 0 0 0 0 127 0" result="hardAlpha"/>
<feOffset dy="4"/>
<feGaussianBlur stdDeviation="2"/>
<feComposite in2="hardAlpha" operator="out"/>
<feColorMatrix type="matrix" values="0 0 0 0 0 0 0 0 0 0 0 0 0 0 0 0 0 0 0.25 0"/>
<feBlend mode="normal" in2="BackgroundImageFix" result="effect1_dropShadow_103_17"/>
<feBlend mode="normal" in="SourceGraphic" in2="effect1_dropShadow_103_17" result="shape"/>
</filter>
<filter id="filter9_d_103_17" x="565" y="478" width="58" height="58" filterUnits="userSpaceOnUse" color-interpolation-filters="sRGB">
<feFlood flood-opacity="0" result="BackgroundImageFix"/>
<feColorMatrix in="SourceAlpha" type="matrix" values="0 0 0 0 0 0 0 0 0 0 0 0 0 0 0 0 0 0 127 0" result="hardAlpha"/>
<feOffset dy="4"/>
<feGaussianBlur stdDeviation="2"/>
<feComposite in2="hardAlpha" operator="out"/>
<feColorMatrix type="matrix" values="0 0 0 0 0 0 0 0 0 0 0 0 0 0 0 0 0 0 0.25 0"/>
<feBlend mode="normal" in2="BackgroundImageFix" result="effect1_dropShadow_103_17"/>
<feBlend mode="normal" in="SourceGraphic" in2="effect1_dropShadow_103_17" result="shape"/>
</filter>
<filter id="filter10_d_103_17" x="1274" y="478" width="58" height="58" filterUnits="userSpaceOnUse" color-interpolation-filters="sRGB">
<feFlood flood-opacity="0" result="BackgroundImageFix"/>
<feColorMatrix in="SourceAlpha" type="matrix" values="0 0 0 0 0 0 0 0 0 0 0 0 0 0 0 0 0 0 127 0" result="hardAlpha"/>
<feOffset dy="4"/>
<feGaussianBlur stdDeviation="2"/>
<feComposite in2="hardAlpha" operator="out"/>
<feColorMatrix type="matrix" values="0 0 0 0 0 0 0 0 0 0 0 0 0 0 0 0 0 0 0.25 0"/>
<feBlend mode="normal" in2="BackgroundImageFix" result="effect1_dropShadow_103_17"/>
<feBlend mode="normal" in="SourceGraphic" in2="effect1_dropShadow_103_17" result="shape"/>
</filter>
<filter id="filter11_d_103_17" x="1499" y="530" width="58" height="58" filterUnits="userSpaceOnUse" color-interpolation-filters="sRGB">
<feFlood flood-opacity="0" result="BackgroundImageFix"/>
<feColorMatrix in="SourceAlpha" type="matrix" values="0 0 0 0 0 0 0 0 0 0 0 0 0 0 0 0 0 0 127 0" result="hardAlpha"/>
<feOffset dy="4"/>
<feGaussianBlur stdDeviation="2"/>
<feComposite in2="hardAlpha" operator="out"/>
<feColorMatrix type="matrix" values="0 0 0 0 0 0 0 0 0 0 0 0 0 0 0 0 0 0 0.25 0"/>
<feBlend mode="normal" in2="BackgroundImageFix" result="effect1_dropShadow_103_17"/>
<feBlend mode="normal" in="SourceGraphic" in2="effect1_dropShadow_103_17" result="shape"/>
</filter>
<filter id="filter12_d_103_17" x="1440" y="210" width="58" height="58" filterUnits="userSpaceOnUse" color-interpolation-filters="sRGB">
<feFlood flood-opacity="0" result="BackgroundImageFix"/>
<feColorMatrix in="SourceAlpha" type="matrix" values="0 0 0 0 0 0 0 0 0 0 0 0 0 0 0 0 0 0 127 0" result="hardAlpha"/>
<feOffset dy="4"/>
<feGaussianBlur stdDeviation="2"/>
<feComposite in2="hardAlpha" operator="out"/>
<feColorMatrix type="matrix" values="0 0 0 0 0 0 0 0 0 0 0 0 0 0 0 0 0 0 0.25 0"/>
<feBlend mode="normal" in2="BackgroundImageFix" result="effect1_dropShadow_103_17"/>
<feBlend mode="normal" in="SourceGraphic" in2="effect1_dropShadow_103_17" result="shape"/>
</filter>
<filter id="filter13_d_103_17" x="1153" y="14" width="58" height="58" filterUnits="userSpaceOnUse" color-interpolation-filters="sRGB">
<feFlood flood-opacity="0" result="BackgroundImageFix"/>
<feColorMatrix in="SourceAlpha" type="matrix" values="0 0 0 0 0 0 0 0 0 0 0 0 0 0 0 0 0 0 127 0" result="hardAlpha"/>
<feOffset dy="4"/>
<feGaussianBlur stdDeviation="2"/>
<feComposite in2="hardAlpha" operator="out"/>
<feColorMatrix type="matrix" values="0 0 0 0 0 0 0 0 0 0 0 0 0 0 0 0 0 0 0.25 0"/>
<feBlend mode="normal" in2="BackgroundImageFix" result="effect1_dropShadow_103_17"/>
<feBlend mode="normal" in="SourceGraphic" in2="effect1_dropShadow_103_17" result="shape"/>
</filter>
<filter id="filter14_d_103_17" x="733" y="14" width="58" height="58" filterUnits="userSpaceOnUse" color-interpolation-filters="sRGB">
<feFlood flood-opacity="0" result="BackgroundImageFix"/>
<feColorMatrix in="SourceAlpha" type="matrix" values="0 0 0 0 0 0 0 0 0 0 0 0 0 0 0 0 0 0 127 0" result="hardAlpha"/>
<feOffset dy="4"/>
<feGaussianBlur stdDeviation="2"/>
<feComposite in2="hardAlpha" operator="out"/>
<feColorMatrix type="matrix" values="0 0 0 0 0 0 0 0 0 0 0 0 0 0 0 0 0 0 0.25 0"/>
<feBlend mode="normal" in2="BackgroundImageFix" result="effect1_dropShadow_103_17"/>
<feBlend mode="normal" in="SourceGraphic" in2="effect1_dropShadow_103_17" result="shape"/>
</filter>
<filter id="filter15_d_103_17" x="7" y="14" width="58" height="58" filterUnits="userSpaceOnUse" color-interpolation-filters="sRGB">
<feFlood flood-opacity="0" result="BackgroundImageFix"/>
<feColorMatrix in="SourceAlpha" type="matrix" values="0 0 0 0 0 0 0 0 0 0 0 0 0 0 0 0 0 0 127 0" result="hardAlpha"/>
<feOffset dy="4"/>
<feGaussianBlur stdDeviation="2"/>
<feComposite in2="hardAlpha" operator="out"/>
<feColorMatrix type="matrix" values="0 0 0 0 0 0 0 0 0 0 0 0 0 0 0 0 0 0 0.25 0"/>
<feBlend mode="normal" in2="BackgroundImageFix" result="effect1_dropShadow_103_17"/>
<feBlend mode="normal" in="SourceGraphic" in2="effect1_dropShadow_103_17" result="shape"/>
</filter>
<filter id="filter16_d_103_17" x="931" y="354" width="58" height="58" filterUnits="userSpaceOnUse" color-interpolation-filters="sRGB">
<feFlood flood-opacity="0" result="BackgroundImageFix"/>
<feColorMatrix in="SourceAlpha" type="matrix" values="0 0 0 0 0 0 0 0 0 0 0 0 0 0 0 0 0 0 127 0" result="hardAlpha"/>
<feOffset dy="4"/>
<feGaussianBlur stdDeviation="2"/>
<feComposite in2="hardAlpha" operator="out"/>
<feColorMatrix type="matrix" values="0 0 0 0 0 0 0 0 0 0 0 0 0 0 0 0 0 0 0.25 0"/>
<feBlend mode="normal" in2="BackgroundImageFix" result="effect1_dropShadow_103_17"/>
<feBlend mode="normal" in="SourceGraphic" in2="effect1_dropShadow_103_17" result="shape"/>
</filter>
<filter id="filter17_d_103_17" x="57" y="179" width="58" height="58" filterUnits="userSpaceOnUse" color-interpolation-filters="sRGB">
<feFlood flood-opacity="0" result="BackgroundImageFix"/>
<feColorMatrix in="SourceAlpha" type="matrix" values="0 0 0 0 0 0 0 0 0 0 0 0 0 0 0 0 0 0 127 0" result="hardAlpha"/>
<feOffset dy="4"/>
<feGaussianBlur stdDeviation="2"/>
<feComposite in2="hardAlpha" operator="out"/>
<feColorMatrix type="matrix" values="0 0 0 0 0 0 0 0 0 0 0 0 0 0 0 0 0 0 0.25 0"/>
<feBlend mode="normal" in2="BackgroundImageFix" result="effect1_dropShadow_103_17"/>
<feBlend mode="normal" in="SourceGraphic" in2="effect1_dropShadow_103_17" result="shape"/>
</filter>
</defs>
</svg>
