<svg width="1920" height="1080" viewBox="0 0 1920 1080" fill="none" xmlns="http://www.w3.org/2000/svg">
<rect width="1920" height="1080" fill="#BABABA"/>
<rect x="320.5" y="179.5" width="1279" height="719" rx="24.5" fill="white"/>
<rect x="320.5" y="179.5" width="1279" height="719" rx="24.5" stroke="black"/>
<rect x="320.5" y="179.5" width="1279" height="719" rx="24.5" stroke="black" stroke-opacity="0.2"/>
<path d="M320.5 204C320.5 190.469 331.469 179.5 345 179.5H1575C1588.53 179.5 1599.5 190.469 1599.5 204V278.5H320.5V204Z" fill="white" stroke="black"/>
<path d="M396.82 247H393.428V235.17H380.525V247H377.15V221.406H380.525V232.41H393.428V221.406H396.82V247ZM401.443 237.314C401.443 235.451 401.807 233.775 402.533 232.287C403.271 230.799 404.291 229.65 405.592 228.842C406.904 228.033 408.398 227.629 410.074 227.629C412.664 227.629 414.756 228.525 416.35 230.318C417.955 232.111 418.758 234.496 418.758 237.473V237.701C418.758 239.553 418.4 241.217 417.686 242.693C416.982 244.158 415.969 245.301 414.645 246.121C413.332 246.941 411.82 247.352 410.109 247.352C407.531 247.352 405.439 246.455 403.834 244.662C402.24 242.869 401.443 240.496 401.443 237.543V237.314ZM404.713 237.701C404.713 239.811 405.199 241.504 406.172 242.781C407.156 244.059 408.469 244.697 410.109 244.697C411.762 244.697 413.074 244.053 414.047 242.764C415.02 241.463 415.506 239.646 415.506 237.314C415.506 235.229 415.008 233.541 414.012 232.252C413.027 230.951 411.715 230.301 410.074 230.301C408.469 230.301 407.174 230.939 406.189 232.217C405.205 233.494 404.713 235.322 404.713 237.701ZM433.91 241.955C433.91 241.076 433.576 240.396 432.908 239.916C432.252 239.424 431.098 239.002 429.445 238.65C427.805 238.299 426.498 237.877 425.525 237.385C424.564 236.893 423.85 236.307 423.381 235.627C422.924 234.947 422.695 234.139 422.695 233.201C422.695 231.643 423.352 230.324 424.664 229.246C425.988 228.168 427.676 227.629 429.727 227.629C431.883 227.629 433.629 228.186 434.965 229.299C436.312 230.412 436.986 231.836 436.986 233.57H433.717C433.717 232.68 433.336 231.912 432.574 231.268C431.824 230.623 430.875 230.301 429.727 230.301C428.543 230.301 427.617 230.559 426.949 231.074C426.281 231.59 425.947 232.264 425.947 233.096C425.947 233.881 426.258 234.473 426.879 234.871C427.5 235.27 428.619 235.65 430.236 236.014C431.865 236.377 433.184 236.811 434.191 237.314C435.199 237.818 435.943 238.428 436.424 239.143C436.916 239.846 437.162 240.707 437.162 241.727C437.162 243.426 436.482 244.791 435.123 245.822C433.764 246.842 432 247.352 429.832 247.352C428.309 247.352 426.961 247.082 425.789 246.543C424.617 246.004 423.697 245.254 423.029 244.293C422.373 243.32 422.045 242.271 422.045 241.146H425.297C425.355 242.236 425.789 243.104 426.598 243.748C427.418 244.381 428.496 244.697 429.832 244.697C431.062 244.697 432.047 244.451 432.785 243.959C433.535 243.455 433.91 242.787 433.91 241.955ZM445.811 223.375V227.98H449.361V230.494H445.811V242.289C445.811 243.051 445.969 243.625 446.285 244.012C446.602 244.387 447.141 244.574 447.902 244.574C448.277 244.574 448.793 244.504 449.449 244.363V247C448.594 247.234 447.762 247.352 446.953 247.352C445.5 247.352 444.404 246.912 443.666 246.033C442.928 245.154 442.559 243.906 442.559 242.289V230.494H439.096V227.98H442.559V223.375H445.811ZM456.252 227.98L456.357 230.371C457.811 228.543 459.709 227.629 462.053 227.629C466.072 227.629 468.1 229.896 468.135 234.432V247H464.883V234.414C464.871 233.043 464.555 232.029 463.934 231.373C463.324 230.717 462.369 230.389 461.068 230.389C460.014 230.389 459.088 230.67 458.291 231.232C457.494 231.795 456.873 232.533 456.428 233.447V247H453.176V227.98H456.252ZM484.781 247C484.594 246.625 484.441 245.957 484.324 244.996C482.812 246.566 481.008 247.352 478.91 247.352C477.035 247.352 475.494 246.824 474.287 245.77C473.092 244.703 472.494 243.355 472.494 241.727C472.494 239.746 473.244 238.211 474.744 237.121C476.256 236.02 478.377 235.469 481.107 235.469H484.271V233.975C484.271 232.838 483.932 231.936 483.252 231.268C482.572 230.588 481.57 230.248 480.246 230.248C479.086 230.248 478.113 230.541 477.328 231.127C476.543 231.713 476.15 232.422 476.15 233.254H472.881C472.881 232.305 473.215 231.391 473.883 230.512C474.562 229.621 475.477 228.918 476.625 228.402C477.785 227.887 479.057 227.629 480.439 227.629C482.631 227.629 484.348 228.18 485.59 229.281C486.832 230.371 487.477 231.877 487.523 233.799V242.553C487.523 244.299 487.746 245.688 488.191 246.719V247H484.781ZM479.385 244.521C480.404 244.521 481.371 244.258 482.285 243.73C483.199 243.203 483.861 242.518 484.271 241.674V237.771H481.723C477.738 237.771 475.746 238.938 475.746 241.27C475.746 242.289 476.086 243.086 476.766 243.66C477.445 244.234 478.318 244.521 479.385 244.521ZM495.68 227.98L495.768 230.09C497.162 228.449 499.043 227.629 501.41 227.629C504.07 227.629 505.881 228.648 506.842 230.688C507.475 229.773 508.295 229.035 509.303 228.473C510.322 227.91 511.523 227.629 512.906 227.629C517.078 227.629 519.199 229.838 519.27 234.256V247H516.018V234.449C516.018 233.09 515.707 232.076 515.086 231.408C514.465 230.729 513.422 230.389 511.957 230.389C510.75 230.389 509.748 230.752 508.951 231.479C508.154 232.193 507.691 233.16 507.562 234.379V247H504.293V234.537C504.293 231.771 502.939 230.389 500.232 230.389C498.1 230.389 496.641 231.297 495.855 233.113V247H492.604V227.98H495.68ZM532.084 247.352C529.506 247.352 527.408 246.508 525.791 244.82C524.174 243.121 523.365 240.854 523.365 238.018V237.42C523.365 235.533 523.723 233.852 524.438 232.375C525.164 230.887 526.172 229.727 527.461 228.895C528.762 228.051 530.168 227.629 531.68 227.629C534.152 227.629 536.074 228.443 537.445 230.072C538.816 231.701 539.502 234.033 539.502 237.068V238.422H526.617C526.664 240.297 527.209 241.814 528.252 242.975C529.307 244.123 530.643 244.697 532.26 244.697C533.408 244.697 534.381 244.463 535.178 243.994C535.975 243.525 536.672 242.904 537.27 242.131L539.256 243.678C537.662 246.127 535.271 247.352 532.084 247.352ZM531.68 230.301C530.367 230.301 529.266 230.781 528.375 231.742C527.484 232.691 526.934 234.027 526.723 235.75H536.25V235.504C536.156 233.852 535.711 232.574 534.914 231.672C534.117 230.758 533.039 230.301 531.68 230.301Z" fill="black"/>
<path d="M902.951 246H899.682V224.326L893.125 226.734V223.781L902.441 220.283H902.951V246ZM929.248 246H912.479V243.662L921.338 233.818C922.65 232.33 923.553 231.123 924.045 230.197C924.549 229.26 924.801 228.293 924.801 227.297C924.801 225.961 924.396 224.865 923.588 224.01C922.779 223.154 921.701 222.727 920.354 222.727C918.736 222.727 917.477 223.189 916.574 224.115C915.684 225.029 915.238 226.307 915.238 227.947H911.986C911.986 225.592 912.742 223.688 914.254 222.234C915.777 220.781 917.811 220.055 920.354 220.055C922.732 220.055 924.613 220.682 925.996 221.936C927.379 223.178 928.07 224.836 928.07 226.91C928.07 229.43 926.465 232.43 923.254 235.91L916.398 243.346H929.248V246ZM932.922 244.295C932.922 243.732 933.086 243.264 933.414 242.889C933.754 242.514 934.258 242.326 934.926 242.326C935.594 242.326 936.098 242.514 936.438 242.889C936.789 243.264 936.965 243.732 936.965 244.295C936.965 244.834 936.789 245.285 936.438 245.648C936.098 246.012 935.594 246.193 934.926 246.193C934.258 246.193 933.754 246.012 933.414 245.648C933.086 245.285 932.922 244.834 932.922 244.295ZM932.939 228.773C932.939 228.211 933.104 227.742 933.432 227.367C933.771 226.992 934.275 226.805 934.943 226.805C935.611 226.805 936.115 226.992 936.455 227.367C936.807 227.742 936.982 228.211 936.982 228.773C936.982 229.312 936.807 229.764 936.455 230.127C936.115 230.49 935.611 230.672 934.943 230.672C934.275 230.672 933.771 230.49 933.432 230.127C933.104 229.764 932.939 229.312 932.939 228.773ZM957.461 235.084C957.461 238.893 956.811 241.723 955.51 243.574C954.209 245.426 952.176 246.352 949.41 246.352C946.68 246.352 944.658 245.449 943.346 243.645C942.033 241.828 941.354 239.121 941.307 235.523V231.182C941.307 227.42 941.957 224.625 943.258 222.797C944.559 220.969 946.598 220.055 949.375 220.055C952.129 220.055 954.156 220.939 955.457 222.709C956.758 224.467 957.426 227.186 957.461 230.865V235.084ZM954.209 230.637C954.209 227.883 953.822 225.879 953.049 224.625C952.275 223.359 951.051 222.727 949.375 222.727C947.711 222.727 946.498 223.354 945.736 224.607C944.975 225.861 944.582 227.789 944.559 230.391V235.594C944.559 238.359 944.957 240.404 945.754 241.729C946.562 243.041 947.781 243.697 949.41 243.697C951.016 243.697 952.205 243.076 952.979 241.834C953.764 240.592 954.174 238.635 954.209 235.963V230.637ZM977.676 235.084C977.676 238.893 977.025 241.723 975.725 243.574C974.424 245.426 972.391 246.352 969.625 246.352C966.895 246.352 964.873 245.449 963.561 243.645C962.248 241.828 961.568 239.121 961.521 235.523V231.182C961.521 227.42 962.172 224.625 963.473 222.797C964.773 220.969 966.812 220.055 969.59 220.055C972.344 220.055 974.371 220.939 975.672 222.709C976.973 224.467 977.641 227.186 977.676 230.865V235.084ZM974.424 230.637C974.424 227.883 974.037 225.879 973.264 224.625C972.49 223.359 971.266 222.727 969.59 222.727C967.926 222.727 966.713 223.354 965.951 224.607C965.189 225.861 964.797 227.789 964.773 230.391V235.594C964.773 238.359 965.172 240.404 965.969 241.729C966.777 243.041 967.996 243.697 969.625 243.697C971.23 243.697 972.42 243.076 973.193 241.834C973.979 240.592 974.389 238.635 974.424 235.963V230.637ZM982.07 244.295C982.07 243.732 982.234 243.264 982.562 242.889C982.902 242.514 983.406 242.326 984.074 242.326C984.742 242.326 985.246 242.514 985.586 242.889C985.938 243.264 986.113 243.732 986.113 244.295C986.113 244.834 985.938 245.285 985.586 245.648C985.246 246.012 984.742 246.193 984.074 246.193C983.406 246.193 982.902 246.012 982.562 245.648C982.234 245.285 982.07 244.834 982.07 244.295ZM982.088 228.773C982.088 228.211 982.252 227.742 982.58 227.367C982.92 226.992 983.424 226.805 984.092 226.805C984.76 226.805 985.264 226.992 985.604 227.367C985.955 227.742 986.131 228.211 986.131 228.773C986.131 229.312 985.955 229.764 985.604 230.127C985.264 230.49 984.76 230.672 984.092 230.672C983.424 230.672 982.92 230.49 982.58 230.127C982.252 229.764 982.088 229.312 982.088 228.773ZM1006.61 235.084C1006.61 238.893 1005.96 241.723 1004.66 243.574C1003.36 245.426 1001.32 246.352 998.559 246.352C995.828 246.352 993.807 245.449 992.494 243.645C991.182 241.828 990.502 239.121 990.455 235.523V231.182C990.455 227.42 991.105 224.625 992.406 222.797C993.707 220.969 995.746 220.055 998.523 220.055C1001.28 220.055 1003.3 220.939 1004.61 222.709C1005.91 224.467 1006.57 227.186 1006.61 230.865V235.084ZM1003.36 230.637C1003.36 227.883 1002.97 225.879 1002.2 224.625C1001.42 223.359 1000.2 222.727 998.523 222.727C996.859 222.727 995.646 223.354 994.885 224.607C994.123 225.861 993.73 227.789 993.707 230.391V235.594C993.707 238.359 994.105 240.404 994.902 241.729C995.711 243.041 996.93 243.697 998.559 243.697C1000.16 243.697 1001.35 243.076 1002.13 241.834C1002.91 240.592 1003.32 238.635 1003.36 235.963V230.637ZM1026.82 235.084C1026.82 238.893 1026.17 241.723 1024.87 243.574C1023.57 245.426 1021.54 246.352 1018.77 246.352C1016.04 246.352 1014.02 245.449 1012.71 243.645C1011.4 241.828 1010.72 239.121 1010.67 235.523V231.182C1010.67 227.42 1011.32 224.625 1012.62 222.797C1013.92 220.969 1015.96 220.055 1018.74 220.055C1021.49 220.055 1023.52 220.939 1024.82 222.709C1026.12 224.467 1026.79 227.186 1026.82 230.865V235.084ZM1023.57 230.637C1023.57 227.883 1023.19 225.879 1022.41 224.625C1021.64 223.359 1020.41 222.727 1018.74 222.727C1017.07 222.727 1015.86 223.354 1015.1 224.607C1014.34 225.861 1013.95 227.789 1013.92 230.391V235.594C1013.92 238.359 1014.32 240.404 1015.12 241.729C1015.93 243.041 1017.14 243.697 1018.77 243.697C1020.38 243.697 1021.57 243.076 1022.34 241.834C1023.13 240.592 1023.54 238.635 1023.57 235.963V230.637Z" fill="black"/>
<path d="M1535.95 231.072C1536.02 230.472 1536.07 229.848 1536.07 229.2C1536.07 228.552 1536.02 227.928 1535.92 227.328L1539.98 224.16C1540.34 223.872 1540.43 223.344 1540.22 222.936L1536.38 216.288C1536.14 215.856 1535.63 215.712 1535.2 215.856L1530.43 217.776C1529.42 217.008 1528.36 216.384 1527.19 215.904L1526.47 210.816C1526.39 210.336 1525.99 210 1525.51 210H1517.83C1517.35 210 1516.96 210.336 1516.89 210.816L1516.17 215.904C1514.99 216.384 1513.91 217.032 1512.93 217.776L1508.15 215.856C1507.72 215.688 1507.22 215.856 1506.98 216.288L1503.14 222.936C1502.9 223.368 1502.99 223.872 1503.38 224.16L1507.43 227.328C1507.34 227.928 1507.27 228.576 1507.27 229.2C1507.27 229.824 1507.31 230.472 1507.41 231.072L1503.35 234.24C1502.99 234.528 1502.9 235.056 1503.11 235.464L1506.95 242.112C1507.19 242.544 1507.7 242.688 1508.13 242.544L1512.91 240.624C1513.91 241.392 1514.97 242.016 1516.15 242.496L1516.87 247.584C1516.96 248.064 1517.35 248.4 1517.83 248.4H1525.51C1525.99 248.4 1526.39 248.064 1526.44 247.584L1527.16 242.496C1528.34 242.016 1529.42 241.368 1530.4 240.624L1535.18 242.544C1535.61 242.712 1536.11 242.544 1536.35 242.112L1540.19 235.464C1540.43 235.032 1540.34 234.528 1539.95 234.24L1535.95 231.072ZM1521.67 236.4C1517.71 236.4 1514.47 233.16 1514.47 229.2C1514.47 225.24 1517.71 222 1521.67 222C1525.63 222 1528.87 225.24 1528.87 229.2C1528.87 233.16 1525.63 236.4 1521.67 236.4Z" fill="black"/>
<rect x="321" y="279" width="1278" height="200" fill="#C4C4C4"/>
<rect x="1353.5" y="529.5" width="140" height="50" rx="14.5" fill="white" stroke="black"/>
<path d="M1386.57 556.232C1386.31 558.488 1385.47 560.231 1384.07 561.462C1382.67 562.683 1380.81 563.293 1378.49 563.293C1375.97 563.293 1373.95 562.39 1372.42 560.583C1370.91 558.776 1370.15 556.359 1370.15 553.332V551.281C1370.15 549.299 1370.5 547.556 1371.21 546.052C1371.92 544.548 1372.93 543.396 1374.22 542.595C1375.52 541.784 1377.03 541.379 1378.74 541.379C1381 541.379 1382.82 542.014 1384.19 543.283C1385.55 544.543 1386.35 546.291 1386.57 548.527H1383.75C1383.5 546.828 1382.97 545.598 1382.15 544.836C1381.34 544.074 1380.2 543.693 1378.74 543.693C1376.94 543.693 1375.53 544.357 1374.5 545.686C1373.49 547.014 1372.98 548.903 1372.98 551.354V553.42C1372.98 555.734 1373.46 557.575 1374.43 558.942C1375.4 560.31 1376.75 560.993 1378.49 560.993C1380.05 560.993 1381.25 560.642 1382.08 559.938C1382.92 559.226 1383.47 557.99 1383.75 556.232H1386.57ZM1389.28 554.929C1389.28 553.376 1389.59 551.979 1390.19 550.739C1390.81 549.499 1391.66 548.542 1392.74 547.868C1393.83 547.194 1395.08 546.857 1396.48 546.857C1398.63 546.857 1400.38 547.604 1401.71 549.099C1403.04 550.593 1403.71 552.58 1403.71 555.061V555.251C1403.71 556.794 1403.41 558.181 1402.82 559.411C1402.23 560.632 1401.39 561.584 1400.28 562.268C1399.19 562.951 1397.93 563.293 1396.5 563.293C1394.36 563.293 1392.61 562.546 1391.28 561.052C1389.95 559.558 1389.28 557.58 1389.28 555.119V554.929ZM1392.01 555.251C1392.01 557.009 1392.41 558.42 1393.22 559.484C1394.04 560.549 1395.14 561.081 1396.5 561.081C1397.88 561.081 1398.98 560.544 1399.79 559.47C1400.6 558.386 1401 556.872 1401 554.929C1401 553.19 1400.59 551.784 1399.76 550.71C1398.94 549.626 1397.84 549.084 1396.48 549.084C1395.14 549.084 1394.06 549.616 1393.24 550.681C1392.42 551.745 1392.01 553.269 1392.01 555.251ZM1409.67 547.15L1409.76 549.143C1410.97 547.619 1412.55 546.857 1414.51 546.857C1417.86 546.857 1419.55 548.747 1419.58 552.526V563H1416.87V552.512C1416.86 551.369 1416.59 550.524 1416.08 549.978C1415.57 549.431 1414.77 549.157 1413.69 549.157C1412.81 549.157 1412.04 549.392 1411.37 549.86C1410.71 550.329 1410.19 550.944 1409.82 551.706V563H1407.11V547.15H1409.67ZM1426.23 547.15L1426.31 549.143C1427.53 547.619 1429.11 546.857 1431.06 546.857C1434.41 546.857 1436.1 548.747 1436.13 552.526V563H1433.42V552.512C1433.41 551.369 1433.15 550.524 1432.63 549.978C1432.12 549.431 1431.32 549.157 1430.24 549.157C1429.36 549.157 1428.59 549.392 1427.93 549.86C1427.26 550.329 1426.74 550.944 1426.37 551.706V563H1423.66V547.15H1426.23ZM1446.79 563.293C1444.64 563.293 1442.9 562.59 1441.55 561.184C1440.2 559.768 1439.53 557.878 1439.53 555.515V555.017C1439.53 553.444 1439.83 552.043 1440.42 550.812C1441.03 549.572 1441.87 548.605 1442.94 547.912C1444.02 547.209 1445.2 546.857 1446.46 546.857C1448.52 546.857 1450.12 547.536 1451.26 548.894C1452.4 550.251 1452.97 552.194 1452.97 554.724V555.852H1442.24C1442.28 557.414 1442.73 558.679 1443.6 559.646C1444.48 560.603 1445.59 561.081 1446.94 561.081C1447.9 561.081 1448.71 560.886 1449.37 560.495C1450.04 560.104 1450.62 559.587 1451.11 558.942L1452.77 560.231C1451.44 562.272 1449.45 563.293 1446.79 563.293ZM1446.46 549.084C1445.36 549.084 1444.44 549.484 1443.7 550.285C1442.96 551.076 1442.5 552.189 1442.33 553.625H1450.26V553.42C1450.19 552.043 1449.82 550.979 1449.15 550.227C1448.49 549.465 1447.59 549.084 1446.46 549.084ZM1462.48 561.081C1463.45 561.081 1464.29 560.788 1465.02 560.202C1465.74 559.616 1466.14 558.884 1466.22 558.005H1468.78C1468.73 558.913 1468.42 559.777 1467.84 560.598C1467.27 561.418 1466.5 562.072 1465.53 562.561C1464.57 563.049 1463.56 563.293 1462.48 563.293C1460.32 563.293 1458.6 562.575 1457.33 561.14C1456.06 559.694 1455.42 557.722 1455.42 555.222V554.768C1455.42 553.225 1455.7 551.853 1456.27 550.651C1456.84 549.45 1457.65 548.518 1458.7 547.854C1459.77 547.189 1461.02 546.857 1462.47 546.857C1464.24 546.857 1465.72 547.39 1466.89 548.454C1468.07 549.519 1468.7 550.9 1468.78 552.6H1466.22C1466.14 551.574 1465.75 550.734 1465.04 550.08C1464.35 549.416 1463.49 549.084 1462.47 549.084C1461.09 549.084 1460.02 549.582 1459.26 550.578C1458.51 551.564 1458.13 552.995 1458.13 554.87V555.383C1458.13 557.209 1458.51 558.615 1459.26 559.602C1460.01 560.588 1461.08 561.081 1462.48 561.081ZM1475.5 543.312V547.15H1478.46V549.245H1475.5V559.074C1475.5 559.709 1475.64 560.188 1475.9 560.51C1476.16 560.822 1476.61 560.979 1477.25 560.979C1477.56 560.979 1477.99 560.92 1478.54 560.803V563C1477.82 563.195 1477.13 563.293 1476.46 563.293C1475.25 563.293 1474.33 562.927 1473.72 562.194C1473.1 561.462 1472.79 560.422 1472.79 559.074V549.245H1469.91V547.15H1472.79V543.312H1475.5Z" fill="black"/>
<rect x="569.5" y="529.5" width="758" height="50" rx="14.5" stroke="black"/>
<path d="M1278.5 529.5H1313C1321.01 529.5 1327.5 535.992 1327.5 544V565C1327.5 573.008 1321.01 579.5 1313 579.5H1278.5V529.5Z" stroke="black"/>
<path d="M1293.82 548L1303 557.16L1312.18 548L1315 550.82L1303 562.82L1291 550.82L1293.82 548Z" fill="black"/>
<rect x="371" y="529.5" width="173" height="50" rx="14.5" stroke="black"/>
<path d="M399.248 553.372H394.238V562H391.411V540.672H398.472C400.874 540.672 402.72 541.219 404.009 542.312C405.308 543.406 405.957 544.998 405.957 547.088C405.957 548.416 405.596 549.573 404.873 550.56C404.16 551.546 403.164 552.283 401.885 552.771L406.895 561.824V562H403.877L399.248 553.372ZM394.238 551.072H398.56C399.956 551.072 401.064 550.711 401.885 549.988C402.715 549.266 403.13 548.299 403.13 547.088C403.13 545.77 402.734 544.759 401.943 544.056C401.162 543.353 400.029 542.996 398.545 542.986H394.238V551.072ZM409.912 562V540.672H415.933C417.788 540.672 419.429 541.082 420.854 541.902C422.28 542.723 423.379 543.89 424.15 545.403C424.932 546.917 425.327 548.655 425.337 550.618V551.98C425.337 553.992 424.946 555.755 424.165 557.269C423.394 558.782 422.285 559.944 420.84 560.755C419.404 561.565 417.729 561.98 415.815 562H409.912ZM412.725 542.986V559.7H415.684C417.852 559.7 419.536 559.026 420.737 557.679C421.948 556.331 422.554 554.412 422.554 551.922V550.677C422.554 548.255 421.982 546.375 420.84 545.037C419.707 543.689 418.096 543.006 416.006 542.986H412.725ZM432.412 553.65V562H429.6V540.672H437.466C439.8 540.672 441.626 541.268 442.944 542.459C444.272 543.65 444.937 545.228 444.937 547.19C444.937 549.261 444.287 550.857 442.988 551.98C441.699 553.094 439.849 553.65 437.437 553.65H432.412ZM432.412 551.351H437.466C438.97 551.351 440.122 550.999 440.923 550.296C441.724 549.583 442.124 548.558 442.124 547.22C442.124 545.95 441.724 544.935 440.923 544.173C440.122 543.411 439.023 543.016 437.627 542.986H432.412V551.351Z" fill="black"/>
<path d="M495.5 529.5H530C538.008 529.5 544.5 535.992 544.5 544V565C544.5 573.008 538.008 579.5 530 579.5H495.5V529.5Z" stroke="black"/>
<path d="M510.82 548L520 557.16L529.18 548L532 550.82L520 562.82L508 550.82L510.82 548Z" fill="black"/>
<rect x="1207.5" y="605.5" width="286" height="50" rx="14.5" fill="white" stroke="black"/>
<path d="M1232.29 633.232C1232.03 635.488 1231.19 637.231 1229.79 638.462C1228.39 639.683 1226.53 640.293 1224.2 640.293C1221.68 640.293 1219.66 639.39 1218.14 637.583C1216.63 635.776 1215.87 633.359 1215.87 630.332V628.281C1215.87 626.299 1216.22 624.556 1216.92 623.052C1217.64 621.548 1218.64 620.396 1219.94 619.595C1221.24 618.784 1222.74 618.379 1224.45 618.379C1226.72 618.379 1228.54 619.014 1229.9 620.283C1231.27 621.543 1232.07 623.291 1232.29 625.527H1229.46C1229.22 623.828 1228.69 622.598 1227.87 621.836C1227.06 621.074 1225.92 620.693 1224.45 620.693C1222.66 620.693 1221.25 621.357 1220.22 622.686C1219.2 624.014 1218.7 625.903 1218.7 628.354V630.42C1218.7 632.734 1219.18 634.575 1220.15 635.942C1221.11 637.31 1222.47 637.993 1224.2 637.993C1225.77 637.993 1226.96 637.642 1227.79 636.938C1228.63 636.226 1229.19 634.99 1229.46 633.232H1232.29ZM1235 631.929C1235 630.376 1235.3 628.979 1235.91 627.739C1236.52 626.499 1237.37 625.542 1238.46 624.868C1239.55 624.194 1240.8 623.857 1242.19 623.857C1244.35 623.857 1246.09 624.604 1247.42 626.099C1248.76 627.593 1249.43 629.58 1249.43 632.061V632.251C1249.43 633.794 1249.13 635.181 1248.54 636.411C1247.95 637.632 1247.1 638.584 1246 639.268C1244.91 639.951 1243.65 640.293 1242.22 640.293C1240.07 640.293 1238.33 639.546 1236.99 638.052C1235.66 636.558 1235 634.58 1235 632.119V631.929ZM1237.72 632.251C1237.72 634.009 1238.13 635.42 1238.94 636.484C1239.76 637.549 1240.85 638.081 1242.22 638.081C1243.6 638.081 1244.69 637.544 1245.5 636.47C1246.31 635.386 1246.72 633.872 1246.72 631.929C1246.72 630.19 1246.3 628.784 1245.47 627.71C1244.65 626.626 1243.56 626.084 1242.19 626.084C1240.85 626.084 1239.78 626.616 1238.96 627.681C1238.13 628.745 1237.72 630.269 1237.72 632.251ZM1255.39 624.15L1255.48 626.143C1256.69 624.619 1258.27 623.857 1260.22 623.857C1263.57 623.857 1265.26 625.747 1265.29 629.526V640H1262.58V629.512C1262.57 628.369 1262.31 627.524 1261.79 626.978C1261.28 626.431 1260.49 626.157 1259.4 626.157C1258.53 626.157 1257.75 626.392 1257.09 626.86C1256.43 627.329 1255.91 627.944 1255.54 628.706V640H1252.83V624.15H1255.39ZM1271.94 624.15L1272.03 626.143C1273.24 624.619 1274.82 623.857 1276.78 623.857C1280.13 623.857 1281.82 625.747 1281.85 629.526V640H1279.14V629.512C1279.13 628.369 1278.86 627.524 1278.34 626.978C1277.84 626.431 1277.04 626.157 1275.96 626.157C1275.08 626.157 1274.31 626.392 1273.64 626.86C1272.98 627.329 1272.46 627.944 1272.09 628.706V640H1269.38V624.15H1271.94ZM1292.51 640.293C1290.36 640.293 1288.61 639.59 1287.27 638.184C1285.92 636.768 1285.24 634.878 1285.24 632.515V632.017C1285.24 630.444 1285.54 629.043 1286.14 627.812C1286.74 626.572 1287.58 625.605 1288.66 624.912C1289.74 624.209 1290.91 623.857 1292.17 623.857C1294.23 623.857 1295.83 624.536 1296.98 625.894C1298.12 627.251 1298.69 629.194 1298.69 631.724V632.852H1287.95C1287.99 634.414 1288.45 635.679 1289.32 636.646C1290.2 637.603 1291.31 638.081 1292.66 638.081C1293.61 638.081 1294.42 637.886 1295.09 637.495C1295.75 637.104 1296.33 636.587 1296.83 635.942L1298.49 637.231C1297.16 639.272 1295.17 640.293 1292.51 640.293ZM1292.17 626.084C1291.08 626.084 1290.16 626.484 1289.42 627.285C1288.68 628.076 1288.22 629.189 1288.04 630.625H1295.98V630.42C1295.9 629.043 1295.53 627.979 1294.87 627.227C1294.2 626.465 1293.31 626.084 1292.17 626.084ZM1308.2 638.081C1309.17 638.081 1310.01 637.788 1310.73 637.202C1311.46 636.616 1311.86 635.884 1311.93 635.005H1314.5C1314.45 635.913 1314.14 636.777 1313.56 637.598C1312.98 638.418 1312.21 639.072 1311.25 639.561C1310.29 640.049 1309.27 640.293 1308.2 640.293C1306.04 640.293 1304.32 639.575 1303.04 638.14C1301.77 636.694 1301.14 634.722 1301.14 632.222V631.768C1301.14 630.225 1301.42 628.853 1301.99 627.651C1302.55 626.45 1303.36 625.518 1304.42 624.854C1305.48 624.189 1306.74 623.857 1308.18 623.857C1309.96 623.857 1311.44 624.39 1312.61 625.454C1313.79 626.519 1314.42 627.9 1314.5 629.6H1311.93C1311.86 628.574 1311.46 627.734 1310.76 627.08C1310.07 626.416 1309.21 626.084 1308.18 626.084C1306.81 626.084 1305.74 626.582 1304.98 627.578C1304.22 628.564 1303.85 629.995 1303.85 631.87V632.383C1303.85 634.209 1304.22 635.615 1304.98 636.602C1305.73 637.588 1306.8 638.081 1308.2 638.081ZM1321.22 620.312V624.15H1324.18V626.245H1321.22V636.074C1321.22 636.709 1321.35 637.188 1321.62 637.51C1321.88 637.822 1322.33 637.979 1322.96 637.979C1323.28 637.979 1323.71 637.92 1324.25 637.803V640C1323.54 640.195 1322.85 640.293 1322.17 640.293C1320.96 640.293 1320.05 639.927 1319.43 639.194C1318.82 638.462 1318.51 637.422 1318.51 636.074V626.245H1315.62V624.15H1318.51V620.312H1321.22ZM1330.3 640H1327.59V624.15H1330.3V640ZM1327.37 619.946C1327.37 619.507 1327.5 619.136 1327.77 618.833C1328.04 618.53 1328.44 618.379 1328.97 618.379C1329.5 618.379 1329.9 618.53 1330.17 618.833C1330.44 619.136 1330.58 619.507 1330.58 619.946C1330.58 620.386 1330.44 620.752 1330.17 621.045C1329.9 621.338 1329.5 621.484 1328.97 621.484C1328.44 621.484 1328.04 621.338 1327.77 621.045C1327.5 620.752 1327.37 620.386 1327.37 619.946ZM1333.94 631.929C1333.94 630.376 1334.24 628.979 1334.84 627.739C1335.46 626.499 1336.31 625.542 1337.39 624.868C1338.49 624.194 1339.73 623.857 1341.13 623.857C1343.29 623.857 1345.03 624.604 1346.36 626.099C1347.7 627.593 1348.36 629.58 1348.36 632.061V632.251C1348.36 633.794 1348.07 635.181 1347.47 636.411C1346.88 637.632 1346.04 638.584 1344.94 639.268C1343.84 639.951 1342.58 640.293 1341.16 640.293C1339.01 640.293 1337.27 639.546 1335.93 638.052C1334.6 636.558 1333.94 634.58 1333.94 632.119V631.929ZM1336.66 632.251C1336.66 634.009 1337.07 635.42 1337.88 636.484C1338.7 637.549 1339.79 638.081 1341.16 638.081C1342.53 638.081 1343.63 637.544 1344.44 636.47C1345.25 635.386 1345.65 633.872 1345.65 631.929C1345.65 630.19 1345.24 628.784 1344.41 627.71C1343.59 626.626 1342.5 626.084 1341.13 626.084C1339.79 626.084 1338.71 626.616 1337.89 627.681C1337.07 628.745 1336.66 630.269 1336.66 632.251ZM1354.33 624.15L1354.41 626.143C1355.62 624.619 1357.21 623.857 1359.16 623.857C1362.51 623.857 1364.2 625.747 1364.23 629.526V640H1361.52V629.512C1361.51 628.369 1361.25 627.524 1360.73 626.978C1360.22 626.431 1359.42 626.157 1358.34 626.157C1357.46 626.157 1356.69 626.392 1356.03 626.86C1355.36 627.329 1354.84 627.944 1354.47 628.706V640H1351.76V624.15H1354.33ZM1384.99 635.796C1384.99 635.063 1384.71 634.497 1384.15 634.097C1383.6 633.687 1382.64 633.335 1381.26 633.042C1379.9 632.749 1378.81 632.397 1378 631.987C1377.2 631.577 1376.6 631.089 1376.21 630.522C1375.83 629.956 1375.64 629.282 1375.64 628.501C1375.64 627.202 1376.19 626.104 1377.28 625.205C1378.38 624.307 1379.79 623.857 1381.5 623.857C1383.3 623.857 1384.75 624.321 1385.86 625.249C1386.99 626.177 1387.55 627.363 1387.55 628.809H1384.82C1384.82 628.066 1384.51 627.427 1383.87 626.89C1383.25 626.353 1382.46 626.084 1381.5 626.084C1380.51 626.084 1379.74 626.299 1379.18 626.729C1378.63 627.158 1378.35 627.72 1378.35 628.413C1378.35 629.067 1378.61 629.561 1379.13 629.893C1379.64 630.225 1380.58 630.542 1381.92 630.845C1383.28 631.147 1384.38 631.509 1385.22 631.929C1386.06 632.349 1386.68 632.856 1387.08 633.452C1387.49 634.038 1387.7 634.756 1387.7 635.605C1387.7 637.021 1387.13 638.159 1386 639.019C1384.86 639.868 1383.39 640.293 1381.59 640.293C1380.32 640.293 1379.19 640.068 1378.22 639.619C1377.24 639.17 1376.47 638.545 1375.92 637.744C1375.37 636.934 1375.1 636.06 1375.1 635.122H1377.81C1377.86 636.03 1378.22 636.753 1378.89 637.29C1379.58 637.817 1380.47 638.081 1381.59 638.081C1382.61 638.081 1383.43 637.876 1384.05 637.466C1384.67 637.046 1384.99 636.489 1384.99 635.796ZM1397.8 640.293C1395.65 640.293 1393.91 639.59 1392.56 638.184C1391.21 636.768 1390.54 634.878 1390.54 632.515V632.017C1390.54 630.444 1390.83 629.043 1391.43 627.812C1392.04 626.572 1392.88 625.605 1393.95 624.912C1395.03 624.209 1396.21 623.857 1397.47 623.857C1399.53 623.857 1401.13 624.536 1402.27 625.894C1403.41 627.251 1403.98 629.194 1403.98 631.724V632.852H1393.25C1393.29 634.414 1393.74 635.679 1394.61 636.646C1395.49 637.603 1396.6 638.081 1397.95 638.081C1398.91 638.081 1399.72 637.886 1400.38 637.495C1401.04 637.104 1401.63 636.587 1402.12 635.942L1403.78 637.231C1402.45 639.272 1400.46 640.293 1397.8 640.293ZM1397.47 626.084C1396.37 626.084 1395.45 626.484 1394.71 627.285C1393.97 628.076 1393.51 629.189 1393.33 630.625H1401.27V630.42C1401.2 629.043 1400.83 627.979 1400.16 627.227C1399.5 626.465 1398.6 626.084 1397.47 626.084ZM1410.81 620.312V624.15H1413.77V626.245H1410.81V636.074C1410.81 636.709 1410.94 637.188 1411.21 637.51C1411.47 637.822 1411.92 637.979 1412.55 637.979C1412.87 637.979 1413.3 637.92 1413.84 637.803V640C1413.13 640.195 1412.44 640.293 1411.76 640.293C1410.55 640.293 1409.64 639.927 1409.02 639.194C1408.41 638.462 1408.1 637.422 1408.1 636.074V626.245H1405.21V624.15H1408.1V620.312H1410.81ZM1420.62 620.312V624.15H1423.58V626.245H1420.62V636.074C1420.62 636.709 1420.76 637.188 1421.02 637.51C1421.28 637.822 1421.73 637.979 1422.37 637.979C1422.68 637.979 1423.11 637.92 1423.66 637.803V640C1422.94 640.195 1422.25 640.293 1421.58 640.293C1420.37 640.293 1419.45 639.927 1418.84 639.194C1418.22 638.462 1417.92 637.422 1417.92 636.074V626.245H1415.03V624.15H1417.92V620.312H1420.62ZM1429.71 640H1427V624.15H1429.71V640ZM1426.78 619.946C1426.78 619.507 1426.91 619.136 1427.17 618.833C1427.45 618.53 1427.85 618.379 1428.37 618.379C1428.9 618.379 1429.3 618.53 1429.58 618.833C1429.85 619.136 1429.99 619.507 1429.99 619.946C1429.99 620.386 1429.85 620.752 1429.58 621.045C1429.3 621.338 1428.9 621.484 1428.37 621.484C1427.85 621.484 1427.45 621.338 1427.17 621.045C1426.91 620.752 1426.78 620.386 1426.78 619.946ZM1436.62 624.15L1436.71 626.143C1437.92 624.619 1439.5 623.857 1441.46 623.857C1444.8 623.857 1446.49 625.747 1446.52 629.526V640H1443.81V629.512C1443.8 628.369 1443.54 627.524 1443.02 626.978C1442.51 626.431 1441.72 626.157 1440.63 626.157C1439.76 626.157 1438.98 626.392 1438.32 626.86C1437.66 627.329 1437.14 627.944 1436.77 628.706V640H1434.06V624.15H1436.62ZM1449.97 631.943C1449.97 629.473 1450.54 627.51 1451.68 626.055C1452.82 624.59 1454.34 623.857 1456.22 623.857C1458.15 623.857 1459.66 624.541 1460.75 625.908L1460.88 624.15H1463.35V639.619C1463.35 641.67 1462.74 643.286 1461.52 644.468C1460.31 645.649 1458.68 646.24 1456.63 646.24C1455.49 646.24 1454.37 645.996 1453.28 645.508C1452.18 645.02 1451.35 644.351 1450.77 643.501L1452.18 641.875C1453.34 643.311 1454.76 644.028 1456.44 644.028C1457.76 644.028 1458.78 643.657 1459.52 642.915C1460.26 642.173 1460.63 641.128 1460.63 639.78V638.418C1459.55 639.668 1458.07 640.293 1456.19 640.293C1454.34 640.293 1452.83 639.546 1451.68 638.052C1450.54 636.558 1449.97 634.521 1449.97 631.943ZM1452.69 632.251C1452.69 634.038 1453.06 635.444 1453.79 636.47C1454.52 637.485 1455.55 637.993 1456.87 637.993C1458.57 637.993 1459.83 637.217 1460.63 635.664V628.428C1459.8 626.914 1458.55 626.157 1456.89 626.157C1455.58 626.157 1454.55 626.67 1453.8 627.695C1453.06 628.721 1452.69 630.239 1452.69 632.251ZM1476.68 635.796C1476.68 635.063 1476.41 634.497 1475.85 634.097C1475.3 633.687 1474.34 633.335 1472.96 633.042C1471.6 632.749 1470.51 632.397 1469.7 631.987C1468.9 631.577 1468.3 631.089 1467.91 630.522C1467.53 629.956 1467.34 629.282 1467.34 628.501C1467.34 627.202 1467.89 626.104 1468.98 625.205C1470.08 624.307 1471.49 623.857 1473.2 623.857C1475 623.857 1476.45 624.321 1477.56 625.249C1478.69 626.177 1479.25 627.363 1479.25 628.809H1476.52C1476.52 628.066 1476.21 627.427 1475.57 626.89C1474.95 626.353 1474.16 626.084 1473.2 626.084C1472.21 626.084 1471.44 626.299 1470.88 626.729C1470.33 627.158 1470.05 627.72 1470.05 628.413C1470.05 629.067 1470.31 629.561 1470.83 629.893C1471.34 630.225 1472.28 630.542 1473.62 630.845C1474.98 631.147 1476.08 631.509 1476.92 631.929C1477.76 632.349 1478.38 632.856 1478.78 633.452C1479.19 634.038 1479.39 634.756 1479.39 635.605C1479.39 637.021 1478.83 638.159 1477.7 639.019C1476.56 639.868 1475.09 640.293 1473.29 640.293C1472.02 640.293 1470.89 640.068 1469.92 639.619C1468.94 639.17 1468.17 638.545 1467.62 637.744C1467.07 636.934 1466.8 636.06 1466.8 635.122H1469.51C1469.56 636.03 1469.92 636.753 1470.59 637.29C1471.27 637.817 1472.17 638.081 1473.29 638.081C1474.31 638.081 1475.13 637.876 1475.75 637.466C1476.37 637.046 1476.68 636.489 1476.68 635.796Z" fill="black"/>
</svg>
