<svg width="1920" height="1080" viewBox="0 0 1920 1080" fill="none" xmlns="http://www.w3.org/2000/svg">
<rect width="1920" height="1080" fill="#BABABA"/>
<rect x="320.5" y="179.5" width="1279" height="719" rx="24.5" fill="white"/>
<rect x="320.5" y="179.5" width="1279" height="719" rx="24.5" stroke="black"/>
<rect x="320.5" y="179.5" width="1279" height="719" rx="24.5" stroke="black" stroke-opacity="0.2"/>
<g filter="url(#filter0_d_136_360)">
<circle cx="345" cy="304" r="25" fill="#D9D9D9"/>
<circle cx="345" cy="304" r="24.5" stroke="black"/>
</g>
<path d="M347.365 295.545V313H345.251V297.761H345.149L340.888 300.591V298.443L345.251 295.545H347.365Z" fill="black"/>
<g filter="url(#filter1_d_136_360)">
<circle cx="1098" cy="576" r="25" fill="#D9D9D9"/>
<circle cx="1098" cy="576" r="24.5" stroke="black"/>
</g>
<path d="M1098.06 585.239C1096.94 585.239 1095.94 585.045 1095.06 584.659C1094.18 584.273 1093.48 583.736 1092.97 583.048C1092.46 582.355 1092.18 581.551 1092.13 580.636H1094.28C1094.33 581.199 1094.52 581.685 1094.86 582.094C1095.2 582.497 1095.65 582.81 1096.2 583.031C1096.75 583.253 1097.36 583.364 1098.03 583.364C1098.78 583.364 1099.44 583.233 1100.02 582.972C1100.6 582.71 1101.06 582.347 1101.39 581.881C1101.72 581.415 1101.88 580.875 1101.88 580.261C1101.88 579.619 1101.72 579.054 1101.4 578.565C1101.09 578.071 1100.62 577.685 1100.01 577.406C1099.39 577.128 1098.64 576.989 1097.76 576.989H1096.36V575.114H1097.76C1098.45 575.114 1099.06 574.989 1099.58 574.739C1100.11 574.489 1100.52 574.136 1100.82 573.682C1101.12 573.227 1101.27 572.693 1101.27 572.08C1101.27 571.489 1101.14 570.974 1100.88 570.537C1100.62 570.099 1100.25 569.759 1099.77 569.514C1099.3 569.27 1098.74 569.148 1098.1 569.148C1097.5 569.148 1096.93 569.259 1096.39 569.48C1095.87 569.696 1095.43 570.011 1095.1 570.426C1094.76 570.835 1094.58 571.33 1094.55 571.909H1092.51C1092.54 570.994 1092.82 570.193 1093.33 569.506C1093.85 568.812 1094.53 568.273 1095.36 567.886C1096.2 567.5 1097.13 567.307 1098.13 567.307C1099.21 567.307 1100.14 567.526 1100.91 567.963C1101.68 568.395 1102.28 568.966 1102.69 569.676C1103.11 570.386 1103.31 571.153 1103.31 571.977C1103.31 572.96 1103.06 573.798 1102.54 574.491C1102.03 575.185 1101.33 575.665 1100.45 575.932V576.068C1101.55 576.25 1102.41 576.719 1103.03 577.474C1103.65 578.224 1103.96 579.153 1103.96 580.261C1103.96 581.21 1103.7 582.062 1103.19 582.818C1102.67 583.568 1101.98 584.159 1101.09 584.591C1100.2 585.023 1099.19 585.239 1098.06 585.239Z" fill="black"/>
<g filter="url(#filter2_d_136_360)">
<circle cx="370" cy="805" r="25" fill="#D9D9D9"/>
<circle cx="370" cy="805" r="24.5" stroke="black"/>
</g>
<path d="M365.193 796.545V814H363.08V798.761H362.977L358.716 801.591V799.443L363.08 796.545H365.193ZM370.52 814V796.545H381.054V798.42H372.634V804.318H380.509V806.193H372.634V812.125H381.19V814H370.52Z" fill="black"/>
<g filter="url(#filter3_d_136_360)">
<circle cx="370" cy="690" r="25" fill="#D9D9D9"/>
<circle cx="370" cy="690" r="24.5" stroke="black"/>
</g>
<path d="M363.74 681.545V699H361.626V683.761H361.524L357.263 686.591V684.443L361.626 681.545H363.74ZM374.453 699H369.067V681.545H374.692C376.385 681.545 377.834 681.895 379.038 682.594C380.243 683.287 381.166 684.284 381.808 685.585C382.45 686.881 382.771 688.432 382.771 690.239C382.771 692.057 382.447 693.622 381.8 694.935C381.152 696.241 380.209 697.247 378.97 697.952C377.732 698.651 376.226 699 374.453 699ZM371.18 697.125H374.317C375.76 697.125 376.956 696.847 377.905 696.29C378.854 695.733 379.561 694.94 380.027 693.912C380.493 692.884 380.726 691.659 380.726 690.239C380.726 688.83 380.496 687.616 380.036 686.599C379.575 685.577 378.888 684.793 377.973 684.247C377.058 683.696 375.919 683.42 374.555 683.42H371.18V697.125Z" fill="black"/>
<g filter="url(#filter4_d_136_360)">
<circle cx="370" cy="576" r="25" fill="#D9D9D9"/>
<circle cx="370" cy="576" r="24.5" stroke="black"/>
</g>
<path d="M363.635 567.545V585H361.521V569.761H361.419L357.157 572.591V570.443L361.521 567.545H363.635ZM383.007 573H380.893C380.768 572.392 380.549 571.858 380.237 571.398C379.93 570.938 379.555 570.551 379.112 570.239C378.674 569.92 378.189 569.682 377.654 569.523C377.12 569.364 376.564 569.284 375.984 569.284C374.927 569.284 373.97 569.551 373.112 570.085C372.26 570.619 371.581 571.406 371.075 572.446C370.575 573.486 370.325 574.761 370.325 576.273C370.325 577.784 370.575 579.06 371.075 580.099C371.581 581.139 372.26 581.926 373.112 582.46C373.97 582.994 374.927 583.261 375.984 583.261C376.564 583.261 377.12 583.182 377.654 583.023C378.189 582.864 378.674 582.628 379.112 582.315C379.555 581.997 379.93 581.608 380.237 581.148C380.549 580.682 380.768 580.148 380.893 579.545H383.007C382.848 580.437 382.558 581.236 382.137 581.94C381.717 582.645 381.194 583.244 380.569 583.739C379.944 584.227 379.243 584.599 378.464 584.855C377.691 585.111 376.865 585.239 375.984 585.239C374.495 585.239 373.172 584.875 372.012 584.148C370.853 583.42 369.941 582.386 369.277 581.045C368.612 579.705 368.279 578.114 368.279 576.273C368.279 574.432 368.612 572.841 369.277 571.5C369.941 570.159 370.853 569.125 372.012 568.398C373.172 567.67 374.495 567.307 375.984 567.307C376.865 567.307 377.691 567.435 378.464 567.69C379.243 567.946 379.944 568.321 380.569 568.815C381.194 569.304 381.717 569.901 382.137 570.605C382.558 571.304 382.848 572.102 383.007 573Z" fill="black"/>
<g filter="url(#filter5_d_136_360)">
<circle cx="370" cy="468" r="25" fill="#D9D9D9"/>
<circle cx="370" cy="468" r="24.5" stroke="black"/>
</g>
<path d="M364.56 459.545V477H362.447V461.761H362.344L358.083 464.591V462.443L362.447 459.545H364.56ZM369.887 477V459.545H375.989C377.205 459.545 378.208 459.756 378.998 460.176C379.788 460.591 380.376 461.151 380.762 461.855C381.148 462.554 381.342 463.33 381.342 464.182C381.342 464.932 381.208 465.551 380.941 466.04C380.68 466.528 380.333 466.915 379.901 467.199C379.475 467.483 379.012 467.693 378.512 467.83V468C379.046 468.034 379.583 468.222 380.123 468.562C380.663 468.903 381.114 469.392 381.478 470.028C381.842 470.665 382.023 471.443 382.023 472.364C382.023 473.239 381.825 474.026 381.427 474.724C381.029 475.423 380.401 475.977 379.543 476.386C378.685 476.795 377.569 477 376.194 477H369.887ZM372.001 475.125H376.194C377.575 475.125 378.555 474.858 379.134 474.324C379.719 473.784 380.012 473.131 380.012 472.364C380.012 471.773 379.862 471.227 379.56 470.727C379.259 470.222 378.83 469.818 378.273 469.517C377.717 469.21 377.058 469.057 376.296 469.057H372.001V475.125ZM372.001 467.216H375.921C376.558 467.216 377.131 467.091 377.643 466.841C378.16 466.591 378.569 466.239 378.87 465.784C379.177 465.33 379.33 464.795 379.33 464.182C379.33 463.415 379.063 462.764 378.529 462.23C377.995 461.69 377.148 461.42 375.989 461.42H372.001V467.216Z" fill="black"/>
<path d="M320.5 204C320.5 190.469 331.469 179.5 345 179.5H1575C1588.53 179.5 1599.5 190.469 1599.5 204V278.5H320.5V204Z" fill="white" stroke="black"/>
<path d="M396.82 247H393.428V235.17H380.525V247H377.15V221.406H380.525V232.41H393.428V221.406H396.82V247ZM401.443 237.314C401.443 235.451 401.807 233.775 402.533 232.287C403.271 230.799 404.291 229.65 405.592 228.842C406.904 228.033 408.398 227.629 410.074 227.629C412.664 227.629 414.756 228.525 416.35 230.318C417.955 232.111 418.758 234.496 418.758 237.473V237.701C418.758 239.553 418.4 241.217 417.686 242.693C416.982 244.158 415.969 245.301 414.645 246.121C413.332 246.941 411.82 247.352 410.109 247.352C407.531 247.352 405.439 246.455 403.834 244.662C402.24 242.869 401.443 240.496 401.443 237.543V237.314ZM404.713 237.701C404.713 239.811 405.199 241.504 406.172 242.781C407.156 244.059 408.469 244.697 410.109 244.697C411.762 244.697 413.074 244.053 414.047 242.764C415.02 241.463 415.506 239.646 415.506 237.314C415.506 235.229 415.008 233.541 414.012 232.252C413.027 230.951 411.715 230.301 410.074 230.301C408.469 230.301 407.174 230.939 406.189 232.217C405.205 233.494 404.713 235.322 404.713 237.701ZM433.91 241.955C433.91 241.076 433.576 240.396 432.908 239.916C432.252 239.424 431.098 239.002 429.445 238.65C427.805 238.299 426.498 237.877 425.525 237.385C424.564 236.893 423.85 236.307 423.381 235.627C422.924 234.947 422.695 234.139 422.695 233.201C422.695 231.643 423.352 230.324 424.664 229.246C425.988 228.168 427.676 227.629 429.727 227.629C431.883 227.629 433.629 228.186 434.965 229.299C436.312 230.412 436.986 231.836 436.986 233.57H433.717C433.717 232.68 433.336 231.912 432.574 231.268C431.824 230.623 430.875 230.301 429.727 230.301C428.543 230.301 427.617 230.559 426.949 231.074C426.281 231.59 425.947 232.264 425.947 233.096C425.947 233.881 426.258 234.473 426.879 234.871C427.5 235.27 428.619 235.65 430.236 236.014C431.865 236.377 433.184 236.811 434.191 237.314C435.199 237.818 435.943 238.428 436.424 239.143C436.916 239.846 437.162 240.707 437.162 241.727C437.162 243.426 436.482 244.791 435.123 245.822C433.764 246.842 432 247.352 429.832 247.352C428.309 247.352 426.961 247.082 425.789 246.543C424.617 246.004 423.697 245.254 423.029 244.293C422.373 243.32 422.045 242.271 422.045 241.146H425.297C425.355 242.236 425.789 243.104 426.598 243.748C427.418 244.381 428.496 244.697 429.832 244.697C431.062 244.697 432.047 244.451 432.785 243.959C433.535 243.455 433.91 242.787 433.91 241.955ZM445.811 223.375V227.98H449.361V230.494H445.811V242.289C445.811 243.051 445.969 243.625 446.285 244.012C446.602 244.387 447.141 244.574 447.902 244.574C448.277 244.574 448.793 244.504 449.449 244.363V247C448.594 247.234 447.762 247.352 446.953 247.352C445.5 247.352 444.404 246.912 443.666 246.033C442.928 245.154 442.559 243.906 442.559 242.289V230.494H439.096V227.98H442.559V223.375H445.811ZM456.252 227.98L456.357 230.371C457.811 228.543 459.709 227.629 462.053 227.629C466.072 227.629 468.1 229.896 468.135 234.432V247H464.883V234.414C464.871 233.043 464.555 232.029 463.934 231.373C463.324 230.717 462.369 230.389 461.068 230.389C460.014 230.389 459.088 230.67 458.291 231.232C457.494 231.795 456.873 232.533 456.428 233.447V247H453.176V227.98H456.252ZM484.781 247C484.594 246.625 484.441 245.957 484.324 244.996C482.812 246.566 481.008 247.352 478.91 247.352C477.035 247.352 475.494 246.824 474.287 245.77C473.092 244.703 472.494 243.355 472.494 241.727C472.494 239.746 473.244 238.211 474.744 237.121C476.256 236.02 478.377 235.469 481.107 235.469H484.271V233.975C484.271 232.838 483.932 231.936 483.252 231.268C482.572 230.588 481.57 230.248 480.246 230.248C479.086 230.248 478.113 230.541 477.328 231.127C476.543 231.713 476.15 232.422 476.15 233.254H472.881C472.881 232.305 473.215 231.391 473.883 230.512C474.562 229.621 475.477 228.918 476.625 228.402C477.785 227.887 479.057 227.629 480.439 227.629C482.631 227.629 484.348 228.18 485.59 229.281C486.832 230.371 487.477 231.877 487.523 233.799V242.553C487.523 244.299 487.746 245.688 488.191 246.719V247H484.781ZM479.385 244.521C480.404 244.521 481.371 244.258 482.285 243.73C483.199 243.203 483.861 242.518 484.271 241.674V237.771H481.723C477.738 237.771 475.746 238.938 475.746 241.27C475.746 242.289 476.086 243.086 476.766 243.66C477.445 244.234 478.318 244.521 479.385 244.521ZM495.68 227.98L495.768 230.09C497.162 228.449 499.043 227.629 501.41 227.629C504.07 227.629 505.881 228.648 506.842 230.688C507.475 229.773 508.295 229.035 509.303 228.473C510.322 227.91 511.523 227.629 512.906 227.629C517.078 227.629 519.199 229.838 519.27 234.256V247H516.018V234.449C516.018 233.09 515.707 232.076 515.086 231.408C514.465 230.729 513.422 230.389 511.957 230.389C510.75 230.389 509.748 230.752 508.951 231.479C508.154 232.193 507.691 233.16 507.562 234.379V247H504.293V234.537C504.293 231.771 502.939 230.389 500.232 230.389C498.1 230.389 496.641 231.297 495.855 233.113V247H492.604V227.98H495.68ZM532.084 247.352C529.506 247.352 527.408 246.508 525.791 244.82C524.174 243.121 523.365 240.854 523.365 238.018V237.42C523.365 235.533 523.723 233.852 524.438 232.375C525.164 230.887 526.172 229.727 527.461 228.895C528.762 228.051 530.168 227.629 531.68 227.629C534.152 227.629 536.074 228.443 537.445 230.072C538.816 231.701 539.502 234.033 539.502 237.068V238.422H526.617C526.664 240.297 527.209 241.814 528.252 242.975C529.307 244.123 530.643 244.697 532.26 244.697C533.408 244.697 534.381 244.463 535.178 243.994C535.975 243.525 536.672 242.904 537.27 242.131L539.256 243.678C537.662 246.127 535.271 247.352 532.084 247.352ZM531.68 230.301C530.367 230.301 529.266 230.781 528.375 231.742C527.484 232.691 526.934 234.027 526.723 235.75H536.25V235.504C536.156 233.852 535.711 232.574 534.914 231.672C534.117 230.758 533.039 230.301 531.68 230.301Z" fill="black"/>
<path d="M902.951 246H899.682V224.326L893.125 226.734V223.781L902.441 220.283H902.951V246ZM929.248 246H912.479V243.662L921.338 233.818C922.65 232.33 923.553 231.123 924.045 230.197C924.549 229.26 924.801 228.293 924.801 227.297C924.801 225.961 924.396 224.865 923.588 224.01C922.779 223.154 921.701 222.727 920.354 222.727C918.736 222.727 917.477 223.189 916.574 224.115C915.684 225.029 915.238 226.307 915.238 227.947H911.986C911.986 225.592 912.742 223.688 914.254 222.234C915.777 220.781 917.811 220.055 920.354 220.055C922.732 220.055 924.613 220.682 925.996 221.936C927.379 223.178 928.07 224.836 928.07 226.91C928.07 229.43 926.465 232.43 923.254 235.91L916.398 243.346H929.248V246ZM932.922 244.295C932.922 243.732 933.086 243.264 933.414 242.889C933.754 242.514 934.258 242.326 934.926 242.326C935.594 242.326 936.098 242.514 936.438 242.889C936.789 243.264 936.965 243.732 936.965 244.295C936.965 244.834 936.789 245.285 936.438 245.648C936.098 246.012 935.594 246.193 934.926 246.193C934.258 246.193 933.754 246.012 933.414 245.648C933.086 245.285 932.922 244.834 932.922 244.295ZM932.939 228.773C932.939 228.211 933.104 227.742 933.432 227.367C933.771 226.992 934.275 226.805 934.943 226.805C935.611 226.805 936.115 226.992 936.455 227.367C936.807 227.742 936.982 228.211 936.982 228.773C936.982 229.312 936.807 229.764 936.455 230.127C936.115 230.49 935.611 230.672 934.943 230.672C934.275 230.672 933.771 230.49 933.432 230.127C933.104 229.764 932.939 229.312 932.939 228.773ZM957.461 235.084C957.461 238.893 956.811 241.723 955.51 243.574C954.209 245.426 952.176 246.352 949.41 246.352C946.68 246.352 944.658 245.449 943.346 243.645C942.033 241.828 941.354 239.121 941.307 235.523V231.182C941.307 227.42 941.957 224.625 943.258 222.797C944.559 220.969 946.598 220.055 949.375 220.055C952.129 220.055 954.156 220.939 955.457 222.709C956.758 224.467 957.426 227.186 957.461 230.865V235.084ZM954.209 230.637C954.209 227.883 953.822 225.879 953.049 224.625C952.275 223.359 951.051 222.727 949.375 222.727C947.711 222.727 946.498 223.354 945.736 224.607C944.975 225.861 944.582 227.789 944.559 230.391V235.594C944.559 238.359 944.957 240.404 945.754 241.729C946.562 243.041 947.781 243.697 949.41 243.697C951.016 243.697 952.205 243.076 952.979 241.834C953.764 240.592 954.174 238.635 954.209 235.963V230.637ZM977.676 235.084C977.676 238.893 977.025 241.723 975.725 243.574C974.424 245.426 972.391 246.352 969.625 246.352C966.895 246.352 964.873 245.449 963.561 243.645C962.248 241.828 961.568 239.121 961.521 235.523V231.182C961.521 227.42 962.172 224.625 963.473 222.797C964.773 220.969 966.812 220.055 969.59 220.055C972.344 220.055 974.371 220.939 975.672 222.709C976.973 224.467 977.641 227.186 977.676 230.865V235.084ZM974.424 230.637C974.424 227.883 974.037 225.879 973.264 224.625C972.49 223.359 971.266 222.727 969.59 222.727C967.926 222.727 966.713 223.354 965.951 224.607C965.189 225.861 964.797 227.789 964.773 230.391V235.594C964.773 238.359 965.172 240.404 965.969 241.729C966.777 243.041 967.996 243.697 969.625 243.697C971.23 243.697 972.42 243.076 973.193 241.834C973.979 240.592 974.389 238.635 974.424 235.963V230.637ZM982.07 244.295C982.07 243.732 982.234 243.264 982.562 242.889C982.902 242.514 983.406 242.326 984.074 242.326C984.742 242.326 985.246 242.514 985.586 242.889C985.938 243.264 986.113 243.732 986.113 244.295C986.113 244.834 985.938 245.285 985.586 245.648C985.246 246.012 984.742 246.193 984.074 246.193C983.406 246.193 982.902 246.012 982.562 245.648C982.234 245.285 982.07 244.834 982.07 244.295ZM982.088 228.773C982.088 228.211 982.252 227.742 982.58 227.367C982.92 226.992 983.424 226.805 984.092 226.805C984.76 226.805 985.264 226.992 985.604 227.367C985.955 227.742 986.131 228.211 986.131 228.773C986.131 229.312 985.955 229.764 985.604 230.127C985.264 230.49 984.76 230.672 984.092 230.672C983.424 230.672 982.92 230.49 982.58 230.127C982.252 229.764 982.088 229.312 982.088 228.773ZM1006.61 235.084C1006.61 238.893 1005.96 241.723 1004.66 243.574C1003.36 245.426 1001.32 246.352 998.559 246.352C995.828 246.352 993.807 245.449 992.494 243.645C991.182 241.828 990.502 239.121 990.455 235.523V231.182C990.455 227.42 991.105 224.625 992.406 222.797C993.707 220.969 995.746 220.055 998.523 220.055C1001.28 220.055 1003.3 220.939 1004.61 222.709C1005.91 224.467 1006.57 227.186 1006.61 230.865V235.084ZM1003.36 230.637C1003.36 227.883 1002.97 225.879 1002.2 224.625C1001.42 223.359 1000.2 222.727 998.523 222.727C996.859 222.727 995.646 223.354 994.885 224.607C994.123 225.861 993.73 227.789 993.707 230.391V235.594C993.707 238.359 994.105 240.404 994.902 241.729C995.711 243.041 996.93 243.697 998.559 243.697C1000.16 243.697 1001.35 243.076 1002.13 241.834C1002.91 240.592 1003.32 238.635 1003.36 235.963V230.637ZM1026.82 235.084C1026.82 238.893 1026.17 241.723 1024.87 243.574C1023.57 245.426 1021.54 246.352 1018.77 246.352C1016.04 246.352 1014.02 245.449 1012.71 243.645C1011.4 241.828 1010.72 239.121 1010.67 235.523V231.182C1010.67 227.42 1011.32 224.625 1012.62 222.797C1013.92 220.969 1015.96 220.055 1018.74 220.055C1021.49 220.055 1023.52 220.939 1024.82 222.709C1026.12 224.467 1026.79 227.186 1026.82 230.865V235.084ZM1023.57 230.637C1023.57 227.883 1023.19 225.879 1022.41 224.625C1021.64 223.359 1020.41 222.727 1018.74 222.727C1017.07 222.727 1015.86 223.354 1015.1 224.607C1014.34 225.861 1013.95 227.789 1013.92 230.391V235.594C1013.92 238.359 1014.32 240.404 1015.12 241.729C1015.93 243.041 1017.14 243.697 1018.77 243.697C1020.38 243.697 1021.57 243.076 1022.34 241.834C1023.13 240.592 1023.54 238.635 1023.57 235.963V230.637Z" fill="black"/>
<path d="M1536 217.82L1533.18 215L1522 226.18L1510.82 215L1508 217.82L1519.18 229L1508 240.18L1510.82 243L1522 231.82L1533.18 243L1536 240.18L1524.82 229L1536 217.82Z" fill="black"/>
<path d="M320.5 278.5H596.5V898.5H345C331.469 898.5 320.5 887.531 320.5 874V278.5Z" stroke="black"/>
<path d="M507 359.6V357.2C507 355.874 505.926 354.8 504.6 354.8H462.6V348.8H473.4C476.05 348.8 478.2 346.65 478.2 344V324.8C478.2 322.149 476.05 320 473.4 320H444.6C441.95 320 439.8 322.149 439.8 324.8V344C439.8 346.65 441.95 348.8 444.6 348.8H455.4V354.8H413.4C412.074 354.8 411 355.874 411 357.2V359.6C411 360.926 412.074 362 413.4 362H429V368H420.6C417.95 368 415.8 370.149 415.8 372.8V392C415.8 394.65 417.95 396.8 420.6 396.8H444.6C447.25 396.8 449.4 394.65 449.4 392V372.8C449.4 370.149 447.25 368 444.6 368H436.2V362H481.8V368H473.4C470.75 368 468.6 370.149 468.6 372.8V392C468.6 394.65 470.75 396.8 473.4 396.8H497.4C500.051 396.8 502.2 394.65 502.2 392V372.8C502.2 370.149 500.051 368 497.4 368H489V362H504.6C505.926 362 507 360.926 507 359.6ZM449.4 339.2V329.6H468.6V339.2H449.4ZM439.8 387.2H425.4V377.6H439.8V387.2ZM492.6 387.2H478.2V377.6H492.6V387.2Z" fill="black"/>
<path d="M457 540C437.12 540 421 556.12 421 576C421 595.88 437.12 612 457 612C460.32 612 463 609.32 463 606C463 604.44 462.4 603.04 461.44 601.96C460.52 600.92 459.92 599.52 459.92 598C459.92 594.68 462.6 592 465.92 592H473C484.04 592 493 583.04 493 572C493 554.32 476.88 540 457 540ZM435 576C431.68 576 429 573.32 429 570C429 566.68 431.68 564 435 564C438.32 564 441 566.68 441 570C441 573.32 438.32 576 435 576ZM447 560C443.68 560 441 557.32 441 554C441 550.68 443.68 548 447 548C450.32 548 453 550.68 453 554C453 557.32 450.32 560 447 560ZM467 560C463.68 560 461 557.32 461 554C461 550.68 463.68 548 467 548C470.32 548 473 550.68 473 554C473 557.32 470.32 560 467 560ZM479 576C475.68 576 473 573.32 473 570C473 566.68 475.68 564 479 564C482.32 564 485 566.68 485 570C485 573.32 482.32 576 479 576Z" fill="black"/>
<path d="M493.505 482.334C493.813 480.659 493.813 478.949 493.505 477.275L496.569 475.505C496.925 475.303 497.079 474.888 496.961 474.496C496.165 471.93 494.799 469.603 493.018 467.679C492.744 467.382 492.305 467.311 491.949 467.512L488.885 469.282C487.59 468.178 486.106 467.322 484.502 466.752V463.213C484.502 462.809 484.217 462.453 483.825 462.37C481.177 461.776 478.481 461.8 475.963 462.37C475.571 462.453 475.286 462.809 475.286 463.213V466.752C473.683 467.322 472.199 468.178 470.904 469.282L467.84 467.512C467.496 467.311 467.044 467.382 466.771 467.679C464.99 469.603 463.624 471.93 462.828 474.496C462.709 474.888 462.876 475.303 463.22 475.505L466.284 477.275C465.975 478.949 465.975 480.659 466.284 482.334L463.22 484.104C462.864 484.306 462.709 484.721 462.828 485.113C463.624 487.678 464.99 489.994 466.771 491.93C467.044 492.227 467.484 492.298 467.84 492.096L470.904 490.327C472.199 491.431 473.683 492.286 475.286 492.856V496.396C475.286 496.799 475.571 497.156 475.963 497.239C478.612 497.833 481.308 497.809 483.825 497.239C484.217 497.156 484.502 496.799 484.502 496.396V492.856C486.106 492.286 487.59 491.431 488.885 490.327L491.949 492.096C492.293 492.298 492.744 492.227 493.018 491.93C494.799 490.006 496.165 487.678 496.961 485.113C497.079 484.721 496.913 484.306 496.569 484.104L493.505 482.334ZM479.906 485.564C476.723 485.564 474.146 482.975 474.146 479.804C474.146 476.633 476.735 474.044 479.906 474.044C483.077 474.044 485.666 476.633 485.666 479.804C485.666 482.975 483.089 485.564 479.906 485.564ZM447.603 468.403C455.999 468.403 462.804 461.598 462.804 453.202C462.804 444.805 455.999 438 447.603 438C439.206 438 432.401 444.805 432.401 453.202C432.401 461.598 439.206 468.403 447.603 468.403ZM471.498 495.303C471.225 495.16 470.952 494.994 470.69 494.84L469.752 495.386C469.039 495.79 468.232 496.015 467.424 496.015C466.13 496.015 464.883 495.469 463.992 494.519C461.819 492.168 460.156 489.305 459.218 486.253C458.565 484.151 459.443 481.93 461.344 480.826L462.282 480.279C462.27 479.971 462.27 479.662 462.282 479.353L461.344 478.807C459.443 477.714 458.565 475.481 459.218 473.379C459.325 473.035 459.479 472.691 459.598 472.346C459.147 472.31 458.707 472.204 458.244 472.204H456.261C453.624 473.415 450.691 474.104 447.603 474.104C444.515 474.104 441.593 473.415 438.945 472.204H436.962C428.15 472.204 421 479.353 421 488.165V493.106C421 496.253 423.553 498.806 426.701 498.806H468.505C469.705 498.806 470.821 498.426 471.735 497.797C471.593 497.346 471.498 496.882 471.498 496.396V495.303Z" fill="black"/>
<path d="M460 768C439.576 768 423 784.576 423 805C423 825.424 439.576 842 460 842C480.424 842 497 825.424 497 805C497 784.576 480.424 768 460 768ZM463.7 823.5H456.3V801.3H463.7V823.5ZM463.7 793.9H456.3V786.5H463.7V793.9Z" fill="black"/>
<path d="M457.963 653C437.539 653 421 669.576 421 690C421 710.424 437.539 727 457.963 727C478.424 727 495 710.424 495 690C495 669.576 478.424 653 457.963 653ZM483.604 675.2H472.689C471.505 670.575 469.803 666.135 467.583 662.028C474.391 664.359 480.052 669.095 483.604 675.2ZM458 660.548C461.071 664.988 463.476 669.909 465.067 675.2H450.933C452.524 669.909 454.929 664.988 458 660.548ZM429.362 697.4C428.77 695.032 428.4 692.553 428.4 690C428.4 687.447 428.77 684.968 429.362 682.6H441.868C441.572 685.042 441.35 687.484 441.35 690C441.35 692.516 441.572 694.958 441.868 697.4H429.362ZM432.396 704.8H443.311C444.495 709.425 446.197 713.865 448.417 717.972C441.609 715.641 435.948 710.942 432.396 704.8ZM443.311 675.2H432.396C435.948 669.058 441.609 664.359 448.417 662.028C446.197 666.135 444.495 670.575 443.311 675.2ZM458 719.452C454.929 715.012 452.524 710.091 450.933 704.8H465.067C463.476 710.091 461.071 715.012 458 719.452ZM466.658 697.4H449.342C449.009 694.958 448.75 692.516 448.75 690C448.75 687.484 449.009 685.005 449.342 682.6H466.658C466.991 685.005 467.25 687.484 467.25 690C467.25 692.516 466.991 694.958 466.658 697.4ZM467.583 717.972C469.803 713.865 471.505 709.425 472.689 704.8H483.604C480.052 710.905 474.391 715.641 467.583 717.972ZM474.132 697.4C474.428 694.958 474.65 692.516 474.65 690C474.65 687.484 474.428 685.042 474.132 682.6H486.638C487.23 684.968 487.6 687.447 487.6 690C487.6 692.553 487.23 695.032 486.638 697.4H474.132Z" fill="black"/>
<rect x="597" y="279" width="1002" height="60" fill="#C4C4C4"/>
<path d="M628.635 312.98V323H625.26V297.406H634.699C637.5 297.406 639.691 298.121 641.273 299.551C642.867 300.98 643.664 302.873 643.664 305.229C643.664 307.713 642.885 309.629 641.326 310.977C639.779 312.312 637.559 312.98 634.664 312.98H628.635ZM628.635 310.221H634.699C636.504 310.221 637.887 309.799 638.848 308.955C639.809 308.1 640.289 306.869 640.289 305.264C640.289 303.74 639.809 302.521 638.848 301.607C637.887 300.693 636.568 300.219 634.893 300.184H628.635V310.221ZM658.992 323C658.805 322.625 658.652 321.957 658.535 320.996C657.023 322.566 655.219 323.352 653.121 323.352C651.246 323.352 649.705 322.824 648.498 321.77C647.303 320.703 646.705 319.355 646.705 317.727C646.705 315.746 647.455 314.211 648.955 313.121C650.467 312.02 652.588 311.469 655.318 311.469H658.482V309.975C658.482 308.838 658.143 307.936 657.463 307.268C656.783 306.588 655.781 306.248 654.457 306.248C653.297 306.248 652.324 306.541 651.539 307.127C650.754 307.713 650.361 308.422 650.361 309.254H647.092C647.092 308.305 647.426 307.391 648.094 306.512C648.773 305.621 649.688 304.918 650.836 304.402C651.996 303.887 653.268 303.629 654.65 303.629C656.842 303.629 658.559 304.18 659.801 305.281C661.043 306.371 661.688 307.877 661.734 309.799V318.553C661.734 320.299 661.957 321.688 662.402 322.719V323H658.992ZM653.596 320.521C654.615 320.521 655.582 320.258 656.496 319.73C657.41 319.203 658.072 318.518 658.482 317.674V313.771H655.934C651.949 313.771 649.957 314.938 649.957 317.27C649.957 318.289 650.297 319.086 650.977 319.66C651.656 320.234 652.529 320.521 653.596 320.521ZM666.059 313.332C666.059 310.367 666.744 308.012 668.115 306.266C669.486 304.508 671.303 303.629 673.564 303.629C675.885 303.629 677.695 304.449 678.996 306.09L679.154 303.98H682.125V322.543C682.125 325.004 681.393 326.943 679.928 328.361C678.475 329.779 676.518 330.488 674.057 330.488C672.686 330.488 671.344 330.195 670.031 329.609C668.719 329.023 667.717 328.221 667.025 327.201L668.713 325.25C670.107 326.973 671.812 327.834 673.828 327.834C675.41 327.834 676.641 327.389 677.52 326.498C678.41 325.607 678.855 324.354 678.855 322.736V321.102C677.555 322.602 675.779 323.352 673.529 323.352C671.303 323.352 669.498 322.455 668.115 320.662C666.744 318.869 666.059 316.426 666.059 313.332ZM669.328 313.701C669.328 315.846 669.768 317.533 670.646 318.764C671.525 319.982 672.756 320.592 674.338 320.592C676.389 320.592 677.895 319.66 678.855 317.797V309.113C677.859 307.297 676.365 306.389 674.373 306.389C672.791 306.389 671.555 307.004 670.664 308.234C669.773 309.465 669.328 311.287 669.328 313.701ZM694.939 323.352C692.361 323.352 690.264 322.508 688.646 320.82C687.029 319.121 686.221 316.854 686.221 314.018V313.42C686.221 311.533 686.578 309.852 687.293 308.375C688.02 306.887 689.027 305.727 690.316 304.895C691.617 304.051 693.023 303.629 694.535 303.629C697.008 303.629 698.93 304.443 700.301 306.072C701.672 307.701 702.357 310.033 702.357 313.068V314.422H689.473C689.52 316.297 690.064 317.814 691.107 318.975C692.162 320.123 693.498 320.697 695.115 320.697C696.264 320.697 697.236 320.463 698.033 319.994C698.83 319.525 699.527 318.904 700.125 318.131L702.111 319.678C700.518 322.127 698.127 323.352 694.939 323.352ZM694.535 306.301C693.223 306.301 692.121 306.781 691.23 307.742C690.34 308.691 689.789 310.027 689.578 311.75H699.105V311.504C699.012 309.852 698.566 308.574 697.77 307.672C696.973 306.758 695.895 306.301 694.535 306.301ZM718.143 303.98L718.248 306.371C719.701 304.543 721.6 303.629 723.943 303.629C727.963 303.629 729.99 305.896 730.025 310.432V323H726.773V310.414C726.762 309.043 726.445 308.029 725.824 307.373C725.215 306.717 724.26 306.389 722.959 306.389C721.904 306.389 720.979 306.67 720.182 307.232C719.385 307.795 718.764 308.533 718.318 309.447V323H715.066V303.98H718.143ZM746.672 323C746.484 322.625 746.332 321.957 746.215 320.996C744.703 322.566 742.898 323.352 740.801 323.352C738.926 323.352 737.385 322.824 736.178 321.77C734.982 320.703 734.385 319.355 734.385 317.727C734.385 315.746 735.135 314.211 736.635 313.121C738.146 312.02 740.268 311.469 742.998 311.469H746.162V309.975C746.162 308.838 745.822 307.936 745.143 307.268C744.463 306.588 743.461 306.248 742.137 306.248C740.977 306.248 740.004 306.541 739.219 307.127C738.434 307.713 738.041 308.422 738.041 309.254H734.771C734.771 308.305 735.105 307.391 735.773 306.512C736.453 305.621 737.367 304.918 738.516 304.402C739.676 303.887 740.947 303.629 742.33 303.629C744.521 303.629 746.238 304.18 747.48 305.281C748.723 306.371 749.367 307.877 749.414 309.799V318.553C749.414 320.299 749.637 321.688 750.082 322.719V323H746.672ZM741.275 320.521C742.295 320.521 743.262 320.258 744.176 319.73C745.09 319.203 745.752 318.518 746.162 317.674V313.771H743.613C739.629 313.771 737.637 314.938 737.637 317.27C737.637 318.289 737.977 319.086 738.656 319.66C739.336 320.234 740.209 320.521 741.275 320.521ZM757.57 303.98L757.658 306.09C759.053 304.449 760.934 303.629 763.301 303.629C765.961 303.629 767.771 304.648 768.732 306.688C769.365 305.773 770.186 305.035 771.193 304.473C772.213 303.91 773.414 303.629 774.797 303.629C778.969 303.629 781.09 305.838 781.16 310.256V323H777.908V310.449C777.908 309.09 777.598 308.076 776.977 307.408C776.355 306.729 775.312 306.389 773.848 306.389C772.641 306.389 771.639 306.752 770.842 307.479C770.045 308.193 769.582 309.16 769.453 310.379V323H766.184V310.537C766.184 307.771 764.83 306.389 762.123 306.389C759.99 306.389 758.531 307.297 757.746 309.113V323H754.494V303.98H757.57ZM793.975 323.352C791.396 323.352 789.299 322.508 787.682 320.82C786.064 319.121 785.256 316.854 785.256 314.018V313.42C785.256 311.533 785.613 309.852 786.328 308.375C787.055 306.887 788.062 305.727 789.352 304.895C790.652 304.051 792.059 303.629 793.57 303.629C796.043 303.629 797.965 304.443 799.336 306.072C800.707 307.701 801.393 310.033 801.393 313.068V314.422H788.508C788.555 316.297 789.1 317.814 790.143 318.975C791.197 320.123 792.533 320.697 794.15 320.697C795.299 320.697 796.271 320.463 797.068 319.994C797.865 319.525 798.562 318.904 799.16 318.131L801.146 319.678C799.553 322.127 797.162 323.352 793.975 323.352ZM793.57 306.301C792.258 306.301 791.156 306.781 790.266 307.742C789.375 308.691 788.824 310.027 788.613 311.75H798.141V311.504C798.047 309.852 797.602 308.574 796.805 307.672C796.008 306.758 794.93 306.301 793.57 306.301Z" fill="black"/>
<rect width="1920" height="78" fill="white"/>
<g filter="url(#filter6_d_136_360)">
<rect x="798" y="21" width="133" height="37" rx="10" fill="white"/>
<rect x="798.5" y="21.5" width="132" height="36" rx="9.5" stroke="black"/>
</g>
<path d="M848.328 44V35.2727H849.385V39.1591H854.039V35.2727H855.095V44H854.039V40.0966H849.385V44H848.328ZM859.734 44.1364C859.143 44.1364 858.624 43.9957 858.178 43.7145C857.735 43.4332 857.389 43.0398 857.139 42.5341C856.892 42.0284 856.768 41.4375 856.768 40.7614C856.768 40.0795 856.892 39.4844 857.139 38.9759C857.389 38.4673 857.735 38.0724 858.178 37.7912C858.624 37.5099 859.143 37.3693 859.734 37.3693C860.325 37.3693 860.842 37.5099 861.285 37.7912C861.731 38.0724 862.078 38.4673 862.325 38.9759C862.575 39.4844 862.7 40.0795 862.7 40.7614C862.7 41.4375 862.575 42.0284 862.325 42.5341C862.078 43.0398 861.731 43.4332 861.285 43.7145C860.842 43.9957 860.325 44.1364 859.734 44.1364ZM859.734 43.233C860.183 43.233 860.552 43.1179 860.842 42.8878C861.132 42.6577 861.346 42.3551 861.485 41.9801C861.624 41.6051 861.694 41.1989 861.694 40.7614C861.694 40.3239 861.624 39.9162 861.485 39.5384C861.346 39.1605 861.132 38.8551 860.842 38.6222C860.552 38.3892 860.183 38.2727 859.734 38.2727C859.285 38.2727 858.916 38.3892 858.626 38.6222C858.336 38.8551 858.122 39.1605 857.982 39.5384C857.843 39.9162 857.774 40.3239 857.774 40.7614C857.774 41.1989 857.843 41.6051 857.982 41.9801C858.122 42.3551 858.336 42.6577 858.626 42.8878C858.916 43.1179 859.285 43.233 859.734 43.233ZM864.235 44V37.4545H865.206V38.4773H865.292C865.428 38.1278 865.648 37.8565 865.952 37.6634C866.256 37.4673 866.621 37.3693 867.047 37.3693C867.479 37.3693 867.839 37.4673 868.126 37.6634C868.415 37.8565 868.641 38.1278 868.803 38.4773H868.871C869.039 38.1392 869.29 37.8707 869.626 37.6719C869.961 37.4702 870.363 37.3693 870.831 37.3693C871.417 37.3693 871.895 37.5526 872.268 37.919C872.64 38.2827 872.826 38.8494 872.826 39.6193V44H871.82V39.6193C871.82 39.1364 871.688 38.7912 871.424 38.5838C871.16 38.3764 870.849 38.2727 870.491 38.2727C870.03 38.2727 869.674 38.4119 869.421 38.6903C869.168 38.9659 869.042 39.3153 869.042 39.7386V44H868.019V39.517C868.019 39.1449 867.898 38.8452 867.657 38.6179C867.415 38.3878 867.104 38.2727 866.724 38.2727C866.462 38.2727 866.218 38.3423 865.991 38.4815C865.766 38.6207 865.584 38.8139 865.445 39.0611C865.309 39.3054 865.241 39.5881 865.241 39.9091V44H864.235ZM877.409 44.1364C876.778 44.1364 876.234 43.9972 875.777 43.7188C875.322 43.4375 874.971 43.0455 874.724 42.5426C874.48 42.0369 874.358 41.4489 874.358 40.7784C874.358 40.108 874.48 39.517 874.724 39.0057C874.971 38.4915 875.315 38.0909 875.756 37.804C876.199 37.5142 876.716 37.3693 877.307 37.3693C877.648 37.3693 877.984 37.4261 878.317 37.5398C878.649 37.6534 878.952 37.8381 879.224 38.0938C879.497 38.3466 879.714 38.6818 879.876 39.0994C880.038 39.517 880.119 40.0312 880.119 40.642V41.0682H875.074V40.1989H879.096C879.096 39.8295 879.023 39.5 878.875 39.2102C878.73 38.9205 878.523 38.6918 878.253 38.5241C877.986 38.3565 877.67 38.2727 877.307 38.2727C876.906 38.2727 876.559 38.3722 876.267 38.571C875.977 38.767 875.754 39.0227 875.598 39.3381C875.442 39.6534 875.363 39.9915 875.363 40.3523V40.9318C875.363 41.4261 875.449 41.8452 875.619 42.1889C875.792 42.5298 876.032 42.7898 876.339 42.9688C876.646 43.1449 877.003 43.233 877.409 43.233C877.673 43.233 877.912 43.196 878.125 43.1222C878.341 43.0455 878.527 42.9318 878.683 42.7812C878.839 42.6278 878.96 42.4375 879.045 42.2102L880.017 42.483C879.915 42.8125 879.743 43.1023 879.501 43.3523C879.26 43.5994 878.961 43.7926 878.606 43.9318C878.251 44.0682 877.852 44.1364 877.409 44.1364Z" fill="black"/>
<g filter="url(#filter7_d_136_360)">
<rect x="991" y="21" width="146" height="37" rx="10" fill="white"/>
<rect x="991.5" y="21.5" width="145" height="36" rx="9.5" stroke="black"/>
</g>
<path d="M1021.55 37.4545C1021.5 37.0227 1021.29 36.6875 1020.93 36.4489C1020.57 36.2102 1020.12 36.0909 1019.59 36.0909C1019.21 36.0909 1018.87 36.1534 1018.58 36.2784C1018.29 36.4034 1018.07 36.5753 1017.9 36.794C1017.75 37.0128 1017.67 37.2614 1017.67 37.5398C1017.67 37.7727 1017.72 37.973 1017.83 38.1406C1017.95 38.3054 1018.09 38.4432 1018.27 38.554C1018.44 38.6619 1018.63 38.7514 1018.82 38.8224C1019.01 38.8906 1019.19 38.946 1019.35 38.9886L1020.24 39.2273C1020.47 39.2869 1020.72 39.3693 1021 39.4744C1021.28 39.5795 1021.55 39.723 1021.8 39.9048C1022.06 40.0838 1022.28 40.3139 1022.44 40.5952C1022.61 40.8764 1022.69 41.2216 1022.69 41.6307C1022.69 42.1023 1022.57 42.5284 1022.32 42.9091C1022.08 43.2898 1021.72 43.5923 1021.25 43.8168C1020.78 44.0412 1020.21 44.1534 1019.54 44.1534C1018.92 44.1534 1018.37 44.0526 1017.92 43.8509C1017.46 43.6491 1017.1 43.3679 1016.84 43.0071C1016.58 42.6463 1016.44 42.2273 1016.4 41.75H1017.5C1017.52 42.0795 1017.63 42.3523 1017.83 42.5682C1018.02 42.7812 1018.27 42.9403 1018.57 43.0455C1018.87 43.1477 1019.19 43.1989 1019.54 43.1989C1019.94 43.1989 1020.31 43.1335 1020.63 43.0028C1020.95 42.8693 1021.2 42.6847 1021.39 42.4489C1021.58 42.2102 1021.67 41.9318 1021.67 41.6136C1021.67 41.3239 1021.59 41.0881 1021.43 40.9062C1021.27 40.7244 1021.05 40.5767 1020.79 40.4631C1020.53 40.3494 1020.24 40.25 1019.93 40.1648L1018.86 39.858C1018.18 39.6619 1017.64 39.3821 1017.24 39.0185C1016.84 38.6548 1016.64 38.179 1016.64 37.5909C1016.64 37.1023 1016.78 36.6761 1017.04 36.3125C1017.31 35.946 1017.66 35.6619 1018.11 35.4602C1018.56 35.2557 1019.07 35.1534 1019.63 35.1534C1020.19 35.1534 1020.69 35.2543 1021.13 35.456C1021.56 35.6548 1021.91 35.9276 1022.17 36.2741C1022.42 36.6207 1022.56 37.0142 1022.57 37.4545H1021.55ZM1027.04 44.1364C1026.41 44.1364 1025.87 43.9972 1025.41 43.7188C1024.95 43.4375 1024.6 43.0455 1024.36 42.5426C1024.11 42.0369 1023.99 41.4489 1023.99 40.7784C1023.99 40.108 1024.11 39.517 1024.36 39.0057C1024.6 38.4915 1024.95 38.0909 1025.39 37.804C1025.83 37.5142 1026.35 37.3693 1026.94 37.3693C1027.28 37.3693 1027.62 37.4261 1027.95 37.5398C1028.28 37.6534 1028.58 37.8381 1028.86 38.0938C1029.13 38.3466 1029.35 38.6818 1029.51 39.0994C1029.67 39.517 1029.75 40.0312 1029.75 40.642V41.0682H1024.7V40.1989H1028.73C1028.73 39.8295 1028.65 39.5 1028.51 39.2102C1028.36 38.9205 1028.15 38.6918 1027.88 38.5241C1027.62 38.3565 1027.3 38.2727 1026.94 38.2727C1026.54 38.2727 1026.19 38.3722 1025.9 38.571C1025.61 38.767 1025.38 39.0227 1025.23 39.3381C1025.07 39.6534 1024.99 39.9915 1024.99 40.3523V40.9318C1024.99 41.4261 1025.08 41.8452 1025.25 42.1889C1025.42 42.5298 1025.66 42.7898 1025.97 42.9688C1026.28 43.1449 1026.63 43.233 1027.04 43.233C1027.3 43.233 1027.54 43.196 1027.76 43.1222C1027.97 43.0455 1028.16 42.9318 1028.31 42.7812C1028.47 42.6278 1028.59 42.4375 1028.68 42.2102L1029.65 42.483C1029.55 42.8125 1029.37 43.1023 1029.13 43.3523C1028.89 43.5994 1028.59 43.7926 1028.24 43.9318C1027.88 44.0682 1027.48 44.1364 1027.04 44.1364ZM1035.92 38.9205L1035.01 39.1761C1034.96 39.0256 1034.87 38.8793 1034.76 38.7372C1034.65 38.5923 1034.51 38.473 1034.32 38.3793C1034.13 38.2855 1033.89 38.2386 1033.6 38.2386C1033.2 38.2386 1032.86 38.331 1032.6 38.5156C1032.33 38.6974 1032.2 38.929 1032.2 39.2102C1032.2 39.4602 1032.29 39.6577 1032.47 39.8026C1032.65 39.9474 1032.94 40.0682 1033.33 40.1648L1034.3 40.4034C1034.88 40.5455 1035.32 40.7628 1035.61 41.0554C1035.89 41.3452 1036.04 41.7187 1036.04 42.1761C1036.04 42.5511 1035.93 42.8864 1035.71 43.1818C1035.5 43.4773 1035.2 43.7102 1034.82 43.8807C1034.43 44.0511 1033.99 44.1364 1033.48 44.1364C1032.81 44.1364 1032.26 43.9915 1031.82 43.7017C1031.38 43.4119 1031.11 42.9886 1030.99 42.4318L1031.94 42.1932C1032.04 42.5455 1032.21 42.8097 1032.46 42.9858C1032.72 43.1619 1033.05 43.25 1033.46 43.25C1033.93 43.25 1034.3 43.1506 1034.58 42.9517C1034.86 42.75 1035 42.5085 1035 42.2273C1035 42 1034.92 41.8097 1034.76 41.6562C1034.6 41.5 1034.35 41.3835 1034.02 41.3068L1032.93 41.0511C1032.33 40.9091 1031.89 40.6889 1031.61 40.3906C1031.33 40.0895 1031.19 39.7131 1031.19 39.2614C1031.19 38.892 1031.3 38.5653 1031.51 38.2812C1031.72 37.9972 1032 37.7741 1032.36 37.6122C1032.73 37.4503 1033.14 37.3693 1033.6 37.3693C1034.25 37.3693 1034.75 37.5114 1035.12 37.7955C1035.5 38.0795 1035.76 38.4545 1035.92 38.9205ZM1042.19 38.9205L1041.28 39.1761C1041.23 39.0256 1041.14 38.8793 1041.03 38.7372C1040.92 38.5923 1040.78 38.473 1040.59 38.3793C1040.4 38.2855 1040.16 38.2386 1039.87 38.2386C1039.47 38.2386 1039.13 38.331 1038.87 38.5156C1038.6 38.6974 1038.47 38.929 1038.47 39.2102C1038.47 39.4602 1038.56 39.6577 1038.74 39.8026C1038.92 39.9474 1039.21 40.0682 1039.59 40.1648L1040.57 40.4034C1041.15 40.5455 1041.59 40.7628 1041.87 41.0554C1042.16 41.3452 1042.31 41.7187 1042.31 42.1761C1042.31 42.5511 1042.2 42.8864 1041.98 43.1818C1041.77 43.4773 1041.47 43.7102 1041.09 43.8807C1040.7 44.0511 1040.26 44.1364 1039.75 44.1364C1039.08 44.1364 1038.53 43.9915 1038.09 43.7017C1037.65 43.4119 1037.38 42.9886 1037.26 42.4318L1038.21 42.1932C1038.31 42.5455 1038.48 42.8097 1038.73 42.9858C1038.99 43.1619 1039.32 43.25 1039.73 43.25C1040.2 43.25 1040.57 43.1506 1040.85 42.9517C1041.13 42.75 1041.27 42.5085 1041.27 42.2273C1041.27 42 1041.19 41.8097 1041.03 41.6562C1040.87 41.5 1040.62 41.3835 1040.29 41.3068L1039.2 41.0511C1038.6 40.9091 1038.16 40.6889 1037.88 40.3906C1037.6 40.0895 1037.46 39.7131 1037.46 39.2614C1037.46 38.892 1037.57 38.5653 1037.78 38.2812C1037.99 37.9972 1038.27 37.7741 1038.63 37.6122C1039 37.4503 1039.41 37.3693 1039.87 37.3693C1040.52 37.3693 1041.02 37.5114 1041.39 37.7955C1041.77 38.0795 1042.03 38.4545 1042.19 38.9205ZM1043.82 44V37.4545H1044.82V44H1043.82ZM1044.33 36.3636C1044.13 36.3636 1043.97 36.2969 1043.82 36.1634C1043.68 36.0298 1043.61 35.8693 1043.61 35.6818C1043.61 35.4943 1043.68 35.3338 1043.82 35.2003C1043.97 35.0668 1044.13 35 1044.33 35C1044.53 35 1044.69 35.0668 1044.83 35.2003C1044.98 35.3338 1045.05 35.4943 1045.05 35.6818C1045.05 35.8693 1044.98 36.0298 1044.83 36.1634C1044.69 36.2969 1044.53 36.3636 1044.33 36.3636ZM1049.33 44.1364C1048.73 44.1364 1048.22 43.9957 1047.77 43.7145C1047.33 43.4332 1046.98 43.0398 1046.73 42.5341C1046.48 42.0284 1046.36 41.4375 1046.36 40.7614C1046.36 40.0795 1046.48 39.4844 1046.73 38.9759C1046.98 38.4673 1047.33 38.0724 1047.77 37.7912C1048.22 37.5099 1048.73 37.3693 1049.33 37.3693C1049.92 37.3693 1050.43 37.5099 1050.88 37.7912C1051.32 38.0724 1051.67 38.4673 1051.92 38.9759C1052.17 39.4844 1052.29 40.0795 1052.29 40.7614C1052.29 41.4375 1052.17 42.0284 1051.92 42.5341C1051.67 43.0398 1051.32 43.4332 1050.88 43.7145C1050.43 43.9957 1049.92 44.1364 1049.33 44.1364ZM1049.33 43.233C1049.77 43.233 1050.14 43.1179 1050.43 42.8878C1050.72 42.6577 1050.94 42.3551 1051.08 41.9801C1051.22 41.6051 1051.29 41.1989 1051.29 40.7614C1051.29 40.3239 1051.22 39.9162 1051.08 39.5384C1050.94 39.1605 1050.72 38.8551 1050.43 38.6222C1050.14 38.3892 1049.77 38.2727 1049.33 38.2727C1048.88 38.2727 1048.51 38.3892 1048.22 38.6222C1047.93 38.8551 1047.71 39.1605 1047.57 39.5384C1047.44 39.9162 1047.37 40.3239 1047.37 40.7614C1047.37 41.1989 1047.44 41.6051 1047.57 41.9801C1047.71 42.3551 1047.93 42.6577 1048.22 42.8878C1048.51 43.1179 1048.88 43.233 1049.33 43.233ZM1054.83 40.0625V44H1053.83V37.4545H1054.8V38.4773H1054.88C1055.04 38.1449 1055.27 37.8778 1055.58 37.6761C1055.89 37.4716 1056.3 37.3693 1056.79 37.3693C1057.24 37.3693 1057.62 37.4602 1057.96 37.642C1058.29 37.821 1058.55 38.0938 1058.73 38.4602C1058.92 38.8239 1059.01 39.2841 1059.01 39.8409V44H1058V39.9091C1058 39.3949 1057.87 38.9943 1057.6 38.7074C1057.34 38.4176 1056.97 38.2727 1056.5 38.2727C1056.18 38.2727 1055.89 38.3423 1055.64 38.4815C1055.39 38.6207 1055.19 38.8239 1055.05 39.0909C1054.9 39.358 1054.83 39.6818 1054.83 40.0625ZM1063.88 36.2102V35.2727H1070.43V36.2102H1067.68V44H1066.62V36.2102H1063.88ZM1072.96 44.1534C1072.54 44.1534 1072.16 44.0753 1071.83 43.919C1071.49 43.7599 1071.22 43.5312 1071.02 43.233C1070.82 42.9318 1070.72 42.5682 1070.72 42.142C1070.72 41.767 1070.8 41.4631 1070.94 41.2301C1071.09 40.9943 1071.29 40.8097 1071.54 40.6761C1071.78 40.5426 1072.06 40.4432 1072.36 40.3778C1072.66 40.3097 1072.96 40.2557 1073.26 40.2159C1073.66 40.1648 1073.98 40.1264 1074.23 40.1009C1074.48 40.0724 1074.66 40.0256 1074.78 39.9602C1074.89 39.8949 1074.95 39.7812 1074.95 39.6193V39.5852C1074.95 39.1648 1074.84 38.8381 1074.61 38.6051C1074.38 38.3722 1074.03 38.2557 1073.57 38.2557C1073.09 38.2557 1072.71 38.3608 1072.44 38.571C1072.17 38.7812 1071.98 39.0057 1071.87 39.2443L1070.91 38.9034C1071.08 38.5057 1071.31 38.196 1071.59 37.9744C1071.88 37.75 1072.19 37.5937 1072.53 37.5057C1072.87 37.4148 1073.21 37.3693 1073.54 37.3693C1073.75 37.3693 1073.99 37.3949 1074.26 37.446C1074.54 37.4943 1074.8 37.5952 1075.06 37.7486C1075.32 37.902 1075.53 38.1335 1075.7 38.4432C1075.87 38.7528 1075.96 39.1676 1075.96 39.6875V44H1074.95V43.1136H1074.9C1074.83 43.2557 1074.72 43.4077 1074.56 43.5696C1074.4 43.7315 1074.19 43.8693 1073.92 43.983C1073.66 44.0966 1073.34 44.1534 1072.96 44.1534ZM1073.11 43.25C1073.51 43.25 1073.84 43.1719 1074.12 43.0156C1074.39 42.8594 1074.6 42.6577 1074.74 42.4105C1074.88 42.1634 1074.95 41.9034 1074.95 41.6307V40.7102C1074.91 40.7614 1074.81 40.8082 1074.67 40.8509C1074.53 40.8906 1074.36 40.9261 1074.17 40.9574C1073.99 40.9858 1073.81 41.0114 1073.63 41.0341C1073.46 41.054 1073.32 41.071 1073.21 41.0852C1072.95 41.1193 1072.71 41.1747 1072.48 41.2514C1072.25 41.3253 1072.07 41.4375 1071.93 41.5881C1071.8 41.7358 1071.73 41.9375 1071.73 42.1932C1071.73 42.5426 1071.86 42.8068 1072.12 42.9858C1072.38 43.1619 1072.71 43.25 1073.11 43.25ZM1077.93 44V35.2727H1078.93V38.4943H1079.02C1079.09 38.3807 1079.19 38.2358 1079.33 38.0597C1079.46 37.8807 1079.65 37.7216 1079.9 37.5824C1080.15 37.4403 1080.48 37.3693 1080.91 37.3693C1081.46 37.3693 1081.95 37.5071 1082.37 37.7827C1082.79 38.0582 1083.12 38.4489 1083.35 38.9545C1083.59 39.4602 1083.71 40.0568 1083.71 40.7443C1083.71 41.4375 1083.59 42.0384 1083.35 42.5469C1083.12 43.0526 1082.79 43.4446 1082.37 43.723C1081.95 43.9986 1081.47 44.1364 1080.93 44.1364C1080.51 44.1364 1080.17 44.0668 1079.92 43.9276C1079.67 43.7855 1079.47 43.625 1079.33 43.446C1079.2 43.2642 1079.09 43.1136 1079.02 42.9943H1078.9V44H1077.93ZM1078.92 40.7273C1078.92 41.2216 1078.99 41.6577 1079.13 42.0355C1079.28 42.4105 1079.49 42.7045 1079.77 42.9176C1080.05 43.1278 1080.39 43.233 1080.79 43.233C1081.21 43.233 1081.56 43.1222 1081.84 42.9006C1082.13 42.6761 1082.34 42.375 1082.48 41.9972C1082.63 41.6165 1082.7 41.1932 1082.7 40.7273C1082.7 40.267 1082.63 39.8523 1082.49 39.483C1082.35 39.1108 1082.14 38.8168 1081.85 38.6009C1081.57 38.3821 1081.22 38.2727 1080.79 38.2727C1080.38 38.2727 1080.04 38.3764 1079.76 38.5838C1079.48 38.7884 1079.27 39.0753 1079.13 39.4446C1078.99 39.8111 1078.92 40.2386 1078.92 40.7273ZM1091.67 35.2727V44H1090.61V36.3807H1090.56L1088.43 37.7955V36.7216L1090.61 35.2727H1091.67Z" fill="black"/>
<path d="M1123 34.2086L1121.79 33L1117 37.7914L1112.21 33L1111 34.2086L1115.79 39L1111 43.7914L1112.21 45L1117 40.2086L1121.79 45L1123 43.7914L1118.21 39L1123 34.2086Z" fill="black"/>
<g filter="url(#filter8_d_136_360)">
<circle cx="370" cy="358" r="25" fill="#D9D9D9"/>
<circle cx="370" cy="358" r="24.5" stroke="black"/>
</g>
<path d="M364.256 349.545V367H362.142V351.761H362.04L357.778 354.591V352.443L362.142 349.545H364.256ZM370.298 367H368.082L374.491 349.545H376.673L383.082 367H380.866L375.651 352.307H375.514L370.298 367ZM371.116 360.182H380.048V362.057H371.116V360.182Z" fill="black"/>
<g filter="url(#filter9_d_136_360)">
<circle cx="1471" cy="229" r="25" fill="#D9D9D9"/>
<circle cx="1471" cy="229" r="24.5" stroke="black"/>
</g>
<path d="M1464.7 234.42V232.682L1472.37 220.545H1473.63V223.239H1472.78L1466.98 232.409V232.545H1477.31V234.42H1464.7ZM1472.91 238V233.892V233.082V220.545H1474.93V238H1472.91Z" fill="black"/>
<g filter="url(#filter10_d_136_360)">
<circle cx="839" cy="309" r="25" fill="#D9D9D9"/>
<circle cx="839" cy="309" r="24.5" stroke="black"/>
</g>
<path d="M833.541 318V316.466L839.303 310.159C839.979 309.42 840.536 308.778 840.973 308.233C841.411 307.682 841.734 307.165 841.945 306.682C842.161 306.193 842.268 305.682 842.268 305.148C842.268 304.534 842.121 304.003 841.825 303.554C841.536 303.105 841.138 302.759 840.632 302.514C840.126 302.27 839.558 302.148 838.928 302.148C838.257 302.148 837.672 302.287 837.172 302.565C836.678 302.838 836.294 303.222 836.021 303.716C835.754 304.21 835.621 304.79 835.621 305.455H833.609C833.609 304.432 833.845 303.534 834.317 302.761C834.788 301.989 835.43 301.386 836.243 300.955C837.061 300.523 837.979 300.307 838.996 300.307C840.018 300.307 840.925 300.523 841.714 300.955C842.504 301.386 843.124 301.969 843.572 302.702C844.021 303.435 844.246 304.25 844.246 305.148C844.246 305.79 844.129 306.418 843.896 307.031C843.669 307.639 843.271 308.318 842.703 309.068C842.141 309.812 841.359 310.722 840.359 311.795L836.439 315.989V316.125H844.553V318H833.541Z" fill="black"/>
<defs>
<filter id="filter0_d_136_360" x="316" y="279" width="58" height="58" filterUnits="userSpaceOnUse" color-interpolation-filters="sRGB">
<feFlood flood-opacity="0" result="BackgroundImageFix"/>
<feColorMatrix in="SourceAlpha" type="matrix" values="0 0 0 0 0 0 0 0 0 0 0 0 0 0 0 0 0 0 127 0" result="hardAlpha"/>
<feOffset dy="4"/>
<feGaussianBlur stdDeviation="2"/>
<feComposite in2="hardAlpha" operator="out"/>
<feColorMatrix type="matrix" values="0 0 0 0 0 0 0 0 0 0 0 0 0 0 0 0 0 0 0.25 0"/>
<feBlend mode="normal" in2="BackgroundImageFix" result="effect1_dropShadow_136_360"/>
<feBlend mode="normal" in="SourceGraphic" in2="effect1_dropShadow_136_360" result="shape"/>
</filter>
<filter id="filter1_d_136_360" x="1069" y="551" width="58" height="58" filterUnits="userSpaceOnUse" color-interpolation-filters="sRGB">
<feFlood flood-opacity="0" result="BackgroundImageFix"/>
<feColorMatrix in="SourceAlpha" type="matrix" values="0 0 0 0 0 0 0 0 0 0 0 0 0 0 0 0 0 0 127 0" result="hardAlpha"/>
<feOffset dy="4"/>
<feGaussianBlur stdDeviation="2"/>
<feComposite in2="hardAlpha" operator="out"/>
<feColorMatrix type="matrix" values="0 0 0 0 0 0 0 0 0 0 0 0 0 0 0 0 0 0 0.25 0"/>
<feBlend mode="normal" in2="BackgroundImageFix" result="effect1_dropShadow_136_360"/>
<feBlend mode="normal" in="SourceGraphic" in2="effect1_dropShadow_136_360" result="shape"/>
</filter>
<filter id="filter2_d_136_360" x="341" y="780" width="58" height="58" filterUnits="userSpaceOnUse" color-interpolation-filters="sRGB">
<feFlood flood-opacity="0" result="BackgroundImageFix"/>
<feColorMatrix in="SourceAlpha" type="matrix" values="0 0 0 0 0 0 0 0 0 0 0 0 0 0 0 0 0 0 127 0" result="hardAlpha"/>
<feOffset dy="4"/>
<feGaussianBlur stdDeviation="2"/>
<feComposite in2="hardAlpha" operator="out"/>
<feColorMatrix type="matrix" values="0 0 0 0 0 0 0 0 0 0 0 0 0 0 0 0 0 0 0.25 0"/>
<feBlend mode="normal" in2="BackgroundImageFix" result="effect1_dropShadow_136_360"/>
<feBlend mode="normal" in="SourceGraphic" in2="effect1_dropShadow_136_360" result="shape"/>
</filter>
<filter id="filter3_d_136_360" x="341" y="665" width="58" height="58" filterUnits="userSpaceOnUse" color-interpolation-filters="sRGB">
<feFlood flood-opacity="0" result="BackgroundImageFix"/>
<feColorMatrix in="SourceAlpha" type="matrix" values="0 0 0 0 0 0 0 0 0 0 0 0 0 0 0 0 0 0 127 0" result="hardAlpha"/>
<feOffset dy="4"/>
<feGaussianBlur stdDeviation="2"/>
<feComposite in2="hardAlpha" operator="out"/>
<feColorMatrix type="matrix" values="0 0 0 0 0 0 0 0 0 0 0 0 0 0 0 0 0 0 0.25 0"/>
<feBlend mode="normal" in2="BackgroundImageFix" result="effect1_dropShadow_136_360"/>
<feBlend mode="normal" in="SourceGraphic" in2="effect1_dropShadow_136_360" result="shape"/>
</filter>
<filter id="filter4_d_136_360" x="341" y="551" width="58" height="58" filterUnits="userSpaceOnUse" color-interpolation-filters="sRGB">
<feFlood flood-opacity="0" result="BackgroundImageFix"/>
<feColorMatrix in="SourceAlpha" type="matrix" values="0 0 0 0 0 0 0 0 0 0 0 0 0 0 0 0 0 0 127 0" result="hardAlpha"/>
<feOffset dy="4"/>
<feGaussianBlur stdDeviation="2"/>
<feComposite in2="hardAlpha" operator="out"/>
<feColorMatrix type="matrix" values="0 0 0 0 0 0 0 0 0 0 0 0 0 0 0 0 0 0 0.25 0"/>
<feBlend mode="normal" in2="BackgroundImageFix" result="effect1_dropShadow_136_360"/>
<feBlend mode="normal" in="SourceGraphic" in2="effect1_dropShadow_136_360" result="shape"/>
</filter>
<filter id="filter5_d_136_360" x="341" y="443" width="58" height="58" filterUnits="userSpaceOnUse" color-interpolation-filters="sRGB">
<feFlood flood-opacity="0" result="BackgroundImageFix"/>
<feColorMatrix in="SourceAlpha" type="matrix" values="0 0 0 0 0 0 0 0 0 0 0 0 0 0 0 0 0 0 127 0" result="hardAlpha"/>
<feOffset dy="4"/>
<feGaussianBlur stdDeviation="2"/>
<feComposite in2="hardAlpha" operator="out"/>
<feColorMatrix type="matrix" values="0 0 0 0 0 0 0 0 0 0 0 0 0 0 0 0 0 0 0.25 0"/>
<feBlend mode="normal" in2="BackgroundImageFix" result="effect1_dropShadow_136_360"/>
<feBlend mode="normal" in="SourceGraphic" in2="effect1_dropShadow_136_360" result="shape"/>
</filter>
<filter id="filter6_d_136_360" x="794" y="21" width="141" height="45" filterUnits="userSpaceOnUse" color-interpolation-filters="sRGB">
<feFlood flood-opacity="0" result="BackgroundImageFix"/>
<feColorMatrix in="SourceAlpha" type="matrix" values="0 0 0 0 0 0 0 0 0 0 0 0 0 0 0 0 0 0 127 0" result="hardAlpha"/>
<feOffset dy="4"/>
<feGaussianBlur stdDeviation="2"/>
<feComposite in2="hardAlpha" operator="out"/>
<feColorMatrix type="matrix" values="0 0 0 0 0 0 0 0 0 0 0 0 0 0 0 0 0 0 0.25 0"/>
<feBlend mode="normal" in2="BackgroundImageFix" result="effect1_dropShadow_136_360"/>
<feBlend mode="normal" in="SourceGraphic" in2="effect1_dropShadow_136_360" result="shape"/>
</filter>
<filter id="filter7_d_136_360" x="987" y="21" width="154" height="45" filterUnits="userSpaceOnUse" color-interpolation-filters="sRGB">
<feFlood flood-opacity="0" result="BackgroundImageFix"/>
<feColorMatrix in="SourceAlpha" type="matrix" values="0 0 0 0 0 0 0 0 0 0 0 0 0 0 0 0 0 0 127 0" result="hardAlpha"/>
<feOffset dy="4"/>
<feGaussianBlur stdDeviation="2"/>
<feComposite in2="hardAlpha" operator="out"/>
<feColorMatrix type="matrix" values="0 0 0 0 0 0 0 0 0 0 0 0 0 0 0 0 0 0 0.25 0"/>
<feBlend mode="normal" in2="BackgroundImageFix" result="effect1_dropShadow_136_360"/>
<feBlend mode="normal" in="SourceGraphic" in2="effect1_dropShadow_136_360" result="shape"/>
</filter>
<filter id="filter8_d_136_360" x="341" y="333" width="58" height="58" filterUnits="userSpaceOnUse" color-interpolation-filters="sRGB">
<feFlood flood-opacity="0" result="BackgroundImageFix"/>
<feColorMatrix in="SourceAlpha" type="matrix" values="0 0 0 0 0 0 0 0 0 0 0 0 0 0 0 0 0 0 127 0" result="hardAlpha"/>
<feOffset dy="4"/>
<feGaussianBlur stdDeviation="2"/>
<feComposite in2="hardAlpha" operator="out"/>
<feColorMatrix type="matrix" values="0 0 0 0 0 0 0 0 0 0 0 0 0 0 0 0 0 0 0.25 0"/>
<feBlend mode="normal" in2="BackgroundImageFix" result="effect1_dropShadow_136_360"/>
<feBlend mode="normal" in="SourceGraphic" in2="effect1_dropShadow_136_360" result="shape"/>
</filter>
<filter id="filter9_d_136_360" x="1442" y="204" width="58" height="58" filterUnits="userSpaceOnUse" color-interpolation-filters="sRGB">
<feFlood flood-opacity="0" result="BackgroundImageFix"/>
<feColorMatrix in="SourceAlpha" type="matrix" values="0 0 0 0 0 0 0 0 0 0 0 0 0 0 0 0 0 0 127 0" result="hardAlpha"/>
<feOffset dy="4"/>
<feGaussianBlur stdDeviation="2"/>
<feComposite in2="hardAlpha" operator="out"/>
<feColorMatrix type="matrix" values="0 0 0 0 0 0 0 0 0 0 0 0 0 0 0 0 0 0 0.25 0"/>
<feBlend mode="normal" in2="BackgroundImageFix" result="effect1_dropShadow_136_360"/>
<feBlend mode="normal" in="SourceGraphic" in2="effect1_dropShadow_136_360" result="shape"/>
</filter>
<filter id="filter10_d_136_360" x="810" y="284" width="58" height="58" filterUnits="userSpaceOnUse" color-interpolation-filters="sRGB">
<feFlood flood-opacity="0" result="BackgroundImageFix"/>
<feColorMatrix in="SourceAlpha" type="matrix" values="0 0 0 0 0 0 0 0 0 0 0 0 0 0 0 0 0 0 127 0" result="hardAlpha"/>
<feOffset dy="4"/>
<feGaussianBlur stdDeviation="2"/>
<feComposite in2="hardAlpha" operator="out"/>
<feColorMatrix type="matrix" values="0 0 0 0 0 0 0 0 0 0 0 0 0 0 0 0 0 0 0.25 0"/>
<feBlend mode="normal" in2="BackgroundImageFix" result="effect1_dropShadow_136_360"/>
<feBlend mode="normal" in="SourceGraphic" in2="effect1_dropShadow_136_360" result="shape"/>
</filter>
</defs>
</svg>
